Mont_SC_170822_Bold.ufo
<glyph name="exclam" format="1">
  <advance width="284.18154517"/>
  <unicode hex="0021"/>
  <outline>
    <contour>
      <point x="229.88695793" y="232.580274715" type="line"/>
      <point x="273.71483261" y="581.699989319" type="line"/>
      <point x="10.4667125599" y="581.699989319" type="line"/>
      <point x="54.2945872402" y="232.580274715" type="line"/>
    </contour>
    <contour>
      <point x="268.648984934" y="102.146101521" type="curve" smooth="yes"/>
      <point x="268.648984934" y="164.363485207"/>
      <point x="217.066674407" y="211.557220346"/>
      <point x="142.090772585" y="211.557220346" type="curve" smooth="yes"/>
      <point x="67.1148707637" y="211.557220346"/>
      <point x="15.5325602362" y="164.363485207"/>
      <point x="15.5325602362" y="102.146101521" type="curve" smooth="yes"/>
      <point x="15.5325602362" y="40.8831213055"/>
      <point x="67.1148707637" y="-9.17382424279"/>
      <point x="142.090772585" y="-9.17382424279" type="curve" smooth="yes"/>
      <point x="217.066674407" y="-9.17382424279"/>
      <point x="268.648984934" y="40.8831213055"/>
    </contour>
  </outline>
</glyph>
<glyph name="numbersign" format="1">
  <advance width="634.185275813"/>
  <unicode hex="0023"/>
  <outline>
    <contour>
      <point x="467.218718308" y="0.0" type="line"/>
      <point x="540.961152965" y="581.699989319" type="line"/>
      <point x="385.940117568" y="581.699989319" type="line"/>
      <point x="312.197682911" y="0.0" type="line"/>
    </contour>
    <contour>
      <point x="597.091560237" y="104.838543501" type="line"/>
      <point x="597.231996221" y="245.654397754" type="line"/>
      <point x="7.90840814136" y="245.654397754" type="line"/>
      <point x="7.7679721568" y="104.838543501" type="line"/>
    </contour>
    <contour>
      <point x="248.245158245" y="0.0" type="line"/>
      <point x="321.987592902" y="581.699989319" type="line"/>
      <point x="166.966557505" y="581.699989319" type="line"/>
      <point x="93.2241228478" y="0.0" type="line"/>
    </contour>
    <contour>
      <point x="626.276867672" y="336.045591565" type="line"/>
      <point x="626.417303656" y="476.861445818" type="line"/>
      <point x="37.0937155762" y="476.861445818" type="line"/>
      <point x="36.9532795917" y="336.045591565" type="line"/>
    </contour>
  </outline>
</glyph>
<glyph name="dollar" format="1">
  <advance width="563.68640511"/>
  <unicode hex="0024"/>
  <outline>
    <contour>
      <point x="361.749592184" y="-99.7199981689" type="line"/>
      <point x="361.749592184" y="681.419987488" type="line"/>
      <point x="225.33040422" y="681.419987488" type="line"/>
      <point x="225.33040422" y="-99.7199981689" type="line"/>
    </contour>
    <contour>
      <point x="559.008024614" y="188.743363926" type="curve" smooth="yes"/>
      <point x="559.008024614" y="403.758377414"/>
      <point x="239.751317623" y="353.609605011"/>
      <point x="239.751317623" y="404.656274001" type="curve" smooth="yes"/>
      <point x="239.751317623" y="416.825854076"/>
      <point x="251.903261998" y="427.152276033"/>
      <point x="299.323254149" y="427.152276033" type="curve" smooth="yes"/>
      <point x="350.64838125" y="427.152276033"/>
      <point x="404.655328366" y="413.395486748"/>
      <point x="464.854995112" y="385.050908192" type="curve"/>
      <point x="533.347153102" y="546.279445766" type="line"/>
      <point x="468.499562556" y="580.597252111"/>
      <point x="383.628844345" y="596.60023438"/>
      <point x="301.436562073" y="596.60023438" type="curve" smooth="yes"/>
      <point x="110.411458202" y="596.60023438"/>
      <point x="12.7204564677" y="505.799359327"/>
      <point x="12.7204564677" y="393.080028878" type="curve" smooth="yes"/>
      <point x="12.7204564677" y="175.818822406"/>
      <point x="331.977163458" y="226.551787824"/>
      <point x="331.977163458" y="171.564101469" type="curve" smooth="yes"/>
      <point x="331.977163458" y="159.271117909"/>
      <point x="317.852347145" y="154.547713286"/>
      <point x="273.107406855" y="154.547713286" type="curve" smooth="yes"/>
      <point x="210.914563705" y="154.547713286"/>
      <point x="136.607001033" y="173.348257143"/>
      <point x="77.6814103795" y="204.153011242" type="curve"/>
      <point x="4.67838049652" y="41.5998597433" type="line"/>
      <point x="67.1284070732" y="7.71791267529"/>
      <point x="169.905560948" y="-14.9002450616"/>
      <point x="270.994098932" y="-14.9002450616" type="curve" smooth="yes"/>
      <point x="461.738330833" y="-14.9002450616"/>
      <point x="559.008024614" y="78.0562439019"/>
    </contour>
  </outline>
</glyph>
<glyph name="ampersand" format="1">
  <advance width="663.614230366"/>
  <unicode hex="0026"/>
  <outline>
    <contour>
      <point x="656.116977946" y="287.294976065" type="curve"/>
      <point x="479.95947924" y="338.339149494" type="line"/>
      <point x="458.381403513" y="217.424080745"/>
      <point x="376.740712947" y="143.341678618"/>
      <point x="299.022077716" y="143.341678618" type="curve" smooth="yes"/>
      <point x="253.167185859" y="143.341678618"/>
      <point x="232.976549591" y="161.582959714"/>
      <point x="232.976549591" y="183.510557047" type="curve" smooth="yes"/>
      <point x="232.976549591" y="213.6326449"/>
      <point x="257.798189272" y="235.847767771"/>
      <point x="317.617156993" y="254.82157562" type="curve" smooth="yes"/>
      <point x="447.188822489" y="299.934487608"/>
      <point x="512.173464942" y="355.339749363"/>
      <point x="512.173464942" y="439.278641979" type="curve" smooth="yes"/>
      <point x="512.173464942" y="532.728744883"/>
      <point x="428.158898948" y="592.782620501"/>
      <point x="305.094665826" y="592.782620501" type="curve" smooth="yes"/>
      <point x="171.176252964" y="592.782620501"/>
      <point x="83.6372510466" y="525.95734152"/>
      <point x="83.6372510466" y="429.059835192" type="curve" smooth="yes"/>
      <point x="83.6372510466" y="379.290415182"/>
      <point x="110.842918388" y="329.578749836"/>
      <point x="165.976737458" y="285.634223877" type="curve" smooth="yes"/>
      <point x="532.685582108" y="-12.2838416223" type="line"/>
      <point x="648.53343478" y="118.22262677" type="line"/>
      <point x="338.048056302" y="366.602290913" type="line" smooth="yes"/>
      <point x="289.538417048" y="404.943799539"/>
      <point x="279.102161185" y="415.895133079"/>
      <point x="279.102161185" y="431.923045602" type="curve" smooth="yes"/>
      <point x="279.102161185" y="445.359484938"/>
      <point x="289.130645404" y="455.784380127"/>
      <point x="308.053973734" y="455.784380127" type="curve" smooth="yes"/>
      <point x="324.720174079" y="455.784380127"/>
      <point x="332.351094328" y="446.651274452"/>
      <point x="332.351094328" y="434.50662463" type="curve" smooth="yes"/>
      <point x="332.351094328" y="415.92795749"/>
      <point x="307.669890631" y="394.140799737"/>
      <point x="227.704279648" y="367.622343204" type="curve" smooth="yes"/>
      <point x="88.1244343976" y="319.062027792"/>
      <point x="21.7286639437" y="258.95039751"/>
      <point x="21.7286639437" y="167.285698061" type="curve" smooth="yes"/>
      <point x="21.7286639437" y="58.7870163572"/>
      <point x="139.298973281" y="-14.9002450616"/>
      <point x="285.211974146" y="-14.9002450616" type="curve" smooth="yes"/>
      <point x="466.369334246" y="-14.9002450616"/>
      <point x="616.077490771" y="114.167347858"/>
    </contour>
  </outline>
</glyph>
<glyph name="parenleft" format="1">
  <advance width="332.156513105"/>
  <unicode hex="0028"/>
  <outline>
    <contour>
      <point x="355.098339749" y="-161.21399704" type="line"/>
      <point x="276.992237339" y="-24.3050879595"/>
      <point x="244.28249398" y="96.8646819171"/>
      <point x="244.28249398" y="227.693995819" type="curve" smooth="yes"/>
      <point x="244.28249398" y="358.523309721"/>
      <point x="276.992237339" y="479.693079598"/>
      <point x="355.098339749" y="616.601988678" type="curve"/>
      <point x="144.696454087" y="616.601988678" type="line"/>
      <point x="69.8339156312" y="516.635183539"/>
      <point x="29.0888644564" y="379.520186057"/>
      <point x="29.0888644564" y="227.693995819" type="curve" smooth="yes"/>
      <point x="29.0888644564" y="75.8678055816"/>
      <point x="69.8339156312" y="-61.6174023559"/>
      <point x="144.696454087" y="-161.21399704" type="curve"/>
    </contour>
  </outline>
</glyph>
<glyph name="parenright" format="1">
  <advance width="332.156513105"/>
  <unicode hex="0029"/>
  <outline>
    <contour>
      <point x="303.067648649" y="227.693995819" type="curve" smooth="yes"/>
      <point x="303.067648649" y="379.520186057"/>
      <point x="262.322597474" y="516.635183539"/>
      <point x="187.460059018" y="616.601988678" type="curve"/>
      <point x="-22.9418266439" y="616.601988678" type="line"/>
      <point x="55.1642757667" y="479.693079598"/>
      <point x="87.8740191251" y="358.523309721"/>
      <point x="87.8740191251" y="227.693995819" type="curve" smooth="yes"/>
      <point x="87.8740191251" y="96.8646819171"/>
      <point x="55.1642757667" y="-24.3050879595"/>
      <point x="-22.9418266439" y="-161.21399704" type="curve"/>
      <point x="187.460059018" y="-161.21399704" type="line"/>
      <point x="262.322597474" y="-61.6174023559"/>
      <point x="303.067648649" y="75.8678055816"/>
    </contour>
  </outline>
</glyph>
<glyph name="asterisk" format="1">
  <advance width="416.308131007"/>
  <unicode hex="002A"/>
  <outline>
    <contour>
      <point x="347.381128753" y="581.247093947" type="line"/>
      <point x="253.882902091" y="523.603533366" type="line"/>
      <point x="269.528825693" y="514.553112608" type="line"/>
      <point x="272.488133601" y="616.601988678" type="line"/>
      <point x="142.833561437" y="616.601988678" type="line"/>
      <point x="145.792869345" y="514.553112608" type="line"/>
      <point x="161.438792946" y="523.603533366" type="line"/>
      <point x="67.9405662841" y="581.247093947" type="line"/>
      <point x="2.12684423273" y="476.328361091" type="line"/>
      <point x="108.308302511" y="421.548010919" type="line"/>
      <point x="108.308302511" y="452.763694041" type="line"/>
      <point x="2.12684423273" y="397.98334387" type="line"/>
      <point x="67.9405662841" y="293.064611014" type="line"/>
      <point x="161.298356962" y="350.708171595" type="line"/>
      <point x="145.792869345" y="359.758592352" type="line"/>
      <point x="142.833561437" y="257.709716282" type="line"/>
      <point x="272.488133601" y="257.709716282" type="line"/>
      <point x="269.528825693" y="359.758592352" type="line"/>
      <point x="253.882902091" y="350.708171595" type="line"/>
      <point x="347.381128753" y="293.064611014" type="line"/>
      <point x="414.181286774" y="397.98334387" type="line"/>
      <point x="307.859392511" y="452.763694041" type="line"/>
      <point x="307.859392511" y="421.548010919" type="line"/>
      <point x="414.181286774" y="476.328361091" type="line"/>
    </contour>
  </outline>
</glyph>
<glyph name="plus" format="1">
  <advance width="532.946149613"/>
  <unicode hex="002B"/>
  <outline>
    <contour>
      <point x="353.847952198" y="81.7018415704" type="line"/>
      <point x="353.847952198" y="499.998147748" type="line"/>
      <point x="179.098197415" y="499.998147748" type="line"/>
      <point x="179.098197415" y="81.7018415704" type="line"/>
    </contour>
    <contour>
      <point x="489.224870143" y="210.959734577" type="line"/>
      <point x="489.224870143" y="370.863658227" type="line"/>
      <point x="43.7212794696" y="370.863658227" type="line"/>
      <point x="43.7212794696" y="210.959734577" type="line"/>
    </contour>
  </outline>
</glyph>
<glyph name="comma" format="1">
  <advance width="274.317185477"/>
  <unicode hex="002C"/>
  <outline>
    <contour>
      <point x="161.391415863" y="-135.42806726" type="line"/>
      <point x="225.807546223" y="-9.75801725742" type="line"/>
      <point x="260.05193318" y="60.4648046416"/>
      <point x="263.716805088" y="82.5066635213"/>
      <point x="263.716805088" y="111.690136219" type="curve" smooth="yes"/>
      <point x="263.716805088" y="184.652765043"/>
      <point x="209.880750653" y="230.645289742"/>
      <point x="137.158592739" y="230.645289742" type="curve" smooth="yes"/>
      <point x="64.2959988403" y="230.645289742"/>
      <point x="10.6003803897" y="184.405958072"/>
      <point x="10.6003803897" y="111.690136219" type="curve" smooth="yes"/>
      <point x="10.6003803897" y="38.9743143659"/>
      <point x="62.1826909172" y="-4.40180689381"/>
      <point x="136.87772077" y="-4.40180689381" type="curve"/>
      <point x="104.325333783" y="114.495591965" type="line"/>
      <point x="25.8182278829" y="-135.42806726" type="line"/>
    </contour>
  </outline>
</glyph>
<glyph name="hyphen" format="1">
  <advance width="331.344353895"/>
  <unicode hex="002D"/>
  <outline>
    <contour>
      <point x="296.083074272" y="163.230419149" type="line"/>
      <point x="296.083074272" y="323.134342799" type="line"/>
      <point x="35.2612796222" y="323.134342799" type="line"/>
      <point x="35.2612796222" y="163.230419149" type="line"/>
    </contour>
  </outline>
</glyph>
<glyph name="period" format="1">
  <advance width="274.317185477"/>
  <unicode hex="002E"/>
  <outline>
    <contour>
      <point x="263.716805088" y="111.690136219" type="curve" smooth="yes"/>
      <point x="263.716805088" y="183.451554603"/>
      <point x="209.175186652" y="230.645289742"/>
      <point x="137.158592739" y="230.645289742" type="curve" smooth="yes"/>
      <point x="65.1419988251" y="230.645289742"/>
      <point x="10.6003803897" y="183.451554603"/>
      <point x="10.6003803897" y="111.690136219" type="curve" smooth="yes"/>
      <point x="10.6003803897" y="40.8831213055"/>
      <point x="65.1419988251" y="-9.17382424279"/>
      <point x="137.158592739" y="-9.17382424279" type="curve" smooth="yes"/>
      <point x="209.175186652" y="-9.17382424279"/>
      <point x="263.716805088" y="40.8831213055"/>
    </contour>
  </outline>
</glyph>
<glyph name="zero" format="1">
  <advance width="583.157941069"/>
  <unicode hex="0030"/>
  <outline>
    <contour>
      <point x="562.837021048" y="290.849994659" type="curve" smooth="yes"/>
      <point x="562.837021048" y="485.86325385"/>
      <point x="449.767431371" y="596.60023438"/>
      <point x="291.578970534" y="596.60023438" type="curve" smooth="yes"/>
      <point x="133.390509697" y="596.60023438"/>
      <point x="20.3209200208" y="485.86325385"/>
      <point x="20.3209200208" y="290.849994659" type="curve" smooth="yes"/>
      <point x="20.3209200208" y="95.8367354685"/>
      <point x="133.390509697" y="-14.9002450616"/>
      <point x="291.578970534" y="-14.9002450616" type="curve" smooth="yes"/>
      <point x="449.767431371" y="-14.9002450616"/>
      <point x="562.837021048" y="95.8367354685"/>
    </contour>
    <contour>
      <point x="247.351781176" y="290.849994659" type="curve" smooth="yes"/>
      <point x="247.351781176" y="394.396748646"/>
      <point x="266.847005677" y="418.562644805"/>
      <point x="291.578970534" y="418.562644805" type="curve" smooth="yes"/>
      <point x="316.310935392" y="418.562644805"/>
      <point x="335.806159893" y="394.396748646"/>
      <point x="335.806159893" y="290.849994659" type="curve" smooth="yes"/>
      <point x="335.806159893" y="187.303240673"/>
      <point x="316.310935392" y="163.137344514"/>
      <point x="291.578970534" y="163.137344514" type="curve" smooth="yes"/>
      <point x="266.847005677" y="163.137344514"/>
      <point x="247.351781176" y="187.303240673"/>
    </contour>
  </outline>
</glyph>
<glyph name="one" format="1">
  <advance width="364.301128448"/>
  <unicode hex="0031"/>
  <outline>
    <contour>
      <point x="326.752264144" y="0.0" type="line"/>
      <point x="326.752264144" y="581.699989319" type="line"/>
      <point x="3.52782000092" y="581.699989319" type="line"/>
      <point x="3.52782000092" y="414.160837911" type="line"/>
      <point x="194.987768135" y="414.160837911" type="line"/>
      <point x="96.6216590964" y="504.796343131" type="line"/>
      <point x="96.6216590964" y="0.0" type="line"/>
    </contour>
  </outline>
</glyph>
<glyph name="two" format="1">
  <advance width="521.811097904"/>
  <unicode hex="0032"/>
  <outline>
    <contour>
      <point x="510.371485685" y="0.0" type="line"/>
      <point x="510.371485685" y="172.311168757" type="line"/>
      <point x="216.474473772" y="172.311168757" type="line"/>
      <point x="251.287372821" y="95.0373121137" type="line"/>
      <point x="395.44915559" y="223.374873842" type="line" smooth="yes"/>
      <point x="481.313077925" y="299.826872438"/>
      <point x="495.979333712" y="351.965888918"/>
      <point x="495.979333712" y="409.67509832" type="curve" smooth="yes"/>
      <point x="495.979333712" y="522.912972962"/>
      <point x="394.195383961" y="596.60023438"/>
      <point x="250.957434957" y="596.60023438" type="curve" smooth="yes"/>
      <point x="118.302945957" y="596.60023438"/>
      <point x="30.3324838531" y="537.558516896"/>
      <point x="-11.6866434149" y="453.093185928" type="curve"/>
      <point x="157.987111459" y="369.878925907" type="line"/>
      <point x="171.540031602" y="402.929872991"/>
      <point x="201.30738744" y="421.425855215"/>
      <point x="229.255843633" y="421.425855215" type="curve" smooth="yes"/>
      <point x="255.810092212" y="421.425855215"/>
      <point x="268.948472556" y="409.157801907"/>
      <point x="268.948472556" y="388.801625469" type="curve" smooth="yes"/>
      <point x="268.948472556" y="373.176747813"/>
      <point x="264.571268493" y="353.824835351"/>
      <point x="229.721144592" y="321.982992865" type="curve" smooth="yes"/>
      <point x="22.7049476808" y="136.537450844" type="line"/>
      <point x="22.7049476808" y="0.0" type="line"/>
    </contour>
  </outline>
</glyph>
<glyph name="three" format="1">
  <advance width="524.767021735"/>
  <unicode hex="0033"/>
  <outline>
    <contour>
      <point x="507.83348573" y="190.092908104" type="curve" smooth="yes"/>
      <point x="507.83348573" y="294.124134092"/>
      <point x="427.32981935" y="367.408360645"/>
      <point x="278.861898144" y="367.408360645" type="curve" smooth="yes"/>
      <point x="220.795843785" y="367.408360645" type="line"/>
      <point x="331.982236347" y="307.190362974" type="line"/>
      <point x="474.000254495" y="445.162538474" type="line"/>
      <point x="474.000254495" y="581.699989319" type="line"/>
      <point x="22.4308438665" y="581.699989319" type="line"/>
      <point x="22.4308438665" y="414.160837911" type="line"/>
      <point x="306.155551498" y="414.160837911" type="line"/>
      <point x="285.721268112" y="488.69488763" type="line"/>
      <point x="143.703249963" y="350.722712129" type="line"/>
      <point x="143.703249963" y="214.185261284" type="line"/>
      <point x="230.386099664" y="214.185261284" type="line" smooth="yes"/>
      <point x="268.085552185" y="214.185261284"/>
      <point x="280.802624575" y="205.520839297"/>
      <point x="280.802624575" y="190.092908104" type="curve" smooth="yes"/>
      <point x="280.802624575" y="168.938556092"/>
      <point x="253.42944863" y="160.274134104"/>
      <point x="220.66894411" y="160.274134104" type="curve" smooth="yes"/>
      <point x="176.934128331" y="160.274134104"/>
      <point x="120.807105137" y="170.485046734"/>
      <point x="67.0979503767" y="197.472186954" type="curve"/>
      <point x="-6.04551549078" y="33.0102285152" type="line"/>
      <point x="61.0524348859" y="0.0826849169235"/>
      <point x="149.59479316" y="-14.9002450616"/>
      <point x="228.560431865" y="-14.9002450616" type="curve" smooth="yes"/>
      <point x="425.497383396" y="-14.9002450616"/>
      <point x="507.83348573" y="89.8792959946"/>
    </contour>
  </outline>
</glyph>
<glyph name="four" format="1">
  <advance width="611.901636086"/>
  <unicode hex="0034"/>
  <outline>
    <contour>
      <point x="610.343303946" y="88.8604914842" type="line"/>
      <point x="610.343303946" y="261.171660241" type="line"/>
      <point x="155.743519784" y="261.171660241" type="line"/>
      <point x="262.425808608" y="230.169959678" type="line"/>
      <point x="489.214717911" y="581.699989319" type="line"/>
      <point x="253.86767697" y="581.699989319" type="line"/>
      <point x="16.2279720042" y="230.169959678" type="line"/>
      <point x="16.2279720042" y="88.8604914842" type="line"/>
    </contour>
    <contour>
      <point x="540.512772392" y="0.0" type="line"/>
      <point x="540.512772392" y="340.709993744" type="line"/>
      <point x="324.332706899" y="340.709993744" type="line"/>
      <point x="324.332706899" y="261.171660241" type="line"/>
      <point x="317.427655114" y="88.8604914842" type="line"/>
      <point x="317.427655114" y="0.0" type="line"/>
    </contour>
  </outline>
</glyph>
<glyph name="five" format="1">
  <advance width="524.767021735"/>
  <unicode hex="0035"/>
  <outline>
    <contour>
      <point x="516.2901015" y="195.819328923" type="curve" smooth="yes"/>
      <point x="516.2901015" y="300.220765366"/>
      <point x="449.03817883" y="385.821657952"/>
      <point x="277.998977772" y="385.821657952" type="curve" smooth="yes"/>
      <point x="135.326156785" y="385.821657952" type="line"/>
      <point x="251.869421224" y="290.660942353" type="line"/>
      <point x="267.388445151" y="509.56836048" type="line"/>
      <point x="150.985616696" y="414.160837911" type="line"/>
      <point x="475.829306372" y="414.160837911" type="line"/>
      <point x="475.829306372" y="581.699989319" type="line"/>
      <point x="70.6562270742" y="581.699989319" type="line"/>
      <point x="41.6079715464" y="218.282506544" type="line"/>
      <point x="221.912563507" y="218.282506544" type="line" smooth="yes"/>
      <point x="277.251116032" y="218.282506544"/>
      <point x="289.259240345" y="206.968856707"/>
      <point x="289.259240345" y="191.047311574" type="curve" smooth="yes"/>
      <point x="289.259240345" y="169.892959562"/>
      <point x="261.8860644" y="157.410923695"/>
      <point x="229.12555988" y="157.410923695" type="curve" smooth="yes"/>
      <point x="185.390744101" y="157.410923695"/>
      <point x="129.263720907" y="170.485046734"/>
      <point x="75.5545661467" y="197.472186954" type="curve"/>
      <point x="2.41110027924" y="33.0102285152" type="line"/>
      <point x="69.5090506559" y="0.0826849169235"/>
      <point x="158.05140893" y="-14.9002450616"/>
      <point x="237.017047635" y="-14.9002450616" type="curve" smooth="yes"/>
      <point x="433.953999166" y="-14.9002450616"/>
      <point x="516.2901015" y="90.8336994644"/>
    </contour>
  </outline>
</glyph>
<glyph name="six" format="1">
  <advance width="561.004585094"/>
  <unicode hex="0036"/>
  <outline>
    <contour>
      <point x="554.363484891" y="193.630890602" type="curve" smooth="yes"/>
      <point x="554.363484891" y="309.082133817"/>
      <point x="458.494766878" y="382.242956885"/>
      <point x="352.878436616" y="382.242956885" type="curve" smooth="yes"/>
      <point x="274.323953632" y="382.242956885"/>
      <point x="230.448701868" y="355.724500352"/>
      <point x="192.539443004" y="307.114324433" type="curve"/>
      <point x="244.68349747" y="268.041536836" type="line"/>
      <point x="246.930473223" y="280.836028494"/>
      <point x="247.351781176" y="291.935695772"/>
      <point x="247.351781176" y="306.828046676" type="curve" smooth="yes"/>
      <point x="247.351781176" y="382.631451217"/>
      <point x="292.076417002" y="424.289065624"/>
      <point x="362.19458868" y="424.289065624" type="curve" smooth="yes"/>
      <point x="398.014228163" y="424.289065624"/>
      <point x="432.422739646" y="417.764469231"/>
      <point x="467.951354927" y="392.801645278" type="curve"/>
      <point x="546.448308595" y="548.180358548" type="line"/>
      <point x="500.911513558" y="578.499392865"/>
      <point x="429.299307211" y="596.60023438"/>
      <point x="356.275972864" y="596.60023438" type="curve" smooth="yes"/>
      <point x="156.366177115" y="596.60023438"/>
      <point x="20.3209200208" y="474.682149436"/>
      <point x="20.3209200208" y="269.853118324" type="curve" smooth="yes"/>
      <point x="20.3209200208" y="78.0732799975"/>
      <point x="140.710101281" y="-14.9002450616"/>
      <point x="310.465074013" y="-14.9002450616" type="curve" smooth="yes"/>
      <point x="445.105971262" y="-14.9002450616"/>
      <point x="554.363484891" y="65.7724022796"/>
    </contour>
    <contour>
      <point x="253.849061317" y="183.379259405" type="curve" smooth="yes"/>
      <point x="253.849061317" y="212.53904963"/>
      <point x="271.22420974" y="229.019857525"/>
      <point x="294.678714427" y="229.019857525" type="curve" smooth="yes"/>
      <point x="317.852347145" y="229.019857525"/>
      <point x="336.210547459" y="211.305014779"/>
      <point x="336.210547459" y="183.132452434" type="curve" smooth="yes"/>
      <point x="336.210547459" y="154.95989009"/>
      <point x="318.273655099" y="138.322854299"/>
      <point x="293.695662535" y="138.322854299" type="curve" smooth="yes"/>
      <point x="272.909441554" y="138.322854299"/>
      <point x="253.849061317" y="152.245013418"/>
    </contour>
  </outline>
</glyph>
<glyph name="seven" format="1">
  <advance width="556.202689"/>
  <unicode hex="0037"/>
  <outline>
    <contour>
      <point x="352.399599346" y="0.0" type="line"/>
      <point x="538.282717026" y="445.162538474" type="line"/>
      <point x="538.282717026" y="581.699989319" type="line"/>
      <point x="15.6594599112" y="581.699989319" type="line"/>
      <point x="15.6594599112" y="329.439558036" type="line"/>
      <point x="205.205754233" y="329.439558036" type="line"/>
      <point x="205.205754233" y="510.52276395" type="line"/>
      <point x="115.717568919" y="409.388820562" type="line"/>
      <point x="377.771141922" y="409.388820562" type="line"/>
      <point x="317.310907671" y="503.010939677" type="line"/>
      <point x="101.129146912" y="0.0" type="line"/>
    </contour>
  </outline>
</glyph>
<glyph name="eight" format="1">
  <advance width="586.809276667"/>
  <unicode hex="0038"/>
  <outline>
    <contour>
      <point x="563.107740785" y="175.316066527" type="curve" smooth="yes"/>
      <point x="563.107740785" y="291.046941123"/>
      <point x="446.52048334" y="356.852167813"/>
      <point x="293.545074318" y="356.852167813" type="curve" smooth="yes"/>
      <point x="140.569665297" y="356.852167813"/>
      <point x="23.7015358823" y="291.046941123"/>
      <point x="23.7015358823" y="175.316066527" type="curve" smooth="yes"/>
      <point x="23.7015358823" y="60.0788058715"/>
      <point x="135.777921435" y="-14.9002450616"/>
      <point x="293.545074318" y="-14.9002450616" type="curve" smooth="yes"/>
      <point x="451.312227202" y="-14.9002450616"/>
      <point x="563.107740785" y="60.0788058715"/>
    </contour>
    <contour>
      <point x="250.732397038" y="183.074697771" type="curve" smooth="yes"/>
      <point x="250.732397038" y="213.312294951"/>
      <point x="270.220853383" y="231.890962092"/>
      <point x="293.545074318" y="231.890962092" type="curve" smooth="yes"/>
      <point x="316.869295253" y="231.890962092"/>
      <point x="336.076879629" y="213.312294951"/>
      <point x="336.076879629" y="183.074697771" type="curve" smooth="yes"/>
      <point x="336.076879629" y="153.083907561"/>
      <point x="316.869295253" y="134.50524042"/>
      <point x="293.545074318" y="134.50524042" type="curve" smooth="yes"/>
      <point x="270.220853383" y="134.50524042"/>
      <point x="250.732397038" y="153.083907561"/>
    </contour>
    <contour>
      <point x="541.957741167" y="418.725519078" type="curve" smooth="yes"/>
      <point x="541.957741167" y="526.607183356"/>
      <point x="439.464843338" y="596.60023438"/>
      <point x="293.545074318" y="596.60023438" type="curve" smooth="yes"/>
      <point x="147.625305299" y="596.60023438"/>
      <point x="44.8515355009" y="526.607183356"/>
      <point x="44.8515355009" y="418.725519078" type="curve" smooth="yes"/>
      <point x="44.8515355009" y="310.350240859"/>
      <point x="153.540537037" y="249.654417563"/>
      <point x="293.545074318" y="249.654417563" type="curve" smooth="yes"/>
      <point x="433.549611599" y="249.654417563"/>
      <point x="541.957741167" y="310.350240859"/>
    </contour>
    <contour>
      <point x="267.936652779" y="409.058080895" type="curve" smooth="yes"/>
      <point x="267.936652779" y="433.602081667"/>
      <point x="280.235801293" y="447.194748899"/>
      <point x="293.545074318" y="447.194748899" type="curve" smooth="yes"/>
      <point x="306.854347343" y="447.194748899"/>
      <point x="318.872623888" y="433.602081667"/>
      <point x="318.872623888" y="409.18148438" type="curve" smooth="yes"/>
      <point x="318.872623888" y="384.390676638"/>
      <point x="306.292603405" y="370.798009405"/>
      <point x="293.545074318" y="370.798009405" type="curve" smooth="yes"/>
      <point x="280.797545231" y="370.798009405"/>
      <point x="267.936652779" y="384.390676638"/>
    </contour>
  </outline>
</glyph>
<glyph name="less" format="1">
  <advance width="532.946149613"/>
  <unicode hex="003C"/>
  <outline>
    <contour>
      <point x="489.224870143" y="211.336591409" type="line"/>
      <point x="105.027513706" y="337.122150739" type="line"/>
      <point x="105.027513706" y="244.57783858" type="line"/>
      <point x="489.224870143" y="370.363397909" type="line"/>
      <point x="489.224870143" y="529.897111103" type="line"/>
      <point x="43.7212794696" y="374.434465136" type="line"/>
      <point x="43.7212794696" y="207.265524183" type="line"/>
      <point x="489.224870143" y="51.8028782154" type="line"/>
    </contour>
  </outline>
</glyph>
<glyph name="equal" format="1">
  <advance width="532.946149613"/>
  <unicode hex="003D"/>
  <outline>
    <contour>
      <point x="489.224870143" y="321.457802295" type="line"/>
      <point x="489.224870143" y="481.361725944" type="line"/>
      <point x="43.7212794696" y="481.361725944" type="line"/>
      <point x="43.7212794696" y="321.457802295" type="line"/>
    </contour>
    <contour>
      <point x="489.224870143" y="100.338263375" type="line"/>
      <point x="489.224870143" y="260.242187024" type="line"/>
      <point x="43.7212794696" y="260.242187024" type="line"/>
      <point x="43.7212794696" y="100.338263375" type="line"/>
    </contour>
  </outline>
</glyph>
<glyph name="greater" format="1">
  <advance width="532.946149613"/>
  <unicode hex="003E"/>
  <outline>
    <contour>
      <point x="489.224870143" y="207.265524183" type="line"/>
      <point x="489.224870143" y="374.434465136" type="line"/>
      <point x="43.7212794696" y="529.897111103" type="line"/>
      <point x="43.7212794696" y="370.363397909" type="line"/>
      <point x="427.918635908" y="244.57783858" type="line"/>
      <point x="427.918635908" y="337.122150739" type="line"/>
      <point x="43.7212794696" y="211.336591409" type="line"/>
      <point x="43.7212794696" y="51.8028782154" type="line"/>
    </contour>
  </outline>
</glyph>
<glyph name="question" format="1">
  <advance width="519.97866195"/>
  <unicode hex="003F"/>
  <outline>
    <contour>
      <point x="369.48033949" y="232.580274715" type="line"/>
      <point x="369.48033949" y="285.3375564"/>
      <point x="495.979333712" y="310.9830466"/>
      <point x="495.979333712" y="434.917553654" type="curve" smooth="yes"/>
      <point x="495.979333712" y="542.001042358"/>
      <point x="394.195383961" y="596.60023438"/>
      <point x="259.835358681" y="596.60023438" type="curve" smooth="yes"/>
      <point x="118.302945957" y="596.60023438"/>
      <point x="30.3324838531" y="537.558516896"/>
      <point x="-11.6866434149" y="453.093185928" type="curve"/>
      <point x="157.987111459" y="369.878925907" type="line"/>
      <point x="171.540031602" y="402.929872991"/>
      <point x="201.30738744" y="424.289065624"/>
      <point x="230.242279602" y="424.289065624" type="curve" smooth="yes"/>
      <point x="248.905040427" y="424.289065624"/>
      <point x="268.948472556" y="416.793029666"/>
      <point x="268.948472556" y="397.819221817" type="curve" smooth="yes"/>
      <point x="268.948472556" y="360.208992163"/>
      <point x="169.083249505" y="325.60366028"/>
      <point x="169.083249505" y="232.580274715" type="curve"/>
    </contour>
    <contour>
      <point x="395.840006847" y="102.146101521" type="curve" smooth="yes"/>
      <point x="395.840006847" y="164.363485207"/>
      <point x="344.257696319" y="211.557220346"/>
      <point x="269.281794498" y="211.557220346" type="curve" smooth="yes"/>
      <point x="194.305892676" y="211.557220346"/>
      <point x="142.723582149" y="164.363485207"/>
      <point x="142.723582149" y="102.146101521" type="curve" smooth="yes"/>
      <point x="142.723582149" y="40.8831213055"/>
      <point x="194.305892676" y="-9.17382424279"/>
      <point x="269.281794498" y="-9.17382424279" type="curve" smooth="yes"/>
      <point x="344.257696319" y="-9.17382424279"/>
      <point x="395.840006847" y="40.8831213055"/>
    </contour>
  </outline>
</glyph>
<glyph name="at" format="1">
  <advance width="878.004164099"/>
  <unicode hex="0040"/>
  <outline>
    <contour>
      <point x="656.886839416" y="-135.979435864" type="curve"/>
      <point x="616.580016582" y="-20.8090718098" type="line"/>
      <point x="557.226349821" y="-46.6934748219"/>
      <point x="500.68140275" y="-57.3730711384"/>
      <point x="443.862351865" y="-57.3730711384" type="curve" smooth="yes"/>
      <point x="278.44059019" y="-57.3730711384"/>
      <point x="170.409775571" y="54.4009977783"/>
      <point x="170.409775571" y="210.119592654" type="curve" smooth="yes"/>
      <point x="170.409775571" y="359.741556257"/>
      <point x="281.119026129" y="475.826852993"/>
      <point x="447.246351804" y="475.826852993" type="curve" smooth="yes"/>
      <point x="614.640985418" y="475.826852993"/>
      <point x="722.390928068" y="374.518397833"/>
      <point x="722.390928068" y="233.362661974" type="curve" smooth="yes"/>
      <point x="722.390928068" y="145.720417025"/>
      <point x="706.865135987" y="129.733223071"/>
      <point x="688.794575796" y="129.733223071" type="curve" smooth="yes"/>
      <point x="672.850859838" y="129.733223071"/>
      <point x="660.434963882" y="139.302188022"/>
      <point x="660.434963882" y="171.98292465" type="curve" smooth="yes"/>
      <point x="660.434963882" y="393.359660259" type="line"/>
      <point x="473.847977467" y="393.359660259" type="line"/>
      <point x="473.847977467" y="363.943921125" type="line"/>
      <point x="481.321541345" y="201.743943986" type="line"/>
      <point x="482.725901191" y="165.525224859" type="line"/>
      <point x="482.725901191" y="157.946503984" type="line" smooth="yes"/>
      <point x="482.725901191" y="47.5888758472"/>
      <point x="544.607415675" y="-8.21942077299"/>
      <point x="645.391393147" y="-8.21942077299" type="curve" smooth="yes"/>
      <point x="760.420318453" y="-8.21942077299"/>
      <point x="857.683244079" y="74.7899986267"/>
      <point x="857.683244079" y="236.225872383" type="curve" smooth="yes"/>
      <point x="857.683244079" y="432.333974625"/>
      <point x="694.124375055" y="594.691427441"/>
      <point x="447.246351804" y="594.691427441" type="curve" smooth="yes"/>
      <point x="183.879789045" y="594.691427441"/>
      <point x="20.3209200208" y="423.160150382"/>
      <point x="20.3209200208" y="210.119592654" type="curve" smooth="yes"/>
      <point x="20.3209200208" y="-7.10878940751"/>
      <point x="184.441532983" y="-176.114242101"/>
      <point x="443.862351865" y="-176.114242101" type="curve" smooth="yes"/>
      <point x="523.228994059" y="-176.114242101"/>
      <point x="605.986404347" y="-159.708224966"/>
    </contour>
    <contour>
      <point x="529.660287918" y="197.095330122" type="curve" smooth="yes"/>
      <point x="529.660287918" y="320.420713908"/>
      <point x="490.29252397" y="401.579081032"/>
      <point x="384.957065676" y="401.579081032" type="curve" smooth="yes"/>
      <point x="296.391018861" y="401.579081032"/>
      <point x="213.054944248" y="325.192731257"/>
      <point x="213.054944248" y="197.095330122" type="curve" smooth="yes"/>
      <point x="213.054944248" y="68.9979289867"/>
      <point x="299.350326769" y="-8.21942077299"/>
      <point x="384.957065676" y="-8.21942077299" type="curve" smooth="yes"/>
      <point x="498.184011725" y="-8.21942077299"/>
      <point x="529.660287918" y="73.7699463356"/>
    </contour>
    <contour>
      <point x="397.669058723" y="197.095330122" type="curve" smooth="yes"/>
      <point x="397.669058723" y="236.712839947"/>
      <point x="415.33184727" y="254.08240249"/>
      <point x="437.238172049" y="254.08240249" type="curve" smooth="yes"/>
      <point x="460.130932798" y="254.08240249"/>
      <point x="477.793721344" y="236.712839947"/>
      <point x="477.793721344" y="197.095330122" type="curve" smooth="yes"/>
      <point x="477.793721344" y="156.523416827"/>
      <point x="460.130932798" y="139.277257769"/>
      <point x="437.238172049" y="139.277257769" type="curve" smooth="yes"/>
      <point x="415.33184727" y="139.277257769"/>
      <point x="397.669058723" y="156.523416827"/>
    </contour>
  </outline>
</glyph>
<glyph name="A" format="1">
  <advance width="698.447433879"/>
  <unicode hex="0041"/>
  <outline>
    <contour>
      <point x="104.472537922" y="582.654392789" type="move" name="topleft"/>
    </contour>
    <contour>
      <point x="349.22371694" y="581.699989319" type="move" name="top"/>
    </contour>
    <contour>
      <point x="718.453641157" y="0.0" type="move" name="ogonek"/>
    </contour>
    <contour>
      <point x="349.22371694" y="0.0" type="move" name="bottom"/>
    </contour>
    <contour>
      <point x="213.508397709" y="0.0" type="line"/>
      <point x="391.924719666" y="476.781256463" type="line"/>
      <point x="302.576970336" y="476.781256463" type="line"/>
      <point x="480.993292293" y="0.0" type="line"/>
      <point x="718.453641157" y="0.0" type="line"/>
      <point x="462.245929533" y="581.699989319" type="line"/>
      <point x="236.201504346" y="581.699989319" type="line"/>
      <point x="-20.0062072777" y="0.0" type="line"/>
    </contour>
    <contour>
      <point x="515.200454398" y="74.272702214" type="line"/>
      <point x="457.418656085" y="234.176625863" type="line"/>
      <point x="203.684646945" y="234.176625863" type="line"/>
      <point x="145.902848633" y="74.272702214" type="line"/>
    </contour>
  </outline>
</glyph>
<glyph name="B" format="1">
  <advance width="657.468887819"/>
  <unicode hex="0042"/>
  <outline>
    <contour>
      <point x="323.874174094" y="581.699989319" type="move" name="top"/>
    </contour>
    <contour>
      <point x="323.874174094" y="0.0" type="move" name="bottom"/>
    </contour>
    <contour>
      <point x="384.495148794" y="0.0" type="line"/>
      <point x="551.003173494" y="0.0"/>
      <point x="640.949891613" y="59.741419827"/>
      <point x="640.949891613" y="161.617031906" type="curve" smooth="yes"/>
      <point x="640.949891613" y="263.492643984"/>
      <point x="550.722301525" y="324.558677736"/>
      <point x="412.543432043" y="324.558677736" type="curve"/>
      <point x="395.202124394" y="274.625135673" type="line"/>
      <point x="537.734509398" y="274.625135673"/>
      <point x="613.73407204" y="342.158011154"/>
      <point x="613.73407204" y="428.886571201" type="curve" smooth="yes"/>
      <point x="613.73407204" y="515.615131248"/>
      <point x="537.734509398" y="581.699989319"/>
      <point x="367.575149099" y="581.699989319" type="curve" smooth="yes"/>
      <point x="37.5488643038" y="581.699989319" type="line"/>
      <point x="37.5488643038" y="0.0" type="line"/>
    </contour>
    <contour>
      <point x="263.59328949" y="219.763348365" type="line"/>
      <point x="364.20468547" y="219.763348365" type="line" smooth="yes"/>
      <point x="394.574394174" y="219.763348365"/>
      <point x="408.986850611" y="207.799856692"/>
      <point x="408.986850611" y="187.38592559" type="curve" smooth="yes"/>
      <point x="408.986850611" y="166.971994489"/>
      <point x="394.574394174" y="155.1319063"/>
      <point x="364.20468547" y="155.1319063" type="curve" smooth="yes"/>
      <point x="263.59328949" y="155.1319063" type="line"/>
    </contour>
    <contour>
      <point x="263.59328949" y="426.568083019" type="line"/>
      <point x="335.447454143" y="426.568083019" type="line" smooth="yes"/>
      <point x="369.05057457" y="426.568083019"/>
      <point x="381.771031038" y="416.052608755"/>
      <point x="381.771031038" y="396.436853228" type="curve" smooth="yes"/>
      <point x="381.771031038" y="376.8210977"/>
      <point x="369.05057457" y="366.305623437"/>
      <point x="335.447454143" y="366.305623437" type="curve" smooth="yes"/>
      <point x="263.59328949" y="366.305623437" type="line"/>
    </contour>
  </outline>
</glyph>
<glyph name="C" format="1">
  <advance width="634.058376138"/>
  <unicode hex="0043"/>
  <outline>
    <contour>
      <point x="355.032353467" y="582.654392789" type="move" name="top"/>
    </contour>
    <contour>
      <point x="329.385018266" y="0.0" type="move" name="bottom"/>
    </contour>
    <contour>
      <point x="630.931559626" y="107.609927055" type="curve"/>
      <point x="485.637832015" y="232.817939747" type="line"/>
      <point x="454.181860286" y="190.716571906"/>
      <point x="416.660068601" y="165.046151453"/>
      <point x="366.451661223" y="165.046151453" type="curve" smooth="yes"/>
      <point x="296.885081251" y="165.046151453"/>
      <point x="252.283961023" y="212.052082067"/>
      <point x="252.283961023" y="290.849994659" type="curve" smooth="yes"/>
      <point x="252.283961023" y="369.647907252"/>
      <point x="296.885081251" y="416.653837866"/>
      <point x="366.451661223" y="416.653837866" type="curve" smooth="yes"/>
      <point x="416.660068601" y="416.653837866"/>
      <point x="454.181860286" y="390.860013928"/>
      <point x="485.637832015" y="348.758646087" type="curve"/>
      <point x="630.931559626" y="473.966658779" type="line"/>
      <point x="571.293636818" y="552.458761957"/>
      <point x="476.836046806" y="596.60023438"/>
      <point x="354.614429591" y="596.60023438" type="curve" smooth="yes"/>
      <point x="161.455713333" y="596.60023438"/>
      <point x="20.3209200208" y="471.119236684"/>
      <point x="20.3209200208" y="290.849994659" type="curve" smooth="yes"/>
      <point x="20.3209200208" y="110.580752634"/>
      <point x="161.455713333" y="-14.9002450616"/>
      <point x="354.614429591" y="-14.9002450616" type="curve" smooth="yes"/>
      <point x="476.836046806" y="-14.9002450616"/>
      <point x="571.293636818" y="29.1178238766"/>
    </contour>
  </outline>
</glyph>
<glyph name="D" format="1">
  <advance width="698.795987396"/>
  <unicode hex="0044"/>
  <outline>
    <contour>
      <point x="299.220043016" y="581.823392804" type="move" name="top"/>
    </contour>
    <contour>
      <point x="175.118612764" y="294.881591098" type="move" name="center"/>
    </contour>
    <contour>
      <point x="300.490735032" y="0.0" type="move" name="bottom"/>
    </contour>
    <contour>
      <point x="340.653737804" y="0.0" type="line"/>
      <point x="540.443402033" y="0.0"/>
      <point x="678.475067375" y="108.671945695"/>
      <point x="678.475067375" y="290.849994659" type="curve" smooth="yes"/>
      <point x="678.475067375" y="473.028043624"/>
      <point x="540.443402033" y="581.699989319"/>
      <point x="340.653737804" y="581.699989319" type="curve" smooth="yes"/>
      <point x="37.5488643038" y="581.699989319" type="line"/>
      <point x="37.5488643038" y="0.0" type="line"/>
    </contour>
    <contour>
      <point x="267.539033367" y="408.434417093" type="line"/>
      <point x="331.07025008" y="408.434417093" type="line" smooth="yes"/>
      <point x="398.674110346" y="408.434417093"/>
      <point x="446.512026373" y="369.401100282"/>
      <point x="446.512026373" y="290.849994659" type="curve" smooth="yes"/>
      <point x="446.512026373" y="212.298889037"/>
      <point x="398.674110346" y="173.265572226"/>
      <point x="331.07025008" y="173.265572226" type="curve" smooth="yes"/>
      <point x="267.539033367" y="173.265572226" type="line"/>
    </contour>
  </outline>
</glyph>
<glyph name="E" format="1">
  <advance width="567.100861746"/>
  <unicode hex="0045"/>
  <outline>
    <contour>
      <point x="-14.6357990906" y="581.699989319" type="move" name="topleft"/>
    </contour>
    <contour>
      <point x="286.944583044" y="581.699989319" type="move" name="top"/>
    </contour>
    <contour>
      <point x="546.211429632" y="0.0" type="move" name="ogonek"/>
    </contour>
    <contour>
      <point x="284.557171307" y="0.0" type="move" name="bottom"/>
    </contour>
    <contour>
      <point x="546.211429632" y="0.0" type="line"/>
      <point x="546.211429632" y="167.539151408" type="line"/>
      <point x="263.59328949" y="167.539151408" type="line"/>
      <point x="263.59328949" y="214.991331016" type="line"/>
      <point x="501.370046363" y="214.991331016" type="line"/>
      <point x="501.370046363" y="374.895254665" type="line"/>
      <point x="263.59328949" y="374.895254665" type="line"/>
      <point x="263.59328949" y="414.160837911" type="line"/>
      <point x="535.494301799" y="414.160837911" type="line"/>
      <point x="535.494301799" y="581.699989319" type="line"/>
      <point x="37.5488643038" y="581.699989319" type="line"/>
      <point x="37.5488643038" y="0.0" type="line"/>
    </contour>
  </outline>
</glyph>
<glyph name="F" format="1">
  <advance width="544.536350049"/>
  <unicode hex="0046"/>
  <outline>
    <contour>
      <point x="267.539033367" y="0.0" type="line"/>
      <point x="267.539033367" y="173.556841107" type="line"/>
      <point x="501.370046363" y="173.556841107" type="line"/>
      <point x="501.370046363" y="341.095992514" type="line"/>
      <point x="267.539033367" y="341.095992514" type="line"/>
      <point x="267.539033367" y="414.160837911" type="line"/>
      <point x="535.494301799" y="414.160837911" type="line"/>
      <point x="535.494301799" y="581.699989319" type="line"/>
      <point x="37.5488643038" y="581.699989319" type="line"/>
      <point x="37.5488643038" y="0.0" type="line"/>
    </contour>
  </outline>
</glyph>
<glyph name="G" format="1">
  <advance width="649.871808343"/>
  <unicode hex="0047"/>
  <outline>
    <contour>
      <point x="361.793585191" y="582.777796274" type="move" name="top"/>
    </contour>
    <contour>
      <point x="347.98348162" y="0.0" type="move" name="bottom"/>
    </contour>
    <contour>
      <point x="622.197455965" y="58.9353500954" type="curve"/>
      <point x="493.673139832" y="211.697659926" type="line"/>
      <point x="446.01288464" y="177.354923329"/>
      <point x="408.912400909" y="165.046151453"/>
      <point x="368.989661177" y="165.046151453" type="curve" smooth="yes"/>
      <point x="296.885081251" y="165.046151453"/>
      <point x="252.283961023" y="213.960889006"/>
      <point x="252.283961023" y="290.849994659" type="curve" smooth="yes"/>
      <point x="252.283961023" y="370.602310722"/>
      <point x="296.885081251" y="416.653837866"/>
      <point x="371.948969085" y="416.653837866" type="curve" smooth="yes"/>
      <point x="420.74963254" y="416.653837866"/>
      <point x="460.244296164" y="394.677627807"/>
      <point x="494.659575801" y="353.530663436" type="curve"/>
      <point x="641.926175351" y="478.738676128" type="line"/>
      <point x="580.315380604" y="554.367568897"/>
      <point x="482.898482684" y="596.60023438"/>
      <point x="360.111737453" y="596.60023438" type="curve" smooth="yes"/>
      <point x="161.455713333" y="596.60023438"/>
      <point x="20.3209200208" y="471.119236684"/>
      <point x="20.3209200208" y="290.849994659" type="curve" smooth="yes"/>
      <point x="20.3209200208" y="110.580752634"/>
      <point x="161.455713333" y="-14.9002450616"/>
      <point x="355.179557607" y="-14.9002450616" type="curve" smooth="yes"/>
      <point x="443.441043912" y="-14.9002450616"/>
      <point x="546.776557648" y="10.9841579505"/>
    </contour>
    <contour>
      <point x="622.197455965" y="58.9353500954" type="line"/>
      <point x="622.197455965" y="309.847484981" type="line"/>
      <point x="422.646365965" y="309.847484981" type="line"/>
      <point x="422.646365965" y="87.5674541892" type="line"/>
    </contour>
  </outline>
</glyph>
<glyph name="H" format="1">
  <advance width="678.498755917"/>
  <unicode hex="0048"/>
  <outline>
    <contour>
      <point x="339.249377959" y="581.699989319" type="move" name="top"/>
    </contour>
    <contour>
      <point x="339.249377959" y="483.345323643" type="move" name="center"/>
    </contour>
    <contour>
      <point x="339.249377959" y="0.0" type="move" name="bottom"/>
    </contour>
    <contour>
      <point x="267.539033367" y="0.0" type="line"/>
      <point x="267.539033367" y="203.538489378" type="line"/>
      <point x="410.95972255" y="203.538489378" type="line"/>
      <point x="410.95972255" y="0.0" type="line"/>
      <point x="640.949891613" y="0.0" type="line"/>
      <point x="640.949891613" y="581.699989319" type="line"/>
      <point x="410.95972255" y="581.699989319" type="line"/>
      <point x="410.95972255" y="386.348096303" type="line"/>
      <point x="267.539033367" y="386.348096303" type="line"/>
      <point x="267.539033367" y="581.699989319" type="line"/>
      <point x="37.5488643038" y="581.699989319" type="line"/>
      <point x="37.5488643038" y="0.0" type="line"/>
    </contour>
  </outline>
</glyph>
<glyph name="I" format="1">
  <advance width="305.087897671"/>
  <unicode hex="0049"/>
  <outline>
    <contour>
      <point x="-14.6357990906" y="581.823392804" type="move" name="topleft"/>
    </contour>
    <contour>
      <point x="152.543948836" y="581.699989319" type="move" name="top"/>
    </contour>
    <contour>
      <point x="267.539033367" y="0.0" type="move" name="ogonek"/>
    </contour>
    <contour>
      <point x="152.543948836" y="0.0" type="move" name="bottom"/>
    </contour>
    <contour>
      <point x="267.539033367" y="0.0" type="line"/>
      <point x="267.539033367" y="581.699989319" type="line"/>
      <point x="37.5488643038" y="581.699989319" type="line"/>
      <point x="37.5488643038" y="0.0" type="line"/>
    </contour>
  </outline>
</glyph>
<glyph name="J" format="1">
  <advance width="499.226281744"/>
  <unicode hex="004A"/>
  <outline>
    <contour>
      <point x="254.742438386" y="581.699989319" type="move" name="top"/>
    </contour>
    <contour>
      <point x="466.753417348" y="233.748660744" type="curve" smooth="yes"/>
      <point x="466.753417348" y="581.699989319" type="line"/>
      <point x="41.7450234536" y="581.699989319" type="line"/>
      <point x="41.7450234536" y="414.160837911" type="line"/>
      <point x="239.722556193" y="414.160837911" type="line"/>
      <point x="239.722556193" y="220.140205197" type="line" smooth="yes"/>
      <point x="239.722556193" y="180.794432595"/>
      <point x="219.970148265" y="159.319730635"/>
      <point x="185.959256194" y="159.319730635" type="curve" smooth="yes"/>
      <point x="156.757028372" y="159.319730635"/>
      <point x="130.236620567" y="177.198695433"/>
      <point x="99.0750571158" y="213.820449425" type="curve"/>
      <point x="-24.2362072014" y="72.1407707768" type="line"/>
      <point x="27.7809475893" y="14.8923509041"/>
      <point x="108.277845815" y="-14.9002450616"/>
      <point x="205.828411565" y="-14.9002450616" type="curve" smooth="yes"/>
      <point x="375.268671553" y="-14.9002450616"/>
      <point x="466.753417348" y="66.6690510856"/>
    </contour>
  </outline>
</glyph>
<glyph name="K" format="1">
  <advance width="657.301379215"/>
  <unicode hex="004B"/>
  <outline>
    <contour>
      <point x="326.830097924" y="581.699989319" type="move" name="top"/>
    </contour>
    <contour>
      <point x="326.830097924" y="0.0" type="move" name="bottom"/>
    </contour>
    <contour>
      <point x="298.20315035" y="183.891157221" type="line"/>
      <point x="425.741030514" y="310.423783838" type="line"/>
      <point x="673.629178275" y="581.699989319" type="line"/>
      <point x="423.906905748" y="581.699989319" type="line"/>
      <point x="230.616210472" y="364.55969077" type="line"/>
      <point x="243.439878073" y="120.701086189" type="line"/>
    </contour>
    <contour>
      <point x="263.59328949" y="0.0" type="line"/>
      <point x="263.59328949" y="581.699989319" type="line"/>
      <point x="37.5488643038" y="581.699989319" type="line"/>
      <point x="37.5488643038" y="0.0" type="line"/>
    </contour>
    <contour>
      <point x="684.209254201" y="0.0" type="line"/>
      <point x="411.081542882" y="366.08374672" type="line"/>
      <point x="262.263379347" y="213.074629919" type="line"/>
      <point x="418.704006165" y="0.0" type="line"/>
    </contour>
  </outline>
</glyph>
<glyph name="L" format="1">
  <advance width="527.178122014"/>
  <unicode hex="004C"/>
  <outline>
    <contour>
      <point x="152.543948836" y="581.699989319" type="move" name="top"/>
    </contour>
    <contour>
      <point x="289.482582998" y="0.0" type="move" name="bottom"/>
    </contour>
    <contour>
      <point x="354.627965901" y="581.699989319" type="move" name="topright"/>
    </contour>
    <contour>
      <point x="416.626227827" y="376.46667556" type="move" name="dot"/>
    </contour>
    <contour>
      <point x="152.543948836" y="337.336133299" type="move" name="center"/>
    </contour>
    <contour>
      <point x="520.690994105" y="0.0" type="line"/>
      <point x="520.690994105" y="172.311168757" type="line"/>
      <point x="267.539033367" y="172.311168757" type="line"/>
      <point x="267.539033367" y="581.699989319" type="line"/>
      <point x="37.5488643038" y="581.699989319" type="line"/>
      <point x="37.5488643038" y="0.0" type="line"/>
    </contour>
  </outline>
</glyph>
<glyph name="M" format="1">
  <advance width="806.803113474"/>
  <unicode hex="004D"/>
  <outline>
    <contour>
      <point x="402.415120768" y="581.699989319" type="move" name="top"/>
    </contour>
    <contour>
      <point x="402.415120768" y="0.0" type="move" name="bottom"/>
    </contour>
    <contour>
      <point x="246.823878012" y="0.0" type="line"/>
      <point x="246.823878012" y="276.051966172" type="line"/>
      <point x="206.657491162" y="276.051966172" type="line"/>
      <point x="351.963066271" y="47.9104735768" type="line"/>
      <point x="452.867175264" y="47.9104735768" type="line"/>
      <point x="590.421698603" y="276.051966172" type="line"/>
      <point x="558.006363523" y="276.051966172" type="line"/>
      <point x="559.979235462" y="0.0" type="line"/>
      <point x="769.25424917" y="0.0" type="line"/>
      <point x="767.281377232" y="581.699989319" type="line"/>
      <point x="578.300210925" y="581.699989319" type="line"/>
      <point x="356.614374149" y="217.358431924" type="line"/>
      <point x="455.966919156" y="217.358431924" type="line"/>
      <point x="226.53003061" y="581.699989319" type="line"/>
      <point x="37.5488643038" y="581.699989319" type="line"/>
      <point x="37.5488643038" y="0.0" type="line"/>
    </contour>
  </outline>
</glyph>
<glyph name="N" format="1">
  <advance width="678.498755917"/>
  <unicode hex="004E"/>
  <outline>
    <contour>
      <point x="339.249377959" y="581.699989319" type="move" name="top"/>
    </contour>
    <contour>
      <point x="339.249377959" y="0.0" type="move" name="bottom"/>
    </contour>
    <contour>
      <point x="261.620417552" y="0.0" type="line"/>
      <point x="261.620417552" y="323.031718751" type="line"/>
      <point x="174.385976145" y="323.031718751" type="line"/>
      <point x="451.968725307" y="0.0" type="line"/>
      <point x="640.949891613" y="0.0" type="line"/>
      <point x="640.949891613" y="581.699989319" type="line"/>
      <point x="416.878338366" y="581.699989319" type="line"/>
      <point x="416.878338366" y="258.668270568" type="line"/>
      <point x="504.112779773" y="258.668270568" type="line"/>
      <point x="226.53003061" y="581.699989319" type="line"/>
      <point x="37.5488643038" y="581.699989319" type="line"/>
      <point x="37.5488643038" y="0.0" type="line"/>
    </contour>
  </outline>
</glyph>
<glyph name="O" format="1">
  <advance width="719.093218875"/>
  <unicode hex="004F"/>
  <outline>
    <contour>
      <point x="25.2530998672" y="581.699989319" type="move" name="topleft"/>
    </contour>
    <contour>
      <point x="359.546609438" y="290.849994659" type="move" name="center"/>
    </contour>
    <contour>
      <point x="359.546609438" y="0.0" type="move" name="bottom"/>
    </contour>
    <contour>
      <point x="359.546609438" y="581.699989319" type="move" name="top"/>
    </contour>
    <contour>
      <point x="488.326420186" y="581.699989319" type="move" name="topright"/>
    </contour>
    <contour>
      <point x="473.715998449" y="0.0" type="move" name="ogonek"/>
    </contour>
    <contour>
      <point x="698.772298854" y="290.849994659" type="curve" smooth="yes"/>
      <point x="698.772298854" y="468.256026275"/>
      <point x="555.664633603" y="596.60023438"/>
      <point x="359.546609438" y="596.60023438" type="curve" smooth="yes"/>
      <point x="163.428585272" y="596.60023438"/>
      <point x="20.3209200208" y="468.256026275"/>
      <point x="20.3209200208" y="290.849994659" type="curve" smooth="yes"/>
      <point x="20.3209200208" y="113.443963044"/>
      <point x="163.428585272" y="-14.9002450616"/>
      <point x="359.546609438" y="-14.9002450616" type="curve" smooth="yes"/>
      <point x="555.664633603" y="-14.9002450616"/>
      <point x="698.772298854" y="113.443963044"/>
    </contour>
    <contour>
      <point x="252.283961023" y="290.849994659" type="curve" smooth="yes"/>
      <point x="252.283961023" y="371.309907222"/>
      <point x="300.830825128" y="416.653837866"/>
      <point x="359.546609438" y="416.653837866" type="curve" smooth="yes"/>
      <point x="418.262393747" y="416.653837866"/>
      <point x="466.809257852" y="371.309907222"/>
      <point x="466.809257852" y="290.849994659" type="curve" smooth="yes"/>
      <point x="466.809257852" y="210.390082097"/>
      <point x="418.262393747" y="165.046151453"/>
      <point x="359.546609438" y="165.046151453" type="curve" smooth="yes"/>
      <point x="300.830825128" y="165.046151453"/>
      <point x="252.283961023" y="210.390082097"/>
    </contour>
  </outline>
</glyph>
<glyph name="P" format="1">
  <advance width="633.212376153"/>
  <unicode hex="0050"/>
  <outline>
    <contour>
      <point x="267.539033367" y="0.0" type="line"/>
      <point x="267.539033367" y="229.824679476" type="line"/>
      <point x="165.227180452" y="134.540560392" type="line"/>
      <point x="336.694457617" y="134.540560392" type="line" smooth="yes"/>
      <point x="504.894482287" y="134.540560392"/>
      <point x="612.74763607" y="221.400418081"/>
      <point x="612.74763607" y="358.120274855" type="curve" smooth="yes"/>
      <point x="612.74763607" y="494.840131629"/>
      <point x="504.894482287" y="581.699989319"/>
      <point x="336.694457617" y="581.699989319" type="curve" smooth="yes"/>
      <point x="37.5488643038" y="581.699989319" type="line"/>
      <point x="37.5488643038" y="0.0" type="line"/>
    </contour>
    <contour>
      <point x="267.539033367" y="511.47716742" type="line"/>
      <point x="165.227180452" y="410.343224032" type="line"/>
      <point x="321.617046109" y="410.343224032" type="line" smooth="yes"/>
      <point x="362.703882646" y="410.343224032"/>
      <point x="380.784595068" y="390.258784818"/>
      <point x="380.784595068" y="358.120274855" type="curve" smooth="yes"/>
      <point x="380.784595068" y="325.981764893"/>
      <point x="362.703882646" y="305.897325679"/>
      <point x="321.617046109" y="305.897325679" type="curve" smooth="yes"/>
      <point x="165.227180452" y="305.897325679" type="line"/>
      <point x="267.539033367" y="204.763382291" type="line"/>
    </contour>
  </outline>
</glyph>
<glyph name="Q" format="1">
  <advance width="719.093218875"/>
  <unicode hex="0051"/>
  <outline>
    <contour>
      <point x="360.533045407" y="581.699989319" type="move" name="top"/>
    </contour>
    <contour>
      <point x="698.772298854" y="290.849994659" type="curve" smooth="yes"/>
      <point x="698.772298854" y="468.256026275"/>
      <point x="555.664633603" y="596.60023438"/>
      <point x="359.546609438" y="596.60023438" type="curve" smooth="yes"/>
      <point x="163.428585272" y="596.60023438"/>
      <point x="20.3209200208" y="468.256026275"/>
      <point x="20.3209200208" y="290.849994659" type="curve" smooth="yes"/>
      <point x="20.3209200208" y="113.443963044"/>
      <point x="163.428585272" y="-14.9002450616"/>
      <point x="359.546609438" y="-14.9002450616" type="curve" smooth="yes"/>
      <point x="555.664633603" y="-14.9002450616"/>
      <point x="698.772298854" y="113.443963044"/>
    </contour>
    <contour>
      <point x="732.043786151" y="-78.0641380594" type="curve"/>
      <point x="633.393421066" y="34.7366295253" type="line"/>
      <point x="610.404217339" y="12.9822961838"/>
      <point x="583.465885657" y="0.550120823334"/>
      <point x="558.072349805" y="0.550120823334" type="curve" smooth="yes"/>
      <point x="525.489506122" y="0.550120823334"/>
      <point x="512.070253809" y="13.9944543174"/>
      <point x="475.257410202" y="75.3650497032" type="curve"/>
      <point x="238.218369291" y="18.7178589407" type="line"/>
      <point x="364.52278229" y="-116.446365253"/>
      <point x="432.901576915" y="-153.627382007"/>
      <point x="553.140169959" y="-153.627382007" type="curve" smooth="yes"/>
      <point x="627.153324353" y="-153.627382007"/>
      <point x="689.466299022" y="-127.249365055"/>
    </contour>
    <contour>
      <point x="252.283961023" y="290.849994659" type="curve" smooth="yes"/>
      <point x="252.283961023" y="371.556714192"/>
      <point x="300.830825128" y="416.653837866"/>
      <point x="359.546609438" y="416.653837866" type="curve" smooth="yes"/>
      <point x="418.262393747" y="416.653837866"/>
      <point x="466.809257852" y="371.556714192"/>
      <point x="466.809257852" y="290.849994659" type="curve" smooth="yes"/>
      <point x="466.809257852" y="210.143275127"/>
      <point x="418.262393747" y="165.046151453"/>
      <point x="359.546609438" y="165.046151453" type="curve" smooth="yes"/>
      <point x="300.830825128" y="165.046151453"/>
      <point x="252.283961023" y="210.143275127"/>
    </contour>
  </outline>
</glyph>
<glyph name="R" format="1">
  <advance width="634.342632184"/>
  <unicode hex="0052"/>
  <outline>
    <contour>
      <point x="322.459662016" y="581.699989319" type="move" name="top"/>
    </contour>
    <contour>
      <point x="322.459662016" y="0.0" type="move" name="bottom"/>
    </contour>
    <contour>
      <point x="267.539033367" y="0.0" type="line"/>
      <point x="267.539033367" y="229.824679476" type="line"/>
      <point x="165.227180452" y="138.358174271" type="line"/>
      <point x="336.694457617" y="138.358174271" type="line" smooth="yes"/>
      <point x="504.894482287" y="138.358174271"/>
      <point x="612.74763607" y="221.400418081"/>
      <point x="612.74763607" y="358.120274855" type="curve" smooth="yes"/>
      <point x="612.74763607" y="494.840131629"/>
      <point x="504.894482287" y="581.699989319"/>
      <point x="336.694457617" y="581.699989319" type="curve" smooth="yes"/>
      <point x="37.5488643038" y="581.699989319" type="line"/>
      <point x="37.5488643038" y="0.0" type="line"/>
    </contour>
    <contour>
      <point x="626.139815764" y="0.0" type="line"/>
      <point x="480.19974228" y="212.028399594" type="line"/>
      <point x="237.10164957" y="212.028399594" type="line"/>
      <point x="381.068851115" y="0.0" type="line"/>
    </contour>
    <contour>
      <point x="267.539033367" y="511.47716742" type="line"/>
      <point x="165.227180452" y="410.343224032" type="line"/>
      <point x="321.617046109" y="410.343224032" type="line" smooth="yes"/>
      <point x="362.703882646" y="410.343224032"/>
      <point x="380.784595068" y="390.258784818"/>
      <point x="380.784595068" y="358.120274855" type="curve" smooth="yes"/>
      <point x="380.784595068" y="325.981764893"/>
      <point x="362.703882646" y="305.897325679"/>
      <point x="321.617046109" y="305.897325679" type="curve" smooth="yes"/>
      <point x="165.227180452" y="305.897325679" type="line"/>
      <point x="267.539033367" y="204.763382291" type="line"/>
    </contour>
  </outline>
</glyph>
<glyph name="T" format="1">
  <advance width="568.170204384"/>
  <unicode hex="0054"/>
  <outline>
    <contour>
      <point x="284.085102192" y="581.699989319" type="move" name="top"/>
    </contour>
    <contour>
      <point x="284.085102192" y="256.705452306" type="move" name="center"/>
    </contour>
    <contour>
      <point x="284.085102192" y="0.0" type="move" name="bottom"/>
    </contour>
    <contour>
      <point x="399.080186724" y="0.0" type="line"/>
      <point x="399.080186724" y="409.388820562" type="line"/>
      <point x="564.786204445" y="409.388820562" type="line"/>
      <point x="564.786204445" y="581.699989319" type="line"/>
      <point x="3.38399993896" y="581.699989319" type="line"/>
      <point x="3.38399993896" y="409.388820562" type="line"/>
      <point x="169.09001766" y="409.388820562" type="line"/>
      <point x="169.09001766" y="0.0" type="line"/>
    </contour>
  </outline>
</glyph>
<glyph name="U" format="1">
  <advance width="661.859628192"/>
  <unicode hex="0055"/>
  <outline>
    <contour>
      <point x="332.902686034" y="581.699989319" type="move" name="top"/>
    </contour>
    <contour>
      <point x="529.716121968" y="0.0" type="move" name="ogonek"/>
    </contour>
    <contour>
      <point x="536.946038729" y="581.699989319" type="move" name="topright"/>
    </contour>
    <contour>
      <point x="332.902686034" y="0.0" type="move" name="bottom"/>
    </contour>
    <contour>
      <point x="629.386763796" y="264.479871865" type="curve" smooth="yes"/>
      <point x="629.386763796" y="581.699989319" type="line"/>
      <point x="403.34233861" y="581.699989319" type="line"/>
      <point x="403.34233861" y="271.037292668" type="line" smooth="yes"/>
      <point x="403.34233861" y="191.992573105"/>
      <point x="375.678138463" y="165.046151453"/>
      <point x="332.902686034" y="165.046151453" type="curve" smooth="yes"/>
      <point x="290.127233605" y="165.046151453"/>
      <point x="262.463033459" y="191.992573105"/>
      <point x="262.463033459" y="271.037292668" type="curve" smooth="yes"/>
      <point x="262.463033459" y="581.699989319" type="line"/>
      <point x="32.4728643954" y="581.699989319" type="line"/>
      <point x="32.4728643954" y="264.479871865" type="line" smooth="yes"/>
      <point x="32.4728643954" y="88.4890332484"/>
      <point x="142.298890118" y="-14.9002450616"/>
      <point x="330.929814096" y="-14.9002450616" type="curve" smooth="yes"/>
      <point x="519.560738074" y="-14.9002450616"/>
      <point x="629.386763796" y="88.4890332484"/>
    </contour>
  </outline>
</glyph>
<glyph name="V" format="1">
  <advance width="681.246562215"/>
  <unicode hex="0056"/>
  <outline>
    <contour>
      <point x="453.645493701" y="0.0" type="line"/>
      <point x="701.393205478" y="581.699989319" type="line"/>
      <point x="475.770088245" y="581.699989319" type="line"/>
      <point x="274.247815118" y="102.055522447" type="line"/>
      <point x="421.795286637" y="102.055522447" type="line"/>
      <point x="227.178065295" y="581.699989319" type="line"/>
      <point x="-20.1466432623" y="581.699989319" type="line"/>
      <point x="227.601068515" y="0.0" type="line"/>
    </contour>
  </outline>
</glyph>
<glyph name="W" format="1">
  <advance width="1076.31840286"/>
  <unicode hex="0057"/>
  <outline>
    <contour>
      <point x="538.159201429" y="581.699989319" type="move" name="top"/>
    </contour>
    <contour>
      <point x="538.159201429" y="0.0" type="move" name="bottom"/>
    </contour>
    <contour>
      <point x="448.275085514" y="0.0" type="line"/>
      <point x="575.362896293" y="378.263716514" type="line"/>
      <point x="508.846994319" y="378.263716514" type="line"/>
      <point x="628.043317344" y="0.0" type="line"/>
      <point x="874.802897885" y="0.0" type="line"/>
      <point x="1070.51991856" y="581.699989319" type="line"/>
      <point x="849.548109206" y="581.699989319" type="line"/>
      <point x="687.513731548" y="102.055522447" type="line"/>
      <point x="807.440995926" y="102.055522447" type="line"/>
      <point x="656.113593868" y="581.699989319" type="line"/>
      <point x="438.947092406" y="581.699989319" type="line"/>
      <point x="274.796022747" y="102.055522447" type="line"/>
      <point x="399.515030987" y="102.055522447" type="line"/>
      <point x="245.372141083" y="581.699989319" type="line"/>
      <point x="5.79848429559" y="581.699989319" type="line"/>
      <point x="201.515504972" y="0.0" type="line"/>
    </contour>
  </outline>
</glyph>
<glyph name="X" format="1">
  <advance width="664.453462195"/>
  <unicode hex="0058"/>
  <outline>
    <contour>
      <point x="250.578424744" y="0.0" type="line"/>
      <point x="383.17031154" y="217.237524" type="line"/>
      <point x="276.491406794" y="216.28312053" type="line"/>
      <point x="413.029037467" y="0.0" type="line"/>
      <point x="675.855849564" y="0.0" type="line"/>
      <point x="401.915979034" y="378.589465059" type="line"/>
      <point x="401.915979034" y="223.054523893" type="line"/>
      <point x="663.868029716" y="581.699989319" type="line"/>
      <point x="416.683757143" y="581.699989319" type="line"/>
      <point x="281.283150656" y="372.953623315" type="line"/>
      <point x="391.907799279" y="373.908026785" type="line"/>
      <point x="252.561448915" y="581.699989319" type="line"/>
      <point x="-5.33318333582" y="581.699989319" type="line"/>
      <point x="256.197559392" y="214.958506605" type="line"/>
      <point x="257.183995361" y="370.460623361" type="line"/>
      <point x="-11.4023873683" y="0.0" type="line"/>
    </contour>
  </outline>
</glyph>
<glyph name="Y" format="1">
  <advance width="665.463586707"/>
  <unicode hex="0059"/>
  <outline>
    <contour>
      <point x="332.731793353" y="581.699989319" type="move" name="top"/>
    </contour>
    <contour>
      <point x="332.731793353" y="0.0" type="move" name="bottom"/>
    </contour>
    <contour>
      <point x="447.726877885" y="0.0" type="line"/>
      <point x="447.726877885" y="221.218012152" type="line"/>
      <point x="397.134387404" y="88.4981751865" type="line"/>
      <point x="693.501717723" y="581.699989319" type="line"/>
      <point x="468.86503646" y="581.699989319" type="line"/>
      <point x="268.188763318" y="248.862888365" type="line"/>
      <point x="416.017106805" y="248.862888365" type="line"/>
      <point x="217.313705602" y="581.699989319" type="line"/>
      <point x="-28.0381310167" y="581.699989319" type="line"/>
      <point x="270.302071241" y="88.4981751865" type="line"/>
      <point x="217.736708822" y="221.218012152" type="line"/>
      <point x="217.736708822" y="0.0" type="line"/>
    </contour>
  </outline>
</glyph>
<glyph name="Z" format="1">
  <advance width="587.942916776"/>
  <unicode hex="005A"/>
  <outline>
    <contour>
      <point x="303.556638151" y="581.699989319" type="move" name="top"/>
    </contour>
    <contour>
      <point x="302.152278305" y="0.0" type="move" name="bottom"/>
    </contour>
    <contour>
      <point x="581.582688542" y="0.0" type="line"/>
      <point x="581.582688542" y="172.311168757" type="line"/>
      <point x="226.633241744" y="172.311168757" type="line"/>
      <point x="255.099448869" y="94.9139086287" type="line"/>
      <point x="567.204072879" y="445.162538474" type="line"/>
      <point x="567.204072879" y="581.699989319" type="line"/>
      <point x="33.7063315599" y="581.699989319" type="line"/>
      <point x="33.7063315599" y="409.388820562" type="line"/>
      <point x="365.114982925" y="409.388820562" type="line"/>
      <point x="336.6487758" y="486.78608069" type="line"/>
      <point x="24.5441517897" y="136.537450844" type="line"/>
      <point x="24.5441517897" y="0.0" type="line"/>
    </contour>
  </outline>
</glyph>
<glyph name="bracketleft" format="1">
  <advance width="363.99318386"/>
  <unicode hex="005B"/>
  <outline>
    <contour>
      <point x="357.639723781" y="-161.21399704" type="line"/>
      <point x="357.639723781" y="-1.31007339063" type="line"/>
      <point x="257.674673674" y="-1.31007339063" type="line"/>
      <point x="257.674673674" y="456.698065029" type="line"/>
      <point x="357.639723781" y="456.698065029" type="line"/>
      <point x="357.639723781" y="616.601988678" type="line"/>
      <point x="37.5488643038" y="616.601988678" type="line"/>
      <point x="37.5488643038" y="-161.21399704" type="line"/>
    </contour>
  </outline>
</glyph>
<glyph name="backslash" format="1">
  <advance width="391.901031124"/>
  <unicode hex="005C"/>
  <outline>
    <contour>
      <point x="149.36975524" y="699.701987152" type="line"/>
      <point x="-45.1087189282" y="699.701987152" type="line"/>
      <point x="234.071276036" y="-83.0999984741" type="line"/>
      <point x="428.549750205" y="-83.0999984741" type="line"/>
    </contour>
  </outline>
</glyph>
<glyph name="bracketright" format="1">
  <advance width="363.99318386"/>
  <unicode hex="005D"/>
  <outline>
    <contour>
      <point x="326.444319556" y="616.601988678" type="line"/>
      <point x="6.35346007904" y="616.601988678" type="line"/>
      <point x="6.35346007904" y="456.698065029" type="line"/>
      <point x="106.318510186" y="456.698065029" type="line"/>
      <point x="106.318510186" y="-1.31007339063" type="line"/>
      <point x="6.35346007904" y="-1.31007339063" type="line"/>
      <point x="6.35346007904" y="-161.21399704" type="line"/>
      <point x="326.444319556" y="-161.21399704" type="line"/>
    </contour>
  </outline>
</glyph>
<glyph name="asciicircum" format="1">
  <advance width="532.665277644"/>
  <unicode hex="005E"/>
  <outline>
    <contour>
      <point x="186.213055544" y="114.768576969" type="line"/>
      <point x="314.106257379" y="417.952273757" type="line"/>
      <point x="218.559020265" y="417.952273757" type="line"/>
      <point x="346.4522221" y="114.768576969" type="line"/>
      <point x="511.05674522" y="114.768576969" type="line"/>
      <point x="352.580644259" y="466.93141235" type="line"/>
      <point x="180.084633384" y="466.93141235" type="line"/>
      <point x="21.6085324235" y="114.768576969" type="line"/>
    </contour>
  </outline>
</glyph>
<glyph name="underscore" format="1">
  <advance width="422.999992371"/>
  <unicode hex="005F"/>
  <outline>
    <contour>
      <point x="422.999992371" y="-112.183750159" type="line"/>
      <point x="422.999992371" y="0.0" type="line"/>
      <point x="0.0" y="0.0" type="line"/>
      <point x="0.0" y="-112.183750159" type="line"/>
    </contour>
  </outline>
</glyph>
<glyph name="a" format="1">
  <advance width="539.857969553"/>
  <unicode hex="0061"/>
  <outline>
    <contour>
      <point x="268.442562668" y="458.259096205" type="move" name="top"/>
    </contour>
    <contour>
      <point x="446.657535247" y="0.0" type="move" name="ogonek"/>
    </contour>
    <contour>
      <point x="244.350175528" y="0.0" type="move" name="bottom"/>
    </contour>
    <contour>
      <point x="507.816565343" y="0.0" type="line"/>
      <point x="507.816565343" y="238.760838686" type="line" smooth="yes"/>
      <point x="507.816565343" y="397.900658953"/>
      <point x="410.409819655" y="467.432920448"/>
      <point x="242.798611543" y="467.432920448" type="curve" smooth="yes"/>
      <point x="170.891996918" y="467.432920448"/>
      <point x="85.599970753" y="450.138148664"/>
      <point x="29.3494319612" y="417.76197367" type="curve"/>
      <point x="98.4067179669" y="277.283505461" type="line"/>
      <point x="127.598793557" y="297.746049288"/>
      <point x="172.583996887" y="309.437803738"/>
      <point x="205.173608725" y="309.437803738" type="curve" smooth="yes"/>
      <point x="265.116092044" y="309.437803738"/>
      <point x="287.690755973" y="288.547294792"/>
      <point x="287.690755973" y="251.291487279" type="curve" smooth="yes"/>
      <point x="287.690755973" y="100.115138877" type="line"/>
      <point x="303.473731482" y="77.3985079085" type="line"/>
      <point x="303.473731482" y="0.0" type="line"/>
    </contour>
    <contour>
      <point x="314.893039237" y="89.279314665" type="curve"/>
      <point x="287.690755973" y="151.620101836" type="line"/>
      <point x="280.628347816" y="127.627469667"/>
      <point x="261.855607703" y="118.280381433"/>
      <point x="245.319691111" y="118.280381433" type="curve" smooth="yes"/>
      <point x="226.245774564" y="118.280381433"/>
      <point x="214.943214251" y="130.367276592"/>
      <point x="214.943214251" y="144.601891502" type="curve" smooth="yes"/>
      <point x="214.943214251" y="164.719155128"/>
      <point x="229.198314317" y="173.819436392"/>
      <point x="260.11623065" y="173.819436392" type="curve" smooth="yes"/>
      <point x="307.847551467" y="173.819436392" type="line"/>
      <point x="307.847551467" y="275.504748383" type="line"/>
      <point x="224.464099771" y="275.504748383" type="line" smooth="yes"/>
      <point x="78.1230227975" y="275.504748383"/>
      <point x="7.64107248181" y="227.216170194"/>
      <point x="7.64107248181" y="135.18126029" type="curve" smooth="yes"/>
      <point x="7.64107248181" y="56.2034373285"/>
      <point x="64.3230714595" y="-9.17382424279"/>
      <point x="178.242045198" y="-9.17382424279" type="curve" smooth="yes"/>
      <point x="255.79993998" y="-9.17382424279"/>
      <point x="301.069399357" y="22.215122871"/>
    </contour>
  </outline>
</glyph>
<glyph name="b" format="1">
  <advance width="590.354017055"/>
  <unicode hex="0062"/>
  <outline>
    <contour>
      <point x="577.222404866" y="229.545048095" type="curve" smooth="yes"/>
      <point x="577.222404866" y="378.639325566"/>
      <point x="475.144046836" y="467.432920448"/>
      <point x="355.012049003" y="467.432920448" type="curve" smooth="yes"/>
      <point x="235.866487139" y="467.432920448"/>
      <point x="187.620799467" y="395.818588022"/>
      <point x="187.620799467" y="229.545048095" type="curve" smooth="yes"/>
      <point x="187.620799467" y="60.4082977585"/>
      <point x="227.974999385" y="-9.17382424279"/>
      <point x="355.012049003" y="-9.17382424279" type="curve" smooth="yes"/>
      <point x="475.144046836" y="-9.17382424279"/>
      <point x="577.222404866" y="80.4507706242"/>
    </contour>
    <contour>
      <point x="242.446673949" y="0.0" type="line"/>
      <point x="242.446673949" y="47.1791946046" type="line"/>
      <point x="244.837469764" y="229.42164461" type="line"/>
      <point x="253.297469611" y="411.664094615" type="line"/>
      <point x="253.297469611" y="616.601988678" type="line"/>
      <point x="33.1716602408" y="616.601988678" type="line"/>
      <point x="33.1716602408" y="0.0" type="line"/>
    </contour>
    <contour>
      <point x="249.351725734" y="229.545048095" type="curve" smooth="yes"/>
      <point x="249.351725734" y="279.660996088"/>
      <point x="273.919566065" y="301.80257598"/>
      <point x="304.703814569" y="301.80257598" type="curve" smooth="yes"/>
      <point x="335.488063072" y="301.80257598"/>
      <point x="360.055903404" y="279.660996088"/>
      <point x="360.055903404" y="229.545048095" type="curve" smooth="yes"/>
      <point x="360.055903404" y="179.429100102"/>
      <point x="335.488063072" y="156.456520225"/>
      <point x="304.703814569" y="156.456520225" type="curve" smooth="yes"/>
      <point x="273.919566065" y="156.456520225"/>
      <point x="249.351725734" y="179.429100102"/>
    </contour>
  </outline>
</glyph>
<glyph name="d" format="1">
  <advance width="595.286196902"/>
  <unicode hex="0064"/>
  <outline>
    <contour>
      <point x="324.836921521" y="0.0" type="move" name="bottom"/>
    </contour>
    <contour>
      <point x="411.717736522" y="533.074025085" type="move" name="center"/>
    </contour>
    <contour>
      <point x="620.080763964" y="616.601988678" type="move" name="topright"/>
    </contour>
    <contour>
      <point x="407.665397435" y="229.545048095" type="curve" smooth="yes"/>
      <point x="407.665397435" y="395.818588022"/>
      <point x="359.419709763" y="467.432920448"/>
      <point x="240.274147899" y="467.432920448" type="curve" smooth="yes"/>
      <point x="120.142150065" y="467.432920448"/>
      <point x="18.0637920356" y="378.639325566"/>
      <point x="18.0637920356" y="229.545048095" type="curve" smooth="yes"/>
      <point x="18.0637920356" y="80.4507706242"/>
      <point x="120.142150065" y="-9.17382424279"/>
      <point x="240.274147899" y="-9.17382424279" type="curve" smooth="yes"/>
      <point x="367.311197517" y="-9.17382424279"/>
      <point x="407.665397435" y="60.4082977585"/>
    </contour>
    <contour>
      <point x="235.230293498" y="229.545048095" type="curve" smooth="yes"/>
      <point x="235.230293498" y="279.660996088"/>
      <point x="259.79813383" y="301.80257598"/>
      <point x="290.582382333" y="301.80257598" type="curve" smooth="yes"/>
      <point x="321.366630836" y="301.80257598"/>
      <point x="345.934471168" y="279.660996088"/>
      <point x="345.934471168" y="229.545048095" type="curve" smooth="yes"/>
      <point x="345.934471168" y="179.429100102"/>
      <point x="321.366630836" y="156.456520225"/>
      <point x="290.582382333" y="156.456520225" type="curve" smooth="yes"/>
      <point x="259.79813383" y="156.456520225"/>
      <point x="235.230293498" y="179.429100102"/>
    </contour>
    <contour>
      <point x="562.114536661" y="0.0" type="line"/>
      <point x="562.114536661" y="616.601988678" type="line"/>
      <point x="341.98872729" y="616.601988678" type="line"/>
      <point x="341.98872729" y="411.664094615" type="line"/>
      <point x="350.448727138" y="229.42164461" type="line"/>
      <point x="352.839522953" y="47.1791946046" type="line"/>
      <point x="352.839522953" y="0.0" type="line"/>
    </contour>
  </outline>
</glyph>
<glyph name="e" format="1">
  <advance width="561.997789218"/>
  <unicode hex="0065"/>
  <outline>
    <contour>
      <point x="285.36594644" y="458.259096205" type="move" name="top"/>
    </contour>
    <contour>
      <point x="482.182766451" y="0.0" type="move" name="ogonek"/>
    </contour>
    <contour>
      <point x="285.36594644" y="0.0" type="move" name="bottom"/>
    </contour>
    <contour>
      <point x="512.916253794" y="64.3243848696" type="curve"/>
      <point x="400.455785139" y="176.170748984" type="line"/>
      <point x="369.996401611" y="157.065643493"/>
      <point x="350.939405451" y="147.866888997"/>
      <point x="310.882997889" y="147.866888997" type="curve" smooth="yes"/>
      <point x="255.85577403" y="147.866888997"/>
      <point x="227.338805744" y="172.748275814"/>
      <point x="227.338805744" y="222.864223806" type="curve" smooth="yes"/>
      <point x="227.338805744" y="254.820327839" type="line" smooth="yes"/>
      <point x="227.338805744" y="298.164872469"/>
      <point x="249.228210136" y="322.799452315"/>
      <point x="286.917510425" y="322.799452315" type="curve" smooth="yes"/>
      <point x="324.606810713" y="322.799452315"/>
      <point x="346.355779121" y="298.164872469"/>
      <point x="346.355779121" y="254.820327839" type="curve"/>
      <point x="432.038656543" y="280.646976187" type="line"/>
      <point x="196.896342603" y="280.646976187" type="line"/>
      <point x="196.896342603" y="178.961664196" type="line"/>
      <point x="544.920433152" y="178.961664196" type="line"/>
      <point x="546.89330509" y="193.985312742"/>
      <point x="548.866177029" y="213.904382123"/>
      <point x="548.866177029" y="228.92803067" type="curve" smooth="yes"/>
      <point x="548.866177029" y="386.982149824"/>
      <point x="425.932227659" y="467.432920448"/>
      <point x="284.944638486" y="467.432920448" type="curve" smooth="yes"/>
      <point x="130.427817712" y="467.432920448"/>
      <point x="13.1316121891" y="369.095290868"/>
      <point x="13.1316121891" y="229.545048095" type="curve" smooth="yes"/>
      <point x="13.1316121891" y="92.8580157315"/>
      <point x="125.358585958" y="-9.17382424279"/>
      <point x="303.977946104" y="-9.17382424279" type="curve" smooth="yes"/>
      <point x="399.559023993" y="-9.17382424279"/>
      <point x="466.249202726" y="15.8795787845"/>
    </contour>
  </outline>
</glyph>
<glyph name="f" format="1">
  <advance width="376.546131724"/>
  <unicode hex="0066"/>
  <outline>
    <contour>
      <point x="276.834880967" y="0.0" type="line"/>
      <point x="276.834880967" y="318.735031466" type="line"/>
      <point x="269.929829182" y="406.137115821" type="line"/>
      <point x="269.929829182" y="418.734661016" type="line" smooth="yes"/>
      <point x="269.929829182" y="451.719959278"/>
      <point x="286.575725063" y="464.917485802"/>
      <point x="308.311157161" y="464.917485802" type="curve" smooth="yes"/>
      <point x="321.432617118" y="464.917485802"/>
      <point x="334.834949044" y="460.548503319"/>
      <point x="346.541896923" y="456.459152216" type="curve"/>
      <point x="397.843335482" y="604.572848183" type="line"/>
      <point x="368.661412124" y="618.667023513"/>
      <point x="321.997745134" y="625.775812921"/>
      <point x="279.844950036" y="625.775812921" type="curve" smooth="yes"/>
      <point x="137.19581759" y="625.775812921"/>
      <point x="56.7090715968" y="545.218674907"/>
      <point x="56.7090715968" y="420.02645053" type="curve" smooth="yes"/>
      <point x="56.7090715968" y="0.0" type="line"/>
    </contour>
    <contour>
      <point x="362.739412231" y="274.495085811" type="line"/>
      <point x="362.739412231" y="429.626992111" type="line"/>
      <point x="-3.23002764484" y="429.626992111" type="line"/>
      <point x="-3.23002764484" y="274.495085811" type="line"/>
    </contour>
  </outline>
</glyph>
<glyph name="g" format="1">
  <advance width="600.36219681"/>
  <unicode hex="0067"/>
  <outline>
    <contour>
      <point x="300.02881815" y="458.259096205" type="move" name="top"/>
    </contour>
    <contour>
      <point x="567.190536569" y="98.3534178952" type="curve" smooth="yes"/>
      <point x="567.190536569" y="458.259096205" type="line"/>
      <point x="357.915522861" y="458.259096205" type="line"/>
      <point x="357.915522861" y="402.243463402" type="line"/>
      <point x="355.524727046" y="247.39908264" type="line"/>
      <point x="347.064727199" y="92.5547018783" type="line"/>
      <point x="347.064727199" y="69.1371207867" type="line" smooth="yes"/>
      <point x="347.064727199" y="18.3464007049"/>
      <point x="320.397115254" y="-12.392704573"/>
      <point x="251.556403747" y="-12.392704573" type="curve" smooth="yes"/>
      <point x="206.561048184" y="-12.392704573"/>
      <point x="146.070357236" y="4.07106722612"/>
      <point x="111.096717738" y="29.1494005066" type="curve"/>
      <point x="38.0936878551" y="-116.101085051" type="line"/>
      <point x="98.2899705241" y="-152.385452999"/>
      <point x="181.896764874" y="-170.387821283"/>
      <point x="274.244431041" y="-170.387821283" type="curve" smooth="yes"/>
      <point x="455.966919156" y="-170.387821283"/>
      <point x="567.190536569" y="-83.3717356974"/>
    </contour>
    <contour>
      <point x="398.931293773" y="247.39908264" type="curve" smooth="yes"/>
      <point x="398.931293773" y="401.0513949"/>
      <point x="351.67204207" y="467.432920448"/>
      <point x="233.934224129" y="467.432920448" type="curve" smooth="yes"/>
      <point x="118.169278127" y="467.432920448"/>
      <point x="13.1316121891" y="383.872132444"/>
      <point x="13.1316121891" y="247.39908264" type="curve" smooth="yes"/>
      <point x="13.1316121891" y="110.926032836"/>
      <point x="118.169278127" y="26.5342448479"/>
      <point x="233.934224129" y="26.5342448479" type="curve" smooth="yes"/>
      <point x="351.67204207" y="26.5342448479"/>
      <point x="398.931293773" y="93.623366895"/>
    </contour>
    <contour>
      <point x="230.298113652" y="247.39908264" type="curve" smooth="yes"/>
      <point x="230.298113652" y="281.076189087"/>
      <point x="255.852389952" y="301.80257598"/>
      <point x="284.242458563" y="301.80257598" type="curve" smooth="yes"/>
      <point x="312.632527174" y="301.80257598"/>
      <point x="337.200367506" y="281.076189087"/>
      <point x="337.200367506" y="247.39908264" type="curve" smooth="yes"/>
      <point x="337.200367506" y="213.721976194"/>
      <point x="312.632527174" y="192.164589316"/>
      <point x="284.242458563" y="192.164589316" type="curve" smooth="yes"/>
      <point x="255.852389952" y="192.164589316"/>
      <point x="230.298113652" y="213.721976194"/>
    </contour>
  </outline>
</glyph>
<glyph name="h" format="1">
  <advance width="598.666812763"/>
  <unicode hex="0068"/>
  <outline>
    <contour>
      <point x="143.234564926" y="616.601988678" type="move" name="top"/>
    </contour>
    <contour>
      <point x="303.138714274" y="0.0" type="move" name="bottom"/>
    </contour>
    <contour>
      <point x="273.775746004" y="458.259096205" type="move" name="topright"/>
    </contour>
    <contour>
      <point x="184.554896349" y="533.074025085" type="move" name="center"/>
    </contour>
    <contour>
      <point x="566.625408554" y="0.0" type="line"/>
      <point x="566.625408554" y="260.135819635" type="line" smooth="yes"/>
      <point x="566.625408554" y="407.016728532"/>
      <point x="481.189562327" y="467.432920448"/>
      <point x="374.734000234" y="467.432920448" type="curve" smooth="yes"/>
      <point x="277.711337649" y="467.432920448"/>
      <point x="193.258543314" y="409.608201718"/>
      <point x="173.529823928" y="284.308362171" type="curve"/>
      <point x="253.297469611" y="210.605312437" type="line"/>
      <point x="253.297469611" y="271.746136949"/>
      <point x="280.25272168" y="288.440927403"/>
      <point x="306.529482368" y="288.440927403" type="curve" smooth="yes"/>
      <point x="330.542346916" y="288.440927403"/>
      <point x="346.499599183" y="272.017874172"/>
      <point x="346.499599183" y="222.914084313" type="curve" smooth="yes"/>
      <point x="346.499599183" y="0.0" type="line"/>
    </contour>
    <contour>
      <point x="253.297469611" y="0.0" type="line"/>
      <point x="253.297469611" y="616.601988678" type="line"/>
      <point x="33.1716602408" y="616.601988678" type="line"/>
      <point x="33.1716602408" y="0.0" type="line"/>
    </contour>
  </outline>
</glyph>
<glyph name="i" format="1">
  <advance width="285.482693883"/>
  <unicode hex="0069"/>
  <outline>
    <contour>
      <point x="252.311033642" y="0.0" type="move" name="ogonek"/>
    </contour>
    <contour>
      <point x="143.234564926" y="0.0" type="move" name="bottom"/>
    </contour>
    <component base="dotaccentcomb.i" xOffset="-110.565430496"/>
    <component base="idotless"/>
  </outline>
</glyph>
<glyph name="k" format="1">
  <advance width="602.417975418"/>
  <unicode hex="006B"/>
  <outline>
    <contour>
      <point x="143.234564926" y="616.601988678" type="move" name="top"/>
    </contour>
    <contour>
      <point x="269.54574608" y="458.259096205" type="move" name="topright"/>
    </contour>
    <contour>
      <point x="275.504970824" y="0.0" type="move" name="bottom"/>
    </contour>
    <contour>
      <point x="291.983358101" y="148.256631109" type="line"/>
      <point x="401.203646879" y="233.62650504" type="line"/>
      <point x="616.214542678" y="458.259096205" type="line"/>
      <point x="356.908782428" y="458.259096205" type="line"/>
      <point x="222.714570486" y="317.801814907" type="line"/>
      <point x="217.782390639" y="66.8921755833" type="line"/>
    </contour>
    <contour>
      <point x="253.297469611" y="0.0" type="line"/>
      <point x="253.297469611" y="616.601988678" type="line"/>
      <point x="33.1716602408" y="616.601988678" type="line"/>
      <point x="33.1716602408" y="0.0" type="line"/>
    </contour>
    <contour>
      <point x="630.740362481" y="0.0" type="line"/>
      <point x="385.982415308" y="305.544151319" type="line"/>
      <point x="251.114791329" y="143.821999805" type="line"/>
      <point x="365.094678461" y="0.0" type="line"/>
    </contour>
  </outline>
</glyph>
<glyph name="l" format="1">
  <advance width="286.469129852"/>
  <unicode hex="006C"/>
  <outline>
    <contour>
      <point x="143.234564926" y="616.601988678" type="move" name="top"/>
    </contour>
    <contour>
      <point x="143.234564926" y="0.0" type="move" name="bottom"/>
    </contour>
    <contour>
      <point x="308.304389006" y="616.601988678" type="move" name="topright"/>
    </contour>
    <contour>
      <point x="375.107931104" y="309.938064055" type="move" name="dot"/>
    </contour>
    <contour>
      <point x="143.234564926" y="309.938064055" type="move" name="center"/>
    </contour>
    <contour>
      <point x="253.297469611" y="0.0" type="line"/>
      <point x="253.297469611" y="616.601988678" type="line"/>
      <point x="33.1716602408" y="616.601988678" type="line"/>
      <point x="33.1716602408" y="0.0" type="line"/>
    </contour>
  </outline>
</glyph>
<glyph name="m" format="1">
  <advance width="875.907776563"/>
  <unicode hex="006D"/>
  <outline>
    <contour>
      <point x="436.546144359" y="0.0" type="move" name="bottom"/>
    </contour>
    <contour>
      <point x="843.866372354" y="0.0" type="line"/>
      <point x="843.866372354" y="260.135819635" type="line" smooth="yes"/>
      <point x="843.866372354" y="407.016728532"/>
      <point x="761.954962051" y="467.432920448"/>
      <point x="657.050963943" y="467.432920448" type="curve" smooth="yes"/>
      <point x="564.258301281" y="467.432920448"/>
      <point x="487.556558716" y="412.471412127"/>
      <point x="458.949915606" y="319.711869628" type="curve"/>
      <point x="548.581920982" y="220.149347135" type="line"/>
      <point x="548.581920982" y="273.654943888"/>
      <point x="567.926557266" y="288.440927403"/>
      <point x="588.846446076" y="288.440927403" type="curve" smooth="yes"/>
      <point x="608.488874716" y="288.440927403"/>
      <point x="623.740562983" y="272.017874172"/>
      <point x="623.740562983" y="222.914084313" type="curve" smooth="yes"/>
      <point x="623.740562983" y="0.0" type="line"/>
    </contour>
    <contour>
      <point x="253.297469611" y="0.0" type="line"/>
      <point x="253.297469611" y="326.787834625" type="line"/>
      <point x="242.446673949" y="368.222324534" type="line"/>
      <point x="242.446673949" y="458.259096205" type="line"/>
      <point x="33.1716602408" y="458.259096205" type="line"/>
      <point x="33.1716602408" y="0.0" type="line"/>
    </contour>
    <contour>
      <point x="548.581920982" y="0.0" type="line"/>
      <point x="548.581920982" y="260.135819635" type="line" smooth="yes"/>
      <point x="548.581920982" y="404.153518122"/>
      <point x="466.670510679" y="467.432920448"/>
      <point x="365.712256449" y="467.432920448" type="curve" smooth="yes"/>
      <point x="273.060029771" y="467.432920448"/>
      <point x="192.272107344" y="409.608201718"/>
      <point x="173.529823928" y="284.308362171" type="curve"/>
      <point x="253.297469611" y="220.149347135" type="line"/>
      <point x="253.297469611" y="273.654943888"/>
      <point x="272.642105895" y="288.440927403"/>
      <point x="293.561994705" y="288.440927403" type="curve" smooth="yes"/>
      <point x="315.177295284" y="288.440927403"/>
      <point x="328.456111612" y="272.017874172"/>
      <point x="328.456111612" y="222.914084313" type="curve" smooth="yes"/>
      <point x="328.456111612" y="0.0" type="line"/>
    </contour>
  </outline>
</glyph>
<glyph name="o" format="1">
  <advance width="571.300404973"/>
  <unicode hex="006F"/>
  <outline>
    <contour>
      <point x="282.690894579" y="0.0" type="move" name="bottom"/>
    </contour>
    <contour>
      <point x="282.690894579" y="458.259096205" type="move" name="top"/>
    </contour>
    <contour>
      <point x="392.085460115" y="0.0" type="move" name="ogonek"/>
    </contour>
    <contour>
      <point x="354.778554117" y="458.13569272" type="move" name="topright"/>
    </contour>
    <contour>
      <point x="282.690894579" y="229.545048095" type="move" name="center"/>
    </contour>
    <contour>
      <point x="558.168792784" y="229.545048095" type="curve" smooth="yes"/>
      <point x="558.168792784" y="369.095290868"/>
      <point x="444.958767123" y="467.432920448"/>
      <point x="285.650202486" y="467.432920448" type="curve" smooth="yes"/>
      <point x="126.34163785" y="467.432920448"/>
      <point x="13.1316121891" y="369.095290868"/>
      <point x="13.1316121891" y="229.545048095" type="curve" smooth="yes"/>
      <point x="13.1316121891" y="89.9948053222"/>
      <point x="126.34163785" y="-9.17382424279"/>
      <point x="285.650202486" y="-9.17382424279" type="curve" smooth="yes"/>
      <point x="444.958767123" y="-9.17382424279"/>
      <point x="558.168792784" y="89.9948053222"/>
    </contour>
    <contour>
      <point x="230.298113652" y="229.545048095" type="curve" smooth="yes"/>
      <point x="230.298113652" y="279.660996088"/>
      <point x="254.865953983" y="301.80257598"/>
      <point x="285.650202486" y="301.80257598" type="curve" smooth="yes"/>
      <point x="316.43445099" y="301.80257598"/>
      <point x="341.002291321" y="279.660996088"/>
      <point x="341.002291321" y="229.545048095" type="curve" smooth="yes"/>
      <point x="341.002291321" y="179.429100102"/>
      <point x="316.43445099" y="156.456520225"/>
      <point x="285.650202486" y="156.456520225" type="curve" smooth="yes"/>
      <point x="254.865953983" y="156.456520225"/>
      <point x="230.298113652" y="179.429100102"/>
    </contour>
  </outline>
</glyph>
<glyph name="p" format="1">
  <advance width="590.354017055"/>
  <unicode hex="0070"/>
  <outline>
    <contour>
      <point x="305.690250538" y="458.259096205" type="move" name="top"/>
    </contour>
    <contour>
      <point x="356.984920942" y="0.0" type="move" name="bottom"/>
    </contour>
    <contour>
      <point x="577.222404866" y="228.71404811" type="curve" smooth="yes"/>
      <point x="577.222404866" y="377.808325581"/>
      <point x="475.144046836" y="467.432920448"/>
      <point x="355.012049003" y="467.432920448" type="curve" smooth="yes"/>
      <point x="227.974999385" y="467.432920448"/>
      <point x="187.620799467" y="397.850798447"/>
      <point x="187.620799467" y="228.71404811" type="curve" smooth="yes"/>
      <point x="187.620799467" y="62.4405081832"/>
      <point x="235.866487139" y="-9.17382424279"/>
      <point x="355.012049003" y="-9.17382424279" type="curve" smooth="yes"/>
      <point x="475.144046836" y="-9.17382424279"/>
      <point x="577.222404866" y="79.6197706395"/>
    </contour>
    <contour>
      <point x="253.297469611" y="-161.21399704" type="line"/>
      <point x="253.297469611" y="46.59500159" type="line"/>
      <point x="244.837469764" y="228.837451595" type="line"/>
      <point x="242.446673949" y="411.0799016" type="line"/>
      <point x="242.446673949" y="458.259096205" type="line"/>
      <point x="33.1716602408" y="458.259096205" type="line"/>
      <point x="33.1716602408" y="-161.21399704" type="line"/>
    </contour>
    <contour>
      <point x="249.351725734" y="228.71404811" type="curve" smooth="yes"/>
      <point x="249.351725734" y="278.829996103"/>
      <point x="273.919566065" y="301.80257598"/>
      <point x="304.703814569" y="301.80257598" type="curve" smooth="yes"/>
      <point x="335.488063072" y="301.80257598"/>
      <point x="360.055903404" y="278.829996103"/>
      <point x="360.055903404" y="228.71404811" type="curve" smooth="yes"/>
      <point x="360.055903404" y="178.598100117"/>
      <point x="335.488063072" y="156.456520225"/>
      <point x="304.703814569" y="156.456520225" type="curve" smooth="yes"/>
      <point x="273.919566065" y="156.456520225"/>
      <point x="249.351725734" y="178.598100117"/>
    </contour>
  </outline>
</glyph>
<glyph name="q" format="1">
  <advance width="590.354017055"/>
  <unicode hex="0071"/>
  <outline>
    <contour>
      <point x="285.650202486" y="458.259096205" type="move" name="top"/>
    </contour>
    <contour>
      <point x="235.341968052" y="0.0" type="move" name="bottom"/>
    </contour>
    <contour>
      <point x="402.733217588" y="228.71404811" type="curve" smooth="yes"/>
      <point x="402.733217588" y="397.850798447"/>
      <point x="362.379017671" y="467.432920448"/>
      <point x="235.341968052" y="467.432920448" type="curve" smooth="yes"/>
      <point x="115.209970219" y="467.432920448"/>
      <point x="13.1316121891" y="377.808325581"/>
      <point x="13.1316121891" y="228.71404811" type="curve" smooth="yes"/>
      <point x="13.1316121891" y="79.6197706395"/>
      <point x="115.209970219" y="-9.17382424279"/>
      <point x="235.341968052" y="-9.17382424279" type="curve" smooth="yes"/>
      <point x="354.487529916" y="-9.17382424279"/>
      <point x="402.733217588" y="62.4405081832"/>
    </contour>
    <contour>
      <point x="230.298113652" y="228.71404811" type="curve" smooth="yes"/>
      <point x="230.298113652" y="278.829996103"/>
      <point x="254.865953983" y="301.80257598"/>
      <point x="285.650202486" y="301.80257598" type="curve" smooth="yes"/>
      <point x="316.43445099" y="301.80257598"/>
      <point x="341.002291321" y="278.829996103"/>
      <point x="341.002291321" y="228.71404811" type="curve" smooth="yes"/>
      <point x="341.002291321" y="178.598100117"/>
      <point x="316.43445099" y="156.456520225"/>
      <point x="285.650202486" y="156.456520225" type="curve" smooth="yes"/>
      <point x="254.865953983" y="156.456520225"/>
      <point x="230.298113652" y="178.598100117"/>
    </contour>
    <contour>
      <point x="557.182356814" y="-161.21399704" type="line"/>
      <point x="557.182356814" y="458.259096205" type="line"/>
      <point x="347.907343106" y="458.259096205" type="line"/>
      <point x="347.907343106" y="411.0799016" type="line"/>
      <point x="345.516547291" y="228.837451595" type="line"/>
      <point x="337.056547444" y="46.59500159" type="line"/>
      <point x="337.056547444" y="-161.21399704" type="line"/>
    </contour>
  </outline>
</glyph>
<glyph name="r" format="1">
  <advance width="396.027819915"/>
  <unicode hex="0072"/>
  <outline>
    <contour>
      <point x="209.797843984" y="458.259096205" type="move" name="top"/>
    </contour>
    <contour>
      <point x="143.234564926" y="0.0" type="move" name="bottom"/>
    </contour>
    <contour>
      <point x="253.297469611" y="0.0" type="line"/>
      <point x="253.297469611" y="326.787834625" type="line"/>
      <point x="242.446673949" y="368.222324534" type="line"/>
      <point x="242.446673949" y="458.259096205" type="line"/>
      <point x="33.1716602408" y="458.259096205" type="line"/>
      <point x="33.1716602408" y="0.0" type="line"/>
    </contour>
    <contour>
      <point x="340.058153092" y="282.837910069" type="curve" smooth="yes"/>
      <point x="355.560256632" y="282.837910069"/>
      <point x="369.089488233" y="281.883506599"/>
      <point x="388.53733565" y="279.02029619" type="curve"/>
      <point x="386.564463711" y="467.432920448" type="line"/>
      <point x="270.943337771" y="467.432920448"/>
      <point x="193.258543314" y="406.004570398"/>
      <point x="193.258543314" y="272.518134489" type="curve"/>
      <point x="253.297469611" y="197.613874315" type="line"/>
      <point x="253.297469611" y="263.740698735"/>
      <point x="290.394569265" y="282.837910069"/>
    </contour>
  </outline>
</glyph>
<glyph name="s" format="1">
  <advance width="506.124565374"/>
  <unicode hex="0073"/>
  <outline>
    <contour>
      <point x="246.580230894" y="458.259096205" type="move" name="top"/>
    </contour>
    <contour>
      <point x="246.580230894" y="0.0" type="move" name="bottom"/>
    </contour>
    <contour>
      <point x="486.65979757" y="150.854750672" type="curve" smooth="yes"/>
      <point x="486.65979757" y="335.805430972"/>
      <point x="226.773677728" y="279.617781958"/>
      <point x="226.773677728" y="312.052959397" type="curve" smooth="yes"/>
      <point x="226.773677728" y="315.451750095"/>
      <point x="233.990058179" y="322.799452315"/>
      <point x="277.019309958" y="322.799452315" type="curve" smooth="yes"/>
      <point x="314.250077441" y="322.799452315"/>
      <point x="361.064332649" y="316.307680333"/>
      <point x="410.546871563" y="290.793487776" type="curve"/>
      <point x="470.020669844" y="431.025149015" type="line"/>
      <point x="413.492643161" y="455.708341587"/>
      <point x="343.986976582" y="467.432920448"/>
      <point x="274.06000205" y="467.432920448" type="curve" smooth="yes"/>
      <point x="98.2798182919" y="467.432920448"/>
      <point x="23.5577158204" y="393.556606723"/>
      <point x="23.5577158204" y="307.280942048" type="curve" smooth="yes"/>
      <point x="23.5577158204" y="121.161875719"/>
      <point x="284.289835647" y="178.180524717"/>
      <point x="284.289835647" y="146.082733323" type="curve" smooth="yes"/>
      <point x="284.289835647" y="140.067539185"/>
      <point x="277.919455181" y="135.45964389"/>
      <point x="239.39430714" y="135.45964389" type="curve" smooth="yes"/>
      <point x="186.932155854" y="135.45964389"/>
      <point x="123.766413045" y="148.689994824"/>
      <point x="77.6678740699" y="173.833976926" type="curve"/>
      <point x="18.194075788" y="33.6023156873" type="line"/>
      <point x="67.957486671" y="8.12094754108"/>
      <point x="153.533768882" y="-9.17382424279"/>
      <point x="234.462127294" y="-9.17382424279" type="curve" smooth="yes"/>
      <point x="414.897003006" y="-9.17382424279"/>
      <point x="486.65979757" y="66.7346999069"/>
    </contour>
  </outline>
</glyph>
<glyph name="t" format="1">
  <advance width="399.271383869"/>
  <unicode hex="0074"/>
  <outline>
    <contour>
      <point x="166.771976282" y="561.706129179" type="move" name="top"/>
    </contour>
    <contour>
      <point x="236.43838331" y="0.0" type="move" name="bottom"/>
    </contour>
    <contour>
      <point x="309.438029115" y="616.601988678" type="move" name="topright"/>
    </contour>
    <contour>
      <point x="180.177692286" y="211.214435705" type="move" name="center"/>
    </contour>
    <contour>
      <point x="397.843335482" y="13.9379474343" type="curve"/>
      <point x="346.541896923" y="162.051643401" type="line"/>
      <point x="334.834949044" y="155.09908189"/>
      <point x="321.432617118" y="151.684502876"/>
      <point x="308.311157161" y="151.684502876" type="curve" smooth="yes"/>
      <point x="291.507904909" y="151.684502876"/>
      <point x="276.834880967" y="164.8820294"/>
      <point x="276.834880967" y="188.323292964" type="curve" smooth="yes"/>
      <point x="276.834880967" y="561.706129179" type="line"/>
      <point x="56.7090715968" y="561.706129179" type="line"/>
      <point x="56.7090715968" y="187.03150345" type="line" smooth="yes"/>
      <point x="56.7090715968" y="52.2952443749"/>
      <point x="137.476689559" y="-9.17382424279"/>
      <point x="274.91277019" y="-9.17382424279" type="curve" smooth="yes"/>
      <point x="321.997745134" y="-9.17382424279"/>
      <point x="366.688540186" y="-2.06503483528"/>
    </contour>
    <contour>
      <point x="362.739412231" y="274.495085811" type="line"/>
      <point x="362.739412231" y="429.626992111" type="line"/>
      <point x="-3.23002764484" y="429.626992111" type="line"/>
      <point x="-3.23002764484" y="274.495085811" type="line"/>
    </contour>
  </outline>
</glyph>
<glyph name="u" format="1">
  <advance width="595.282812824"/>
  <unicode hex="0075"/>
  <outline>
    <contour>
      <point x="297.076278397" y="458.259096205" type="move" name="top"/>
    </contour>
    <contour>
      <point x="562.111152584" y="0.0" type="move" name="ogonek"/>
    </contour>
    <contour>
      <point x="451.907811914" y="458.259096205" type="move" name="topright"/>
    </contour>
    <contour>
      <point x="297.076278397" y="0.0" type="move" name="bottom"/>
    </contour>
    <contour>
      <point x="421.752988897" y="173.950734034" type="curve"/>
      <point x="341.985343213" y="247.653783768" type="line"/>
      <point x="341.985343213" y="186.512959257"/>
      <point x="315.59521916" y="169.818168802"/>
      <point x="295.38089435" y="169.818168802" type="curve" smooth="yes"/>
      <point x="268.970465832" y="169.818168802"/>
      <point x="252.16721358" y="186.241222033"/>
      <point x="252.16721358" y="244.88904659" type="curve" smooth="yes"/>
      <point x="252.16721358" y="458.259096205" type="line"/>
      <point x="32.0414042095" y="458.259096205" type="line"/>
      <point x="32.0414042095" y="207.667311268" type="line" smooth="yes"/>
      <point x="32.0414042095" y="55.0599815524"/>
      <point x="118.323250421" y="-9.17382424279"/>
      <point x="229.149248422" y="-9.17382424279" type="curve" smooth="yes"/>
      <point x="320.10947513" y="-9.17382424279"/>
      <point x="402.024269511" y="48.6508944871"/>
    </contour>
    <contour>
      <point x="562.111152584" y="0.0" type="line"/>
      <point x="562.111152584" y="458.259096205" type="line"/>
      <point x="341.985343213" y="458.259096205" type="line"/>
      <point x="341.985343213" y="131.47126158" type="line"/>
      <point x="352.836138875" y="90.036771671" type="line"/>
      <point x="352.836138875" y="0.0" type="line"/>
    </contour>
  </outline>
</glyph>
<glyph name="v" format="1">
  <advance width="563.923284073"/>
  <unicode hex="0076"/>
  <outline>
    <contour>
      <point x="281.961642037" y="458.259096205" type="move" name="top"/>
    </contour>
    <contour>
      <point x="281.961642037" y="0.0" type="move" name="bottom"/>
    </contour>
    <contour>
      <point x="395.970290599" y="0.0" type="line"/>
      <point x="579.56243952" y="458.259096205" type="line"/>
      <point x="371.695169735" y="458.259096205" type="line"/>
      <point x="228.269407663" y="96.5759085982" type="line"/>
      <point x="342.558928195" y="96.5759085982" type="line"/>
      <point x="209.983961786" y="458.259096205" type="line"/>
      <point x="-15.6391554468" y="458.259096205" type="line"/>
      <point x="167.952993474" y="0.0" type="line"/>
    </contour>
  </outline>
</glyph>
<glyph name="w" format="1">
  <advance width="908.268966405"/>
  <unicode hex="0077"/>
  <outline>
    <contour>
      <point x="454.134483202" y="458.259096205" type="move" name="top"/>
    </contour>
    <contour>
      <point x="454.134483202" y="0.0" type="move" name="bottom"/>
    </contour>
    <contour>
      <point x="390.472982737" y="0.0" type="line"/>
      <point x="490.070870128" y="272.586278871" type="line"/>
      <point x="422.143840154" y="272.586278871" type="line"/>
      <point x="517.795983668" y="0.0" type="line"/>
      <point x="745.813280793" y="0.0" type="line"/>
      <point x="918.691685958" y="458.259096205" type="line"/>
      <point x="710.824416173" y="458.259096205" type="line"/>
      <point x="572.193782041" y="96.5759085982" type="line"/>
      <point x="691.415482419" y="96.5759085982" type="line"/>
      <point x="564.197387888" y="458.259096205" type="line"/>
      <point x="358.868118057" y="458.259096205" type="line"/>
      <point x="220.799227863" y="96.5759085982" type="line"/>
      <point x="341.00736421" y="96.5759085982" type="line"/>
      <point x="213.22752574" y="458.259096205" type="line"/>
      <point x="-10.4227195538" y="458.259096205" type="line"/>
      <point x="162.455685612" y="0.0" type="line"/>
    </contour>
  </outline>
</glyph>
<glyph name="x" format="1">
  <advance width="566.314079888"/>
  <unicode hex="0078"/>
  <outline>
    <contour>
      <point x="225.355781573" y="0.0" type="line"/>
      <point x="324.79969667" y="140.201332389" type="line"/>
      <point x="231.79045951" y="152.608577497" type="line"/>
      <point x="327.288630729" y="0.0" type="line"/>
      <point x="579.124211179" y="0.0" type="line"/>
      <point x="360.595647611" y="294.62564219" type="line"/>
      <point x="360.736083596" y="176.806050286" type="line"/>
      <point x="576.298571101" y="458.259096205" type="line"/>
      <point x="345.883710007" y="458.259096205" type="line"/>
      <point x="240.949255202" y="308.448080297" type="line"/>
      <point x="332.55074844" y="315.128904585" type="line"/>
      <point x="239.453525267" y="458.259096205" type="line"/>
      <point x="-8.57674729022" y="458.259096205" type="line"/>
      <point x="206.280176215" y="165.813998178" type="line"/>
      <point x="212.058356046" y="289.022624856" type="line"/>
      <point x="-12.8101312913" y="0.0" type="line"/>
    </contour>
  </outline>
</glyph>
<glyph name="y" format="1">
  <advance width="563.923284073"/>
  <unicode hex="0079"/>
  <outline>
    <contour>
      <point x="275.190258081" y="458.259096205" type="move" name="top"/>
    </contour>
    <contour>
      <point x="471.822649102" y="0.0" type="move" name="bottom"/>
    </contour>
    <contour>
      <point x="396.234242181" y="-0.255948908264" type="curve" smooth="yes"/>
      <point x="579.56243952" y="458.259096205" type="line"/>
      <point x="371.695169735" y="458.259096205" type="line"/>
      <point x="231.228715571" y="94.6671016586" type="line"/>
      <point x="216.147919985" y="74.5340497184" type="line"/>
      <point x="198.796460105" y="29.5445412149" type="line" smooth="yes"/>
      <point x="191.028487948" y="7.67469854583"/>
      <point x="177.763207929" y="-5.71188028445"/>
      <point x="145.327568385" y="-5.71188028445" type="curve" smooth="yes"/>
      <point x="124.451672581" y="-5.71188028445"/>
      <point x="97.9448010845" y="4.13671604739"/>
      <point x="80.1754173276" y="16.6594704823" type="curve"/>
      <point x="8.2992593985" y="-129.298611575" type="line"/>
      <point x="40.8651826949" y="-154.105207632"/>
      <point x="103.452261179" y="-170.387821283"/>
      <point x="156.318800032" y="-170.387821283" type="curve" smooth="yes"/>
      <point x="262.178777412" y="-170.387821283"/>
      <point x="342.525087421" y="-132.927173148"/>
    </contour>
    <contour>
      <point x="339.599620287" y="113.755171054" type="line"/>
      <point x="209.983961786" y="458.259096205" type="line"/>
      <point x="-15.6391554468" y="458.259096205" type="line"/>
      <point x="185.006660999" y="-22.5026484093" type="line"/>
    </contour>
  </outline>
</glyph>
<glyph name="z" format="1">
  <advance width="493.314434083"/>
  <unicode hex="007A"/>
  <outline>
    <contour>
      <point x="251.65961488" y="458.259096205" type="move" name="top"/>
    </contour>
    <contour>
      <point x="250.255255034" y="0.0" type="move" name="bottom"/>
    </contour>
    <contour>
      <point x="482.299513894" y="0.0" type="line"/>
      <point x="482.299513894" y="155.1319063" type="line"/>
      <point x="202.106010341" y="155.1319063" type="line"/>
      <point x="236.91890939" y="87.1552773853" type="line"/>
      <point x="472.150898154" y="336.037697407" type="line"/>
      <point x="472.150898154" y="458.259096205" type="line"/>
      <point x="30.3223316209" y="458.259096205" type="line"/>
      <point x="30.3223316209" y="303.127189905" type="line"/>
      <point x="293.739655541" y="303.127189905" type="line"/>
      <point x="258.365012553" y="371.10381882" type="line"/>
      <point x="23.1330237893" y="122.221398798" type="line"/>
      <point x="23.1330237893" y="0.0" type="line"/>
    </contour>
  </outline>
</glyph>
<glyph name="braceleft" format="1">
  <advance width="389.928159186"/>
  <unicode hex="007B"/>
  <outline>
    <contour>
      <point x="383.574699107" y="-161.21399704" type="line"/>
      <point x="383.574699107" y="-1.31007339063" type="line"/>
      <point x="378.204290919" y="-1.31007339063" type="line" smooth="yes"/>
      <point x="339.425343529" y="-1.31007339063"/>
      <point x="319.121343895" y="18.8479088026"/>
      <point x="319.121343895" y="54.3012767658" type="curve" smooth="yes"/>
      <point x="319.121343895" y="107.45494694" type="line" smooth="yes"/>
      <point x="319.121343895" y="207.503189215"/>
      <point x="274.444085152" y="232.375434094"/>
      <point x="171.419900082" y="238.900030487" type="curve"/>
      <point x="171.419900082" y="216.487961152" type="line"/>
      <point x="274.444085152" y="223.012557545"/>
      <point x="319.121343895" y="247.884802423"/>
      <point x="319.121343895" y="347.933044698" type="curve" smooth="yes"/>
      <point x="319.121343895" y="401.086714872" type="line" smooth="yes"/>
      <point x="319.121343895" y="436.540082836"/>
      <point x="339.425343529" y="456.698065029"/>
      <point x="378.204290919" y="456.698065029" type="curve" smooth="yes"/>
      <point x="383.574699107" y="456.698065029" type="line"/>
      <point x="383.574699107" y="616.601988678" type="line"/>
      <point x="314.089336992" y="616.601988678" type="line" smooth="yes"/>
      <point x="170.881844686" y="616.601988678"/>
      <point x="98.9955345243" y="546.107429556"/>
      <point x="98.9955345243" y="425.901205087" type="curve" smooth="yes"/>
      <point x="98.9955345243" y="343.161027349" type="line" smooth="yes"/>
      <point x="98.9955345243" y="319.094852202"/>
      <point x="83.4866628298" y="307.584255901"/>
      <point x="62.8984071495" y="307.584255901" type="curve" smooth="yes"/>
      <point x="35.2612796222" y="307.584255901" type="line"/>
      <point x="35.2612796222" y="147.680332252" type="line"/>
      <point x="62.8984071495" y="147.680332252" type="line" smooth="yes"/>
      <point x="83.4866628298" y="147.680332252"/>
      <point x="98.9955345243" y="136.293139436"/>
      <point x="98.9955345243" y="112.226964289" type="curve" smooth="yes"/>
      <point x="98.9955345243" y="29.4867865511" type="line" smooth="yes"/>
      <point x="98.9955345243" y="-90.7194379175"/>
      <point x="170.881844686" y="-161.21399704"/>
      <point x="314.089336992" y="-161.21399704" type="curve" smooth="yes"/>
    </contour>
  </outline>
</glyph>
<glyph name="bar" format="1">
  <advance width="275.494818592"/>
  <unicode hex="007C"/>
  <outline>
    <contour>
      <point x="237.945954288" y="-161.21399704" type="line"/>
      <point x="237.945954288" y="616.601988678" type="line"/>
      <point x="37.5488643038" y="616.601988678" type="line"/>
      <point x="37.5488643038" y="-161.21399704" type="line"/>
    </contour>
  </outline>
</glyph>
<glyph name="braceright" format="1">
  <advance width="389.928159186"/>
  <unicode hex="007D"/>
  <outline>
    <contour>
      <point x="290.932624661" y="29.4867865511" type="curve" smooth="yes"/>
      <point x="290.932624661" y="112.226964289" type="line" smooth="yes"/>
      <point x="290.932624661" y="136.293139436"/>
      <point x="306.441496356" y="147.680332252"/>
      <point x="327.029752036" y="147.680332252" type="curve" smooth="yes"/>
      <point x="354.666879563" y="147.680332252" type="line"/>
      <point x="354.666879563" y="307.584255901" type="line"/>
      <point x="327.029752036" y="307.584255901" type="line" smooth="yes"/>
      <point x="306.441496356" y="307.584255901"/>
      <point x="290.932624661" y="319.094852202"/>
      <point x="290.932624661" y="343.161027349" type="curve" smooth="yes"/>
      <point x="290.932624661" y="425.901205087" type="line" smooth="yes"/>
      <point x="290.932624661" y="546.107429556"/>
      <point x="219.0463145" y="616.601988678"/>
      <point x="75.8388221932" y="616.601988678" type="curve" smooth="yes"/>
      <point x="6.35346007904" y="616.601988678" type="line"/>
      <point x="6.35346007904" y="456.698065029" type="line"/>
      <point x="11.7238682662" y="456.698065029" type="line" smooth="yes"/>
      <point x="50.5028156571" y="456.698065029"/>
      <point x="70.8068152909" y="436.540082836"/>
      <point x="70.8068152909" y="401.086714872" type="curve" smooth="yes"/>
      <point x="70.8068152909" y="347.933044698" type="line" smooth="yes"/>
      <point x="70.8068152909" y="247.884802423"/>
      <point x="115.484074033" y="223.012557545"/>
      <point x="218.508259104" y="216.487961152" type="curve"/>
      <point x="218.508259104" y="238.900030487" type="line"/>
      <point x="115.484074033" y="232.375434094"/>
      <point x="70.8068152909" y="207.503189215"/>
      <point x="70.8068152909" y="107.45494694" type="curve" smooth="yes"/>
      <point x="70.8068152909" y="54.3012767658" type="line" smooth="yes"/>
      <point x="70.8068152909" y="18.8479088026"/>
      <point x="50.5028156571" y="-1.31007339063"/>
      <point x="11.7238682662" y="-1.31007339063" type="curve" smooth="yes"/>
      <point x="6.35346007904" y="-1.31007339063" type="line"/>
      <point x="6.35346007904" y="-161.21399704" type="line"/>
      <point x="75.8388221932" y="-161.21399704" type="line" smooth="yes"/>
      <point x="219.0463145" y="-161.21399704"/>
      <point x="290.932624661" y="-90.7194379175"/>
    </contour>
  </outline>
</glyph>
<glyph name="asciitilde" format="1">
  <advance width="532.946149613"/>
  <unicode hex="007E"/>
  <outline>
    <contour>
      <point x="503.178793776" y="384.489149869" type="curve"/>
      <point x="369.578477734" y="384.489149869" type="line"/>
      <point x="368.026913749" y="354.334237606"/>
      <point x="352.932581854" y="337.565904173"/>
      <point x="332.049917895" y="337.565904173" type="curve" smooth="yes"/>
      <point x="299.17605001" y="337.565904173"/>
      <point x="259.564638944" y="395.571781052"/>
      <point x="183.140384271" y="395.571781052" type="curve" smooth="yes"/>
      <point x="94.1902543528" y="395.571781052"/>
      <point x="31.1784838378" y="323.110660326"/>
      <point x="29.7673558375" y="200.074049859" type="curve"/>
      <point x="163.367671879" y="200.074049859" type="line"/>
      <point x="164.919235864" y="230.228962122"/>
      <point x="180.013567759" y="246.997295555"/>
      <point x="200.896231718" y="246.997295555" type="curve" smooth="yes"/>
      <point x="233.770099603" y="246.997295555"/>
      <point x="273.381510669" y="188.991418676"/>
      <point x="349.805765342" y="188.991418676" type="curve" smooth="yes"/>
      <point x="438.75589526" y="188.991418676"/>
      <point x="501.767665775" y="261.452539402"/>
    </contour>
  </outline>
</glyph>
<glyph name="exclamdown" format="1">
  <advance width="284.18154517"/>
  <unicode hex="00A1"/>
  <outline>
    <contour>
      <point x="54.2945872402" y="206.590752094" type="line"/>
      <point x="10.4667125599" y="-127.97399765" type="line"/>
      <point x="273.71483261" y="-127.97399765" type="line"/>
      <point x="229.88695793" y="206.590752094" type="line"/>
    </contour>
    <contour>
      <point x="15.5325602362" y="346.568959986" type="curve" smooth="yes"/>
      <point x="15.5325602362" y="274.807541602"/>
      <point x="70.0741786716" y="227.613806463"/>
      <point x="142.090772585" y="227.613806463" type="curve" smooth="yes"/>
      <point x="214.107366499" y="227.613806463"/>
      <point x="268.648984934" y="274.807541602"/>
      <point x="268.648984934" y="346.568959986" type="curve" smooth="yes"/>
      <point x="268.648984934" y="417.3759749"/>
      <point x="214.107366499" y="467.432920448"/>
      <point x="142.090772585" y="467.432920448" type="curve" smooth="yes"/>
      <point x="70.0741786716" y="467.432920448"/>
      <point x="15.5325602362" y="417.3759749"/>
    </contour>
  </outline>
</glyph>
<glyph name="cent" format="1">
  <advance width="518.283277903"/>
  <unicode hex="00A2"/>
  <outline>
    <contour>
      <point x="209.698016928" y="-99.7199981689" type="line"/>
      <point x="348.785488599" y="-193.136436355" type="line"/>
      <point x="351.453772306" y="557.979094374" type="line"/>
      <point x="212.366300634" y="651.39553256" type="line"/>
    </contour>
    <contour>
      <point x="523.472641177" y="135.073645119" type="curve"/>
      <point x="358.731066149" y="215.301291246" type="line"/>
      <point x="341.660478238" y="173.290502479"/>
      <point x="317.955558278" y="156.456520225"/>
      <point x="289.17463841" y="156.456520225" type="curve" smooth="yes"/>
      <point x="257.825261891" y="156.456520225"/>
      <point x="230.298113652" y="178.598100117"/>
      <point x="230.298113652" y="229.545048095" type="curve" smooth="yes"/>
      <point x="230.298113652" y="279.660996088"/>
      <point x="257.825261891" y="301.80257598"/>
      <point x="289.17463841" y="301.80257598" type="curve" smooth="yes"/>
      <point x="317.955558278" y="301.80257598"/>
      <point x="341.660478238" y="284.968593726"/>
      <point x="358.731066149" y="242.957804959" type="curve"/>
      <point x="523.472641177" y="323.185451086" type="line"/>
      <point x="495.126565572" y="412.669606372"/>
      <point x="408.005487531" y="467.432920448"/>
      <point x="290.161074379" y="467.432920448" type="curve" smooth="yes"/>
      <point x="128.314509789" y="467.432920448"/>
      <point x="13.1316121891" y="368.971887383"/>
      <point x="13.1316121891" y="229.545048095" type="curve" smooth="yes"/>
      <point x="13.1316121891" y="89.1638053374"/>
      <point x="128.314509789" y="-9.17382424279"/>
      <point x="290.161074379" y="-9.17382424279" type="curve" smooth="yes"/>
      <point x="408.005487531" y="-9.17382424279"/>
      <point x="495.126565572" y="45.5894898332"/>
    </contour>
  </outline>
</glyph>
<glyph name="sterling" format="1">
  <advance width="571.434072803"/>
  <unicode hex="00A3"/>
  <outline>
    <contour>
      <point x="300.934036262" y="17.8540345454" type="line"/>
      <point x="300.934036262" y="327.423135926" type="line" smooth="yes"/>
      <point x="300.934036262" y="390.842977832"/>
      <point x="342.398187746" y="416.653837866"/>
      <point x="408.423411407" y="416.653837866" type="curve" smooth="yes"/>
      <point x="433.542843445" y="416.653837866"/>
      <point x="468.663687082" y="410.162065883"/>
      <point x="499.832018688" y="395.179135905" type="curve"/>
      <point x="565.083996801" y="563.088497768" type="line"/>
      <point x="522.218869548" y="583.67444508"/>
      <point x="458.347562739" y="596.60023438"/>
      <point x="388.694692021" y="596.60023438" type="curve" smooth="yes"/>
      <point x="188.226536411" y="596.60023438"/>
      <point x="70.9438671981" y="499.858955948"/>
      <point x="70.9438671981" y="322.280908122" type="curve" smooth="yes"/>
      <point x="70.9438671981" y="17.8540345454" type="line"/>
    </contour>
    <contour>
      <point x="541.827457414" y="0.0" type="line"/>
      <point x="541.827457414" y="167.539151408" type="line"/>
      <point x="-0.983051891907" y="167.539151408" type="line"/>
      <point x="-0.983051891907" y="0.0" type="line"/>
    </contour>
    <contour>
      <point x="466.095230432" y="228.969997018" type="line"/>
      <point x="466.095230432" y="352.7299923" type="line"/>
      <point x="-0.983051891907" y="352.7299923" type="line"/>
      <point x="-0.983051891907" y="228.969997018" type="line"/>
    </contour>
  </outline>
</glyph>
<glyph name="currency" format="1">
  <advance width="592.199989319"/>
  <unicode hex="00A4"/>
  <outline>
    <contour>
      <point x="505.924911262" y="269.276819467" type="curve" smooth="yes"/>
      <point x="505.924911262" y="384.38278248"/>
      <point x="412.29301677" y="478.006149375"/>
      <point x="295.11355869" y="478.006149375" type="curve" smooth="yes"/>
      <point x="178.63966461" y="478.006149375"/>
      <point x="83.8808981644" y="384.38278248"/>
      <point x="83.8808981644" y="269.276819467" type="curve" smooth="yes"/>
      <point x="83.8808981644" y="153.924049483"/>
      <point x="178.63966461" y="60.1772791034"/>
      <point x="295.11355869" y="60.1772791034" type="curve" smooth="yes"/>
      <point x="411.306580801" y="60.1772791034"/>
      <point x="505.924911262" y="153.924049483"/>
    </contour>
    <contour>
      <point x="222.173131012" y="73.0872800891" type="line"/>
      <point x="100.975174618" y="190.660065023" type="line"/>
      <point x="12.2788440496" y="103.470715446" type="line"/>
      <point x="133.617236428" y="-14.1020694875" type="line"/>
    </contour>
    <contour>
      <point x="153.780806532" y="514.818610928" type="line"/>
      <point x="65.0844759639" y="602.007960504" type="line"/>
      <point x="-56.1134804302" y="484.435175571" type="line"/>
      <point x="32.4424141533" y="397.245825994" type="line"/>
    </contour>
    <contour>
      <point x="647.32703378" y="43.2498147398" type="line"/>
      <point x="558.771139196" y="130.439164316" type="line"/>
      <point x="437.432746818" y="12.8663793827" type="line"/>
      <point x="526.129077386" y="-74.3229701938" type="line"/>
    </contour>
    <contour>
      <point x="253.698473101" y="269.276819467" type="curve" smooth="yes"/>
      <point x="253.698473101" y="294.117487715"/>
      <point x="271.792721833" y="314.408015332"/>
      <point x="295.11355869" y="314.408015332" type="curve" smooth="yes"/>
      <point x="318.153523578" y="314.408015332"/>
      <point x="337.093772295" y="294.117487715"/>
      <point x="337.093772295" y="269.276819467" type="curve" smooth="yes"/>
      <point x="337.093772295" y="244.189344248"/>
      <point x="318.153523578" y="224.729816616"/>
      <point x="295.11355869" y="224.729816616" type="curve" smooth="yes"/>
      <point x="271.792721833" y="224.729816616"/>
      <point x="253.698473101" y="244.189344248"/>
    </contour>
    <contour>
      <point x="578.9347093" y="424.214274864" type="line"/>
      <point x="457.596316921" y="541.787059798" type="line"/>
      <point x="369.040422338" y="454.597710222" type="line"/>
      <point x="490.238378732" y="337.024925288" type="line"/>
    </contour>
  </outline>
</glyph>
<glyph name="yen" format="1">
  <advance width="665.463586707"/>
  <unicode hex="00A5"/>
  <outline>
    <contour>
      <point x="447.726877885" y="0.0" type="line"/>
      <point x="447.726877885" y="255.857416226" type="line"/>
      <point x="397.134387404" y="123.137579261" type="line"/>
      <point x="693.501717723" y="581.699989319" type="line"/>
      <point x="468.86503646" y="581.699989319" type="line"/>
      <point x="268.188763318" y="276.113871651" type="line"/>
      <point x="416.017106805" y="276.113871651" type="line"/>
      <point x="217.313705602" y="581.699989319" type="line"/>
      <point x="-28.0381310167" y="581.699989319" type="line"/>
      <point x="270.302071241" y="123.137579261" type="line"/>
      <point x="217.736708822" y="255.857416226" type="line"/>
      <point x="217.736708822" y="0.0" type="line"/>
    </contour>
    <contour>
      <point x="571.851996679" y="37.8898610342" type="line"/>
      <point x="571.851996679" y="142.56178692" type="line"/>
      <point x="93.6115900276" y="142.56178692" type="line"/>
      <point x="93.6115900276" y="37.8898610342" type="line"/>
    </contour>
    <contour>
      <point x="571.851996679" y="152.567858929" type="line"/>
      <point x="571.851996679" y="257.239784815" type="line"/>
      <point x="93.6115900276" y="257.239784815" type="line"/>
      <point x="93.6115900276" y="152.567858929" type="line"/>
    </contour>
  </outline>
</glyph>
<glyph name="brokenbar" format="1">
  <advance width="265.630458899"/>
  <unicode hex="00A6"/>
  <outline>
    <contour>
      <point x="228.081594595" y="325.751994019" type="line"/>
      <point x="228.081594595" y="616.601988678" type="line"/>
      <point x="37.5488643038" y="616.601988678" type="line"/>
      <point x="37.5488643038" y="325.751994019" type="line"/>
    </contour>
    <contour>
      <point x="228.081594595" y="-161.21399704" type="line"/>
      <point x="228.081594595" y="129.63599762" type="line"/>
      <point x="37.5488643038" y="129.63599762" type="line"/>
      <point x="37.5488643038" y="-161.21399704" type="line"/>
    </contour>
  </outline>
</glyph>
<glyph name="section" format="1">
  <advance width="494.150281835"/>
  <unicode hex="00A7"/>
  <outline>
    <contour>
      <point x="465.382898277" y="259.033082427" type="curve" smooth="yes"/>
      <point x="465.382898277" y="437.270114027"/>
      <point x="227.06470193" y="392.839868285"/>
      <point x="227.06470193" y="429.800256103" type="curve" smooth="yes"/>
      <point x="227.06470193" y="436.860432784"/>
      <point x="232.167774457" y="446.240345429"/>
      <point x="273.792666391" y="446.240345429" type="curve" smooth="yes"/>
      <point x="318.914921628" y="446.240345429"/>
      <point x="365.729176836" y="439.748573447"/>
      <point x="415.211715749" y="414.23438089" type="curve"/>
      <point x="474.685514031" y="554.466042129" type="line"/>
      <point x="425.062539133" y="581.05804164"/>
      <point x="330.895973322" y="590.873813562"/>
      <point x="283.657026083" y="590.873813562" type="curve" smooth="yes"/>
      <point x="110.408074125" y="590.873813562"/>
      <point x="34.5590996994" y="514.965289412"/>
      <point x="34.5590996994" y="422.165028344" type="curve" smooth="yes"/>
      <point x="34.5590996994" y="245.219786258"/>
      <point x="275.69616797" y="298.363066713"/>
      <point x="275.69616797" y="250.443451198" type="curve" smooth="yes"/>
      <point x="275.69616797" y="239.286029257"/>
      <point x="267.637171612" y="224.303099278"/>
      <point x="249.426175437" y="215.869695946" type="curve"/>
      <point x="351.323488553" y="120.124787332" type="line"/>
      <point x="430.974386794" y="148.691242605"/>
      <point x="465.382898277" y="203.726293904"/>
    </contour>
    <contour>
      <point x="450.997514459" y="76.6817694706" type="curve" smooth="yes"/>
      <point x="450.997514459" y="254.334608056"/>
      <point x="208.874010219" y="201.191327601"/>
      <point x="208.874010219" y="249.110943116" type="curve" smooth="yes"/>
      <point x="208.874010219" y="260.515172028"/>
      <point x="217.073442562" y="275.498102006"/>
      <point x="235.565310706" y="283.808101854" type="curve"/>
      <point x="133.38712562" y="379.553010467" type="line"/>
      <point x="53.5957913948" y="350.986555195"/>
      <point x="19.1872799121" y="295.82810041"/>
      <point x="19.1872799121" y="230.97727719" type="curve" smooth="yes"/>
      <point x="19.1872799121" y="62.2842802875"/>
      <point x="258.491912228" y="116.258560728"/>
      <point x="258.491912228" y="68.7997347422" type="curve" smooth="yes"/>
      <point x="258.491912228" y="61.7395580603"/>
      <point x="252.121531762" y="52.3596454155"/>
      <point x="226.988563415" y="52.3596454155" type="curve" smooth="yes"/>
      <point x="186.932155854" y="52.3596454155"/>
      <point x="123.766413045" y="65.5899963501"/>
      <point x="77.6678740699" y="90.7339784518" type="curve"/>
      <point x="18.194075788" y="-49.4976827868" type="line"/>
      <point x="67.957486671" y="-74.979050933"/>
      <point x="153.533768882" y="-92.2738227169"/>
      <point x="228.961435354" y="-92.2738227169" type="curve" smooth="yes"/>
      <point x="379.09428391" y="-92.2738227169"/>
      <point x="450.997514459" y="-16.3652985672"/>
    </contour>
  </outline>
</glyph>
<glyph name="copyright" format="1">
  <advance width="637.917829269"/>
  <unicode hex="00A9"/>
  <outline>
    <contour>
      <point x="617.596909248" y="292.511994629" type="curve" smooth="yes"/>
      <point x="617.596909248" y="457.880991592"/>
      <point x="489.850911552" y="584.192989273"/>
      <point x="319.804914619" y="584.192989273" type="curve" smooth="yes"/>
      <point x="149.758917686" y="584.192989273"/>
      <point x="20.3209200208" y="454.556991653"/>
      <point x="20.3209200208" y="290.849994659" type="curve" smooth="yes"/>
      <point x="20.3209200208" y="127.142997665"/>
      <point x="149.758917686" y="-2.49299995422"/>
      <point x="318.11291465" y="-2.49299995422" type="curve" smooth="yes"/>
      <point x="486.466911613" y="-2.49299995422"/>
      <point x="617.596909248" y="127.142997665"/>
    </contour>
    <contour>
      <point x="110.377617428" y="290.849994659" type="curve" smooth="yes"/>
      <point x="110.377617428" y="411.057466909"/>
      <point x="196.549484352" y="502.550150147"/>
      <point x="319.804914619" y="502.550150147" type="curve" smooth="yes"/>
      <point x="443.060344887" y="502.550150147"/>
      <point x="527.540211841" y="413.427063378"/>
      <point x="527.540211841" y="292.511994629" type="curve" smooth="yes"/>
      <point x="527.540211841" y="171.59692588"/>
      <point x="439.676344948" y="79.1498391717"/>
      <point x="318.11291465" y="79.1498391717" type="curve" smooth="yes"/>
      <point x="196.549484352" y="79.1498391717"/>
      <point x="110.377617428" y="170.64252241"/>
    </contour>
    <contour>
      <point x="489.125043088" y="227.37239809" type="curve"/>
      <point x="364.967778786" y="287.55757135" type="line"/>
      <point x="356.638062691" y="265.186220584"/>
      <point x="345.904014471" y="257.279255602"/>
      <point x="331.926402297" y="257.279255602" type="curve" smooth="yes"/>
      <point x="321.165281459" y="257.279255602"/>
      <point x="307.458389022" y="266.741853164"/>
      <point x="307.458389022" y="290.849994659" type="curve" smooth="yes"/>
      <point x="307.458389022" y="314.958136155"/>
      <point x="321.165281459" y="324.420733717"/>
      <point x="331.926402297" y="324.420733717" type="curve" smooth="yes"/>
      <point x="345.904014471" y="324.420733717"/>
      <point x="356.638062691" y="316.513768735"/>
      <point x="364.967778786" y="294.142417968" type="curve"/>
      <point x="489.125043088" y="354.327591229" type="line"/>
      <point x="470.506275268" y="415.582677288"/>
      <point x="412.139044476" y="453.783746332"/>
      <point x="332.772402282" y="453.783746332" type="curve" smooth="yes"/>
      <point x="225.052916328" y="453.783746332"/>
      <point x="148.491609748" y="386.258765009"/>
      <point x="148.491609748" y="290.849994659" type="curve" smooth="yes"/>
      <point x="148.491609748" y="195.44122431"/>
      <point x="225.052916328" y="127.916242986"/>
      <point x="332.772402282" y="127.916242986" type="curve" smooth="yes"/>
      <point x="412.139044476" y="127.916242986"/>
      <point x="470.506275268" y="166.117312031"/>
    </contour>
  </outline>
</glyph>
<glyph name="ordfeminine" format="1">
  <advance width="356.998457251"/>
  <unicode hex="00AA"/>
  <outline>
    <contour>
      <point x="333.00251309" y="347.292344801" type="line"/>
      <point x="333.00251309" y="487.846851549" type="line" smooth="yes"/>
      <point x="333.00251309" y="583.822778818"/>
      <point x="269.144742591" y="625.899216406"/>
      <point x="158.907561147" y="625.899216406" type="curve" smooth="yes"/>
      <point x="112.661818033" y="625.899216406"/>
      <point x="57.2572792255" y="615.713234029"/>
      <point x="20.3209200208" y="596.139444851" type="curve"/>
      <point x="66.2654867015" y="509.107570951" type="line"/>
      <point x="84.8808704432" y="521.292939341"/>
      <point x="113.507818017" y="527.908114808"/>
      <point x="133.260225945" y="527.908114808" type="curve" smooth="yes"/>
      <point x="171.059505521" y="527.908114808"/>
      <point x="184.886529479" y="515.508763858"/>
      <point x="184.886529479" y="495.482079308" type="curve" smooth="yes"/>
      <point x="184.886529479" y="405.890308851" type="line"/>
      <point x="195.596889156" y="392.808291655" type="line"/>
      <point x="195.596889156" y="347.292344801" type="line"/>
    </contour>
    <contour>
      <point x="202.645761003" y="399.579695018" type="curve"/>
      <point x="184.886529479" y="438.430605899" type="line"/>
      <point x="180.930633369" y="425.265903786"/>
      <point x="169.638225289" y="420.962570124"/>
      <point x="161.575844853" y="420.962570124" type="curve" smooth="yes"/>
      <point x="151.961900433" y="420.962570124"/>
      <point x="145.32080023" y="427.05130724"/>
      <point x="145.32080023" y="434.028799005" type="curve" smooth="yes"/>
      <point x="145.32080023" y="444.486518605"/>
      <point x="154.071824279" y="448.666448781"/>
      <point x="171.440204546" y="448.666448781" type="curve" smooth="yes"/>
      <point x="197.573145172" y="448.666448781" type="line"/>
      <point x="197.573145172" y="511.714832452" type="line"/>
      <point x="147.765741283" y="511.714832452" type="line" smooth="yes"/>
      <point x="51.8970232705" y="511.714832452"/>
      <point x="5.94230435754" y="483.954446911"/>
      <point x="5.94230435754" y="428.425781671" type="curve" smooth="yes"/>
      <point x="5.94230435754" y="381.396168586"/>
      <point x="42.3203037014" y="341.812730952"/>
      <point x="116.621098219" y="341.812730952" type="curve" smooth="yes"/>
      <point x="166.117173443" y="341.812730952"/>
      <point x="194.182377079" y="359.815099235"/>
    </contour>
  </outline>
</glyph>
<glyph name="logicalnot" format="1">
  <advance width="532.946149613"/>
  <unicode hex="00AC"/>
  <outline>
    <contour>
      <point x="43.7212794696" y="370.863658227" type="line"/>
      <point x="43.7212794696" y="210.959734577" type="line"/>
      <point x="314.475115361" y="210.959734577" type="line"/>
      <point x="314.475115361" y="71.047175507" type="line"/>
      <point x="489.224870143" y="71.047175507" type="line"/>
      <point x="489.224870143" y="370.863658227" type="line"/>
    </contour>
  </outline>
</glyph>
<glyph name="registered" format="1">
  <advance width="637.917829269"/>
  <unicode hex="00AE"/>
  <outline>
    <contour>
      <point x="617.596909248" y="292.511994629" type="curve" smooth="yes"/>
      <point x="617.596909248" y="457.880991592"/>
      <point x="489.850911552" y="584.192989273"/>
      <point x="319.804914619" y="584.192989273" type="curve" smooth="yes"/>
      <point x="149.758917686" y="584.192989273"/>
      <point x="20.3209200208" y="454.556991653"/>
      <point x="20.3209200208" y="290.849994659" type="curve" smooth="yes"/>
      <point x="20.3209200208" y="127.142997665"/>
      <point x="149.758917686" y="-2.49299995422"/>
      <point x="318.11291465" y="-2.49299995422" type="curve" smooth="yes"/>
      <point x="486.466911613" y="-2.49299995422"/>
      <point x="617.596909248" y="127.142997665"/>
    </contour>
    <contour>
      <point x="500.688170905" y="137.090067229" type="line"/>
      <point x="424.681840108" y="252.623995361" type="line"/>
      <point x="284.03265222" y="252.623995361" type="line"/>
      <point x="360.038983017" y="137.090067229" type="line"/>
    </contour>
    <contour>
      <point x="110.377617428" y="290.849994659" type="curve" smooth="yes"/>
      <point x="110.377617428" y="411.057466909"/>
      <point x="196.549484352" y="502.550150147"/>
      <point x="319.804914619" y="502.550150147" type="curve" smooth="yes"/>
      <point x="443.060344887" y="502.550150147"/>
      <point x="527.540211841" y="413.427063378"/>
      <point x="527.540211841" y="292.511994629" type="curve" smooth="yes"/>
      <point x="527.540211841" y="171.59692588"/>
      <point x="439.676344948" y="79.1498391717"/>
      <point x="318.11291465" y="79.1498391717" type="curve" smooth="yes"/>
      <point x="196.549484352" y="79.1498391717"/>
      <point x="110.377617428" y="170.64252241"/>
    </contour>
    <contour>
      <point x="312.564845627" y="137.090067229" type="line"/>
      <point x="312.564845627" y="210.202277571" type="line"/>
      <point x="328.83342656" y="210.202277571" type="line" smooth="yes"/>
      <point x="426.113272573" y="210.202277571"/>
      <point x="481.945887488" y="248.642259429"/>
      <point x="481.945887488" y="327.406099831" type="curve" smooth="yes"/>
      <point x="481.945887488" y="398.534712474"/>
      <point x="426.113272573" y="444.60992209"/>
      <point x="328.83342656" y="444.60992209" type="curve" smooth="yes"/>
      <point x="173.326785739" y="444.60992209" type="line"/>
      <point x="173.326785739" y="137.090067229" type="line"/>
    </contour>
    <contour>
      <point x="312.705281611" y="352.468644796" type="line"/>
      <point x="320.236374805" y="352.468644796" type="line" smooth="yes"/>
      <point x="334.933087289" y="352.468644796"/>
      <point x="342.7078276" y="342.381135652"/>
      <point x="342.7078276" y="327.406099831" type="curve" smooth="yes"/>
      <point x="342.7078276" y="312.43106401"/>
      <point x="334.933087289" y="302.343554865"/>
      <point x="320.236374805" y="302.343554865" type="curve" smooth="yes"/>
      <point x="312.705281611" y="302.343554865" type="line"/>
    </contour>
  </outline>
</glyph>
<glyph name="degree" format="1">
  <advance width="351.374249714"/>
  <unicode hex="00B0"/>
  <outline>
    <contour>
      <point x="340.071689402" y="437.591711757" type="curve" smooth="yes"/>
      <point x="340.071689402" y="524.574972931"/>
      <point x="265.633842977" y="591.828217031"/>
      <point x="175.687124857" y="591.828217031" type="curve" smooth="yes"/>
      <point x="85.7404067375" y="591.828217031"/>
      <point x="11.3025603125" y="524.574972931"/>
      <point x="11.3025603125" y="437.591711757" type="curve" smooth="yes"/>
      <point x="11.3025603125" y="350.608450582"/>
      <point x="85.7404067375" y="283.355206482"/>
      <point x="175.687124857" y="283.355206482" type="curve" smooth="yes"/>
      <point x="265.633842977" y="283.355206482"/>
      <point x="340.071689402" y="350.608450582"/>
    </contour>
    <contour>
      <point x="119.115105167" y="437.591711757" type="curve" smooth="yes"/>
      <point x="119.115105167" y="469.622606549"/>
      <point x="142.676205065" y="494.791518904"/>
      <point x="175.687124857" y="494.791518904" type="curve" smooth="yes"/>
      <point x="208.698044649" y="494.791518904"/>
      <point x="232.259144547" y="469.622606549"/>
      <point x="232.259144547" y="437.591711757" type="curve" smooth="yes"/>
      <point x="232.259144547" y="405.560816964"/>
      <point x="208.698044649" y="380.391904609"/>
      <point x="175.687124857" y="380.391904609" type="curve" smooth="yes"/>
      <point x="142.676205065" y="380.391904609"/>
      <point x="119.115105167" y="405.560816964"/>
    </contour>
  </outline>
</glyph>
<glyph name="plusminus" format="1">
  <advance width="532.946149613"/>
  <unicode hex="00B1"/>
  <outline>
    <contour>
      <point x="489.224870143" y="0.0" type="line"/>
      <point x="489.224870143" y="159.903923649" type="line"/>
      <point x="43.7212794696" y="159.903923649" type="line"/>
      <point x="43.7212794696" y="0.0" type="line"/>
    </contour>
    <contour>
      <point x="353.847952198" y="205.774292644" type="line"/>
      <point x="353.847952198" y="600.210512077" type="line"/>
      <point x="179.098197415" y="600.210512077" type="line"/>
      <point x="179.098197415" y="205.774292644" type="line"/>
    </contour>
    <contour>
      <point x="489.224870143" y="327.396957892" type="line"/>
      <point x="489.224870143" y="478.711250313" type="line"/>
      <point x="43.7212794696" y="478.711250313" type="line"/>
      <point x="43.7212794696" y="327.396957892" type="line"/>
    </contour>
  </outline>
</glyph>
<glyph name="paragraph" format="1">
  <advance width="635.836666854"/>
  <unicode hex="00B6"/>
  <outline>
    <contour>
      <point x="371.018367165" y="-83.0999984741" type="line"/>
      <point x="371.018367165" y="471.014117076" type="line"/>
      <point x="421.565175828" y="471.014117076" type="line"/>
      <point x="421.565175828" y="-83.0999984741" type="line"/>
      <point x="598.28780255" y="-83.0999984741" type="line"/>
      <point x="598.28780255" y="616.601988678" type="line"/>
      <point x="232.766743247" y="616.601988678" type="line" smooth="yes"/>
      <point x="94.8890501982" y="616.601988678"/>
      <point x="4.38058814044" y="548.731727152"/>
      <point x="4.38058814044" y="440.817238464" type="curve" smooth="yes"/>
      <point x="4.38058814044" y="335.642556699"/>
      <point x="89.9568703517" y="269.927909083"/>
      <point x="194.295740444" y="266.110295204" type="curve"/>
      <point x="194.295740444" y="-83.0999984741" type="line"/>
    </contour>
  </outline>
</glyph>
<glyph name="periodcentered" format="1">
  <advance width="308.157184867"/>
  <unicode hex="00B7"/>
  <outline>
    <contour>
      <point x="280.636804783" y="244.198486186" type="curve" smooth="yes"/>
      <point x="280.636804783" y="317.868711509"/>
      <point x="229.054494255" y="364.108043179"/>
      <point x="154.078592434" y="364.108043179" type="curve" smooth="yes"/>
      <point x="79.102690612" y="364.108043179"/>
      <point x="27.5203800845" y="317.868711509"/>
      <point x="27.5203800845" y="244.198486186" type="curve" smooth="yes"/>
      <point x="27.5203800845" y="170.528260863"/>
      <point x="79.102690612" y="122.380122255"/>
      <point x="154.078592434" y="122.380122255" type="curve" smooth="yes"/>
      <point x="229.054494255" y="122.380122255"/>
      <point x="280.636804783" y="170.528260863"/>
    </contour>
  </outline>
</glyph>
<glyph name="ordmasculine" format="1">
  <advance width="374.901508838"/>
  <unicode hex="00BA"/>
  <outline>
    <contour>
      <point x="364.876408696" y="483.855973679" type="curve" smooth="yes"/>
      <point x="364.876408696" y="567.112200049"/>
      <point x="291.705870209" y="625.899216406"/>
      <point x="187.520972411" y="625.899216406" type="curve" smooth="yes"/>
      <point x="84.3225105824" y="625.899216406"/>
      <point x="10.1655361265" y="567.112200049"/>
      <point x="10.1655361265" y="483.855973679" type="curve" smooth="yes"/>
      <point x="10.1655361265" y="400.599747309"/>
      <point x="84.3225105824" y="341.812730952"/>
      <point x="187.520972411" y="341.812730952" type="curve" smooth="yes"/>
      <point x="291.705870209" y="341.812730952"/>
      <point x="364.876408696" y="400.599747309"/>
    </contour>
    <contour>
      <point x="156.449083784" y="483.855973679" type="curve" smooth="yes"/>
      <point x="156.449083784" y="511.913026696"/>
      <point x="170.430080035" y="523.136097459"/>
      <point x="187.520972411" y="523.136097459" type="curve" smooth="yes"/>
      <point x="204.611864787" y="523.136097459"/>
      <point x="218.592861038" y="511.913026696"/>
      <point x="218.592861038" y="483.855973679" type="curve" smooth="yes"/>
      <point x="218.592861038" y="456.753324131"/>
      <point x="204.611864787" y="444.575849898"/>
      <point x="187.520972411" y="444.575849898" type="curve" smooth="yes"/>
      <point x="170.430080035" y="444.575849898"/>
      <point x="156.449083784" y="456.753324131"/>
    </contour>
  </outline>
</glyph>
<glyph name="questiondown" format="1">
  <advance width="519.97866195"/>
  <unicode hex="00BF"/>
  <outline>
    <contour>
      <point x="150.49832246" y="225.67882149" type="line"/>
      <point x="150.49832246" y="171.810908439"/>
      <point x="23.9993282384" y="146.042014755"/>
      <point x="23.9993282384" y="19.9190693806" type="curve" smooth="yes"/>
      <point x="23.9993282384" y="-88.2750506889"/>
      <point x="125.78327799" y="-142.874242712"/>
      <point x="260.143303269" y="-142.874242712" type="curve" smooth="yes"/>
      <point x="401.675715994" y="-142.874242712"/>
      <point x="489.646178097" y="-83.832525227"/>
      <point x="531.665305365" y="0.632805740257" type="curve"/>
      <point x="361.991550491" y="83.8470657613" type="line"/>
      <point x="348.438630348" y="50.796118678"/>
      <point x="318.67127451" y="29.4369260448"/>
      <point x="289.736382348" y="29.4369260448" type="curve" smooth="yes"/>
      <point x="271.073621523" y="29.4369260448"/>
      <point x="251.030189394" y="36.9329620031"/>
      <point x="251.030189394" y="57.0174012176" type="curve" smooth="yes"/>
      <point x="251.030189394" y="96.8160691914"/>
      <point x="350.895412445" y="131.297997589"/>
      <point x="350.895412445" y="225.67882149" type="curve"/>
    </contour>
    <contour>
      <point x="124.138655104" y="356.112994684" type="curve" smooth="yes"/>
      <point x="124.138655104" y="293.895610998"/>
      <point x="175.720965631" y="246.701875859"/>
      <point x="250.696867453" y="246.701875859" type="curve" smooth="yes"/>
      <point x="325.672769274" y="246.701875859"/>
      <point x="377.255079802" y="293.895610998"/>
      <point x="377.255079802" y="356.112994684" type="curve" smooth="yes"/>
      <point x="377.255079802" y="417.3759749"/>
      <point x="325.672769274" y="467.432920448"/>
      <point x="250.696867453" y="467.432920448" type="curve" smooth="yes"/>
      <point x="175.720965631" y="467.432920448"/>
      <point x="124.138655104" y="417.3759749"/>
    </contour>
  </outline>
</glyph>
<glyph name="AE" format="1">
  <advance width="959.724377257"/>
  <unicode hex="00C6"/>
  <outline>
    <contour>
      <point x="543.194592408" y="581.699989319" type="move" name="top"/>
    </contour>
    <contour>
      <point x="543.194592408" y="0.0" type="move" name="bottom"/>
    </contour>
    <contour>
      <point x="213.508397709" y="0.0" type="line"/>
      <point x="454.268151032" y="503.381150132" type="line"/>
      <point x="316.160347175" y="414.160837911" type="line"/>
      <point x="509.371513406" y="414.160837911" type="line"/>
      <point x="509.371513406" y="581.699989319" type="line"/>
      <point x="281.494652265" y="581.699989319" type="line"/>
      <point x="-20.0062072777" y="0.0" type="line"/>
    </contour>
    <contour>
      <point x="509.371513406" y="75.2271056838" type="line"/>
      <point x="509.371513406" y="235.131029333" type="line"/>
      <point x="194.542771639" y="235.131029333" type="line"/>
      <point x="195.947131485" y="75.2271056838" type="line"/>
    </contour>
    <contour>
      <point x="938.834945143" y="0.0" type="line"/>
      <point x="938.834945143" y="167.539151408" type="line"/>
      <point x="656.216805002" y="167.539151408" type="line"/>
      <point x="656.216805002" y="214.991331016" type="line"/>
      <point x="893.993561875" y="214.991331016" type="line"/>
      <point x="893.993561875" y="374.895254665" type="line"/>
      <point x="656.216805002" y="374.895254665" type="line"/>
      <point x="656.216805002" y="414.160837911" type="line"/>
      <point x="928.117817311" y="414.160837911" type="line"/>
      <point x="928.117817311" y="581.699989319" type="line"/>
      <point x="430.172379815" y="581.699989319" type="line"/>
      <point x="430.172379815" y="0.0" type="line"/>
    </contour>
  </outline>
</glyph>
<glyph name="multiply" format="1">
  <advance width="532.946149613"/>
  <unicode hex="00D7"/>
  <outline>
    <contour>
      <point x="167.48092436" y="80.5504916368" type="line"/>
      <point x="481.871437786" y="388.348730097" type="line"/>
      <point x="365.465225253" y="501.149497682" type="line"/>
      <point x="51.0747118275" y="193.351259221" type="line"/>
    </contour>
    <contour>
      <point x="365.465225253" y="80.5504916368" type="line"/>
      <point x="481.871437786" y="193.351259221" type="line"/>
      <point x="167.48092436" y="501.149497682" type="line"/>
      <point x="51.0747118275" y="388.348730097" type="line"/>
    </contour>
  </outline>
</glyph>
<glyph name="Oslash" format="1">
  <advance width="719.093218875"/>
  <unicode hex="00D8"/>
  <outline>
    <contour>
      <point x="359.546609438" y="581.699989319" type="move" name="top"/>
    </contour>
    <contour>
      <point x="359.546609438" y="0.0" type="move" name="bottom"/>
    </contour>
    <component base="slashlongcomb.case" xOffset="22.4105394022"/>
    <component base="O"/>
  </outline>
</glyph>
<glyph name="Thorn" format="1">
  <advance width="633.212376153"/>
  <unicode hex="00DE"/>
  <outline>
    <contour>
      <point x="336.694457617" y="83.059279906" type="line"/>
      <point x="504.894482287" y="83.059279906"/>
      <point x="612.74763607" y="169.919137596"/>
      <point x="612.74763607" y="306.63899437" type="curve" smooth="yes"/>
      <point x="612.74763607" y="443.358851144"/>
      <point x="504.894482287" y="530.218708833"/>
      <point x="336.694457617" y="530.218708833" type="curve" smooth="yes"/>
      <point x="221.454030702" y="530.218708833" type="line"/>
      <point x="221.454030702" y="358.861943546" type="line"/>
      <point x="321.617046109" y="358.861943546" type="line" smooth="yes"/>
      <point x="362.703882646" y="358.861943546"/>
      <point x="380.784595068" y="338.777504332"/>
      <point x="380.784595068" y="306.63899437" type="curve" smooth="yes"/>
      <point x="380.784595068" y="274.500484407"/>
      <point x="362.703882646" y="254.416045193"/>
      <point x="321.617046109" y="254.416045193" type="curve" smooth="yes"/>
      <point x="221.454030702" y="254.416045193" type="line"/>
      <point x="221.454030702" y="83.059279906" type="line"/>
    </contour>
    <contour>
      <point x="267.539033367" y="0.0" type="line"/>
      <point x="267.539033367" y="582.777796274" type="line"/>
      <point x="37.5488643038" y="582.777796274" type="line"/>
      <point x="37.5488643038" y="0.0" type="line"/>
    </contour>
  </outline>
</glyph>
<glyph name="germandbls" format="1">
  <advance width="606.832404332"/>
  <unicode hex="00DF"/>
  <outline>
    <contour>
      <point x="593.700792143" y="179.347662966" type="curve" smooth="yes"/>
      <point x="593.700792143" y="291.935695772"/>
      <point x="506.144869838" y="353.799905098"/>
      <point x="354.871613018" y="353.799905098" type="curve"/>
      <point x="309.060714167" y="263.534610333" type="line"/>
      <point x="424.099791705" y="263.534610333"/>
      <point x="539.560177197" y="330.170837008"/>
      <point x="539.560177197" y="438.60386989" type="curve" smooth="yes"/>
      <point x="539.560177197" y="542.45393773"/>
      <point x="452.997459016" y="625.775812921"/>
      <point x="295.24722652" y="625.775812921" type="curve" smooth="yes"/>
      <point x="154.687713455" y="625.775812921"/>
      <point x="33.1716602408" y="544.272165595"/>
      <point x="33.1716602408" y="387.789467336" type="curve" smooth="yes"/>
      <point x="33.1716602408" y="0.0" type="line"/>
      <point x="253.297469611" y="0.0" type="line"/>
      <point x="253.297469611" y="417.499378385" type="line" smooth="yes"/>
      <point x="253.297469611" y="445.170432632"/>
      <point x="269.542362002" y="462.054275392"/>
      <point x="296.093226505" y="462.054275392" type="curve" smooth="yes"/>
      <point x="318.273655099" y="462.054275392"/>
      <point x="334.230907366" y="444.430011722"/>
      <point x="334.230907366" y="417.606993555" type="curve" smooth="yes"/>
      <point x="334.230907366" y="391.927431164"/>
      <point x="314.605399113" y="374.673377948"/>
      <point x="287.766894487" y="372.764571009" type="curve"/>
      <point x="287.766894487" y="212.860647359" type="line"/>
      <point x="330.635405817" y="212.860647359" type="line" smooth="yes"/>
      <point x="362.964450151" y="212.860647359"/>
      <point x="376.53429068" y="203.579207947"/>
      <point x="376.53429068" y="185.074083785" type="curve" smooth="yes"/>
      <point x="376.53429068" y="165.614556153"/>
      <point x="360.566886181" y="156.456520225"/>
      <point x="338.667329556" y="156.456520225" type="curve" smooth="yes"/>
      <point x="320.329433706" y="156.456520225"/>
      <point x="304.108229857" y="159.657116679"/>
      <point x="287.606154038" y="166.058309587" type="curve"/>
      <point x="266.747178621" y="4.24557899812" type="line"/>
      <point x="289.167870255" y="-4.06442084929"/>
      <point x="336.112409215" y="-9.17382424279"/>
      <point x="372.206152512" y="-9.17382424279" type="curve" smooth="yes"/>
      <point x="507.12792173" y="-9.17382424279"/>
      <point x="593.700792143" y="59.8319989014"/>
    </contour>
  </outline>
</glyph>
<glyph name="ae" format="1">
  <advance width="838.52980494"/>
  <unicode hex="00E6"/>
  <outline>
    <contour>
      <point x="397.753660658" y="458.259096205" type="move" name="top"/>
    </contour>
    <contour>
      <point x="432.706995692" y="124.856086113" type="curve"/>
      <point x="332.929758654" y="124.609279143" type="line"/>
      <point x="384.241349444" y="25.8765088545"/>
      <point x="481.527963612" y="-9.17382424279"/>
      <point x="582.482833765" y="-9.17382424279" type="curve" smooth="yes"/>
      <point x="676.091039715" y="-9.17382424279"/>
      <point x="742.781218448" y="15.8795787845"/>
      <point x="789.448269516" y="64.3243848696" type="curve"/>
      <point x="676.987800861" y="176.170748984" type="line"/>
      <point x="646.528417333" y="157.065643493"/>
      <point x="627.471421173" y="147.866888997"/>
      <point x="589.38788555" y="147.866888997" type="curve" smooth="yes"/>
      <point x="536.333533629" y="147.866888997"/>
      <point x="507.816565343" y="172.748275814"/>
      <point x="507.816565343" y="222.864223806" type="curve" smooth="yes"/>
      <point x="507.816565343" y="254.820327839" type="line" smooth="yes"/>
      <point x="507.816565343" y="298.164872469"/>
      <point x="529.705969736" y="322.799452315"/>
      <point x="565.422398086" y="322.799452315" type="curve" smooth="yes"/>
      <point x="601.138826436" y="322.799452315"/>
      <point x="622.887794844" y="298.164872469"/>
      <point x="622.887794844" y="254.820327839" type="curve"/>
      <point x="663.194617678" y="278.491362278" type="line"/>
      <point x="493.581769742" y="278.491362278" type="line"/>
      <point x="493.581769742" y="176.806050286" type="line"/>
      <point x="821.452448874" y="176.806050286" type="line"/>
      <point x="823.425320813" y="191.829698833"/>
      <point x="825.398192751" y="211.748768213"/>
      <point x="825.398192751" y="228.6812237" type="curve" smooth="yes"/>
      <point x="825.398192751" y="386.982149824"/>
      <point x="702.464243382" y="467.432920448"/>
      <point x="568.381705994" y="467.432920448" type="curve" smooth="yes"/>
      <point x="487.018503319" y="467.432920448"/>
      <point x="411.724504677" y="437.1546047"/>
      <point x="363.23178581" y="386.134113743" type="curve"/>
      <point x="449.616843155" y="387.244745109" type="line"/>
      <point x="405.223840459" y="442.848201108"/>
      <point x="330.083814111" y="467.432920448"/>
      <point x="238.852867666" y="467.432920448" type="curve" smooth="yes"/>
      <point x="168.919124979" y="467.432920448"/>
      <point x="85.599970753" y="450.138148664"/>
      <point x="29.3494319612" y="417.76197367" type="curve"/>
      <point x="98.4067179669" y="277.283505461" type="line"/>
      <point x="127.598793557" y="297.746049288"/>
      <point x="172.583996887" y="309.437803738"/>
      <point x="205.173608725" y="309.437803738" type="curve" smooth="yes"/>
      <point x="265.116092044" y="309.437803738"/>
      <point x="287.690755973" y="288.547294792"/>
      <point x="287.690755973" y="251.291487279" type="curve" smooth="yes"/>
      <point x="287.690755973" y="165.953189978" type="line" smooth="yes"/>
      <point x="287.690755973" y="136.859048574"/>
      <point x="274.40517149" y="118.280381433"/>
      <point x="247.292563049" y="118.280381433" type="curve" smooth="yes"/>
      <point x="225.259338595" y="118.280381433"/>
      <point x="214.943214251" y="130.367276592"/>
      <point x="214.943214251" y="145.556294972" type="curve" smooth="yes"/>
      <point x="214.943214251" y="166.751365552"/>
      <point x="229.198314317" y="176.806050286"/>
      <point x="260.11623065" y="176.806050286" type="curve" smooth="yes"/>
      <point x="302.631115574" y="176.806050286" type="line"/>
      <point x="302.631115574" y="278.491362278" type="line"/>
      <point x="224.464099771" y="278.491362278" type="line" smooth="yes"/>
      <point x="78.1230227975" y="278.491362278"/>
      <point x="7.64107248181" y="231.157187558"/>
      <point x="7.64107248181" y="137.090067229" type="curve" smooth="yes"/>
      <point x="7.64107248181" y="56.2034373285"/>
      <point x="87.0110987534" y="-9.17382424279"/>
      <point x="216.713048001" y="-9.17382424279" type="curve" smooth="yes"/>
      <point x="311.605482276" y="-9.17382424279"/>
      <point x="386.902864996" y="13.3786846728"/>
    </contour>
  </outline>
</glyph>
<glyph name="eth" format="1">
  <advance width="568.204045158"/>
  <unicode hex="00F0"/>
  <outline>
    <contour>
      <point x="555.072432969" y="279.397153022" type="curve" smooth="yes"/>
      <point x="555.072432969" y="515.260709108"/>
      <point x="417.616047874" y="636.685180112"/>
      <point x="186.84248103" y="636.685180112" type="curve" smooth="yes"/>
      <point x="139.041789854" y="636.685180112"/>
      <point x="100.824586401" y="632.192794144"/>
      <point x="54.726047426" y="623.051794311" type="curve"/>
      <point x="74.7390228585" y="469.828694951" type="line"/>
      <point x="108.438586264" y="480.755098238"/>
      <point x="145.385097701" y="484.416484221"/>
      <point x="173.03237746" y="484.416484221" type="curve" smooth="yes"/>
      <point x="281.905807987" y="484.416484221"/>
      <point x="328.041571813" y="432.877449071"/>
      <point x="328.041571813" y="325.916116072" type="curve" smooth="yes"/>
      <point x="328.041571813" y="291.935695772"/>
      <point x="328.462879767" y="280.836028494"/>
      <point x="330.70985552" y="268.041536836" type="curve"/>
      <point x="382.853909985" y="303.477868703" type="line"/>
      <point x="345.085087106" y="351.931816726"/>
      <point x="299.517835372" y="379.281273244"/>
      <point x="218.144480466" y="379.281273244" type="curve" smooth="yes"/>
      <point x="108.579022248" y="379.281273244"/>
      <point x="13.1316121891" y="304.952064147"/>
      <point x="13.1316121891" y="192.150048782" type="curve" smooth="yes"/>
      <point x="13.1316121891" y="66.9407883089"/>
      <point x="122.108253849" y="-14.9002450616"/>
      <point x="259.711843083" y="-14.9002450616" type="curve" smooth="yes"/>
      <point x="435.104559662" y="-14.9002450616"/>
      <point x="555.072432969" y="91.8957181043"/>
    </contour>
    <contour>
      <point x="231.284549621" y="181.651610614" type="curve" smooth="yes"/>
      <point x="231.284549621" y="209.207155533"/>
      <point x="253.307621843" y="226.058173883"/>
      <point x="276.344202654" y="226.058173883" type="curve" smooth="yes"/>
      <point x="300.644707326" y="226.058173883"/>
      <point x="321.544291672" y="210.194383414"/>
      <point x="321.544291672" y="181.651610614" type="curve" smooth="yes"/>
      <point x="321.544291672" y="151.504592508"/>
      <point x="299.099911496" y="138.322854299"/>
      <point x="277.467690531" y="138.322854299" type="curve" smooth="yes"/>
      <point x="252.88631389" y="138.322854299"/>
      <point x="231.284549621" y="154.096065694"/>
    </contour>
    <contour>
      <point x="544.478820734" y="514.002991785" type="line"/>
      <point x="511.077049685" y="598.50904132" type="line"/>
      <point x="81.9418669997" y="449.69439523" type="line"/>
      <point x="115.343638049" y="365.188345695" type="line"/>
    </contour>
  </outline>
</glyph>
<glyph name="divide" format="1">
  <advance width="532.946149613"/>
  <unicode hex="00F7"/>
  <outline>
    <contour>
      <point x="489.224870143" y="210.959734577" type="line"/>
      <point x="489.224870143" y="370.863658227" type="line"/>
      <point x="43.7212794696" y="370.863658227" type="line"/>
      <point x="43.7212794696" y="210.959734577" type="line"/>
    </contour>
    <contour>
      <point x="373.30256777" y="103.093858614" type="curve" smooth="yes"/>
      <point x="373.30256777" y="163.40243536"/>
      <point x="326.652437089" y="202.960942741"/>
      <point x="266.473074807" y="202.960942741" type="curve" smooth="yes"/>
      <point x="206.293712524" y="202.960942741"/>
      <point x="159.643581844" y="163.40243536"/>
      <point x="159.643581844" y="103.093858614" type="curve" smooth="yes"/>
      <point x="159.643581844" y="43.7396853381"/>
      <point x="206.293712524" y="1.31796754813"/>
      <point x="266.473074807" y="1.31796754813" type="curve" smooth="yes"/>
      <point x="326.652437089" y="1.31796754813"/>
      <point x="373.30256777" y="43.7396853381"/>
    </contour>
    <contour>
      <point x="373.30256777" y="480.514937644" type="curve" smooth="yes"/>
      <point x="373.30256777" y="540.82351439"/>
      <point x="326.652437089" y="580.382021771"/>
      <point x="266.473074807" y="580.382021771" type="curve" smooth="yes"/>
      <point x="206.293712524" y="580.382021771"/>
      <point x="159.643581844" y="540.82351439"/>
      <point x="159.643581844" y="480.514937644" type="curve" smooth="yes"/>
      <point x="159.643581844" y="421.160764368"/>
      <point x="206.293712524" y="378.739046578"/>
      <point x="266.473074807" y="378.739046578" type="curve" smooth="yes"/>
      <point x="326.652437089" y="378.739046578"/>
      <point x="373.30256777" y="421.160764368"/>
    </contour>
  </outline>
</glyph>
<glyph name="oslash" format="1">
  <advance width="571.300404973"/>
  <unicode hex="00F8"/>
  <outline>
    <contour>
      <point x="285.650202486" y="458.259096205" type="move" name="top"/>
    </contour>
    <component base="slashlongcomb" xOffset="2.67843593878"/>
    <component base="o"/>
  </outline>
</glyph>
<glyph name="Dcroat" format="1">
  <advance width="718.524706782"/>
  <unicode hex="0110"/>
  <outline>
    <contour>
      <point x="293.017171154" y="582.777796274" type="move" name="top"/>
    </contour>
    <contour>
      <point x="150.601533594" y="291.804398129" type="move" name="center"/>
    </contour>
    <contour>
      <point x="299.939143326" y="0.0" type="move" name="bottom"/>
    </contour>
    <component base="Eth"/>
  </outline>
</glyph>
<glyph name="eogonek" format="1">
  <advance width="561.997789218"/>
  <unicode hex="0119"/>
  <outline>
    <contour>
      <point x="285.36594644" y="458.259096205" type="move" name="top"/>
    </contour>
    <contour>
      <point x="285.36594644" y="0.0" type="move" name="bottom"/>
    </contour>
    <contour>
      <point x="504.315817962" y="-184.152504726" type="curve"/>
      <point x="479.226842621" y="-97.2440343104" type="line"/>
      <point x="466.677278834" y="-102.073806323"/>
      <point x="448.205715154" y="-107.767402731"/>
      <point x="431.707023413" y="-107.767402731" type="curve" smooth="yes"/>
      <point x="402.939639855" y="-107.767402731"/>
      <point x="387.56443599" y="-90.3164030517"/>
      <point x="387.56443599" y="-71.8860696492" type="curve" smooth="yes"/>
      <point x="387.56443599" y="-38.7694737446"/>
      <point x="405.607923561" y="-15.0735090529"/>
      <point x="475.555202558" y="33.3305784641" type="curve" smooth="yes"/>
      <point x="489.372074283" y="42.2247713261"/>
      <point x="501.496946038" y="52.4435781131"/>
      <point x="512.916253794" y="64.3243848696" type="curve"/>
      <point x="400.455785139" y="176.170748984" type="line"/>
      <point x="369.996401611" y="157.065643493"/>
      <point x="350.939405451" y="147.866888997"/>
      <point x="310.882997889" y="147.866888997" type="curve" smooth="yes"/>
      <point x="255.85577403" y="147.866888997"/>
      <point x="227.338805744" y="172.748275814"/>
      <point x="227.338805744" y="222.864223806" type="curve" smooth="yes"/>
      <point x="227.338805744" y="254.820327839" type="line" smooth="yes"/>
      <point x="227.338805744" y="298.164872469"/>
      <point x="249.228210136" y="322.799452315"/>
      <point x="286.917510425" y="322.799452315" type="curve" smooth="yes"/>
      <point x="324.606810713" y="322.799452315"/>
      <point x="346.355779121" y="298.164872469"/>
      <point x="346.355779121" y="254.820327839" type="curve"/>
      <point x="432.038656543" y="280.646976187" type="line"/>
      <point x="196.896342603" y="280.646976187" type="line"/>
      <point x="196.896342603" y="178.961664196" type="line"/>
      <point x="544.920433152" y="178.961664196" type="line"/>
      <point x="546.89330509" y="193.985312742"/>
      <point x="548.866177029" y="213.904382123"/>
      <point x="548.866177029" y="228.92803067" type="curve" smooth="yes"/>
      <point x="548.866177029" y="386.982149824"/>
      <point x="425.932227659" y="467.432920448"/>
      <point x="284.944638486" y="467.432920448" type="curve" smooth="yes"/>
      <point x="130.427817712" y="467.432920448"/>
      <point x="13.1316121891" y="369.095290868"/>
      <point x="13.1316121891" y="229.545048095" type="curve" smooth="yes"/>
      <point x="13.1316121891" y="92.8580157315"/>
      <point x="125.358585958" y="-9.17382424279"/>
      <point x="303.977946104" y="-9.17382424279" type="curve" smooth="yes"/>
      <point x="321.894534001" y="-9.17382424279"/>
      <point x="361.793585191" y="-8.25224518363"/>
      <point x="381.258352994" y="-2.59147318613" type="curve"/>
      <point x="356.597453762" y="19.8205961487" type="line"/>
      <point x="302.306250599" y="7.09175331186"/>
      <point x="260.163607734" y="-41.3858771839"/>
      <point x="260.163607734" y="-92.8829459847" type="curve" smooth="yes"/>
      <point x="260.163607734" y="-160.786031921"/>
      <point x="311.899890555" y="-202.771890434"/>
      <point x="403.240816288" y="-202.771890434" type="curve" smooth="yes"/>
      <point x="441.7253554" y="-202.771890434"/>
      <point x="483.730946359" y="-194.215083617"/>
    </contour>
  </outline>
</glyph>
<glyph name="IJ" format="1">
  <advance width="618.840528645"/>
  <unicode hex="0132"/>
  <outline>
    <contour>
      <point x="143.25486939" y="581.699989319" type="move" name="top"/>
    </contour>
    <contour>
      <point x="586.367664249" y="279.750327381" type="curve" smooth="yes"/>
      <point x="586.367664249" y="581.699989319" type="line"/>
      <point x="356.377495186" y="581.699989319" type="line"/>
      <point x="356.377495186" y="267.219678789" type="line" smooth="yes"/>
      <point x="356.377495186" y="197.718993924"/>
      <point x="331.672602947" y="167.909361863"/>
      <point x="266.637199333" y="167.909361863" type="curve" smooth="yes"/>
      <point x="218.970175986" y="167.909361863"/>
      <point x="154.537125239" y="186.067958042"/>
      <point x="96.8754584464" y="221.340167856" type="curve"/>
      <point x="13.7271969013" y="63.9292441613" type="line"/>
      <point x="78.153479494" y="18.989596164"/>
      <point x="170.490993428" y="-9.17382424279"/>
      <point x="277.62843098" y="-9.17382424279" type="curve" smooth="yes"/>
      <point x="462.731534957" y="-9.17382424279"/>
      <point x="586.367664249" y="94.2154540671"/>
    </contour>
    <contour>
      <point x="262.463033459" y="284.892555186" type="line"/>
      <point x="262.463033459" y="581.699989319" type="line"/>
      <point x="32.4728643954" y="581.699989319" type="line"/>
      <point x="32.4728643954" y="284.892555186" type="line"/>
    </contour>
  </outline>
</glyph>
<glyph name="kgreenlandic" format="1">
  <advance width="602.417975418"/>
  <unicode hex="0138"/>
  <outline>
    <contour>
      <point x="280.981974222" y="458.259096205" type="move" name="top"/>
    </contour>
    <contour>
      <point x="280.981974222" y="0.0" type="move" name="bottom"/>
    </contour>
    <contour>
      <point x="291.983358101" y="148.256631109" type="line"/>
      <point x="401.203646879" y="233.62650504" type="line"/>
      <point x="616.214542678" y="458.259096205" type="line"/>
      <point x="356.908782428" y="458.259096205" type="line"/>
      <point x="222.714570486" y="317.801814907" type="line"/>
      <point x="217.782390639" y="66.8921755833" type="line"/>
    </contour>
    <contour>
      <point x="253.297469611" y="0.0" type="line"/>
      <point x="253.297469611" y="458.259096205" type="line"/>
      <point x="33.1716602408" y="458.259096205" type="line"/>
      <point x="33.1716602408" y="0.0" type="line"/>
    </contour>
    <contour>
      <point x="630.740362481" y="0.0" type="line"/>
      <point x="385.982415308" y="305.544151319" type="line"/>
      <point x="251.114791329" y="143.821999805" type="line"/>
      <point x="365.094678461" y="0.0" type="line"/>
    </contour>
  </outline>
</glyph>
<glyph name="Eng" format="1">
  <advance width="678.498755917"/>
  <unicode hex="014A"/>
  <outline>
    <contour>
      <point x="261.620417552" y="0.0" type="line"/>
      <point x="261.620417552" y="323.031718751" type="line"/>
      <point x="174.385976145" y="323.031718751" type="line"/>
      <point x="451.968725307" y="0.0" type="line"/>
      <point x="504.112779773" y="258.668270568" type="line"/>
      <point x="226.53003061" y="581.699989319" type="line"/>
      <point x="37.5488643038" y="581.699989319" type="line"/>
      <point x="37.5488643038" y="0.0" type="line"/>
    </contour>
    <contour>
      <point x="640.949891613" y="97.3491539191" type="curve" smooth="yes"/>
      <point x="640.949891613" y="581.699989319" type="line"/>
      <point x="416.878338366" y="581.699989319" type="line"/>
      <point x="416.878338366" y="63.6982255062" type="line" smooth="yes"/>
      <point x="416.878338366" y="24.3524529044"/>
      <point x="397.125930438" y="2.87775094371"/>
      <point x="363.115038367" y="2.87775094371" type="curve" smooth="yes"/>
      <point x="348.709350085" y="2.87775094371"/>
      <point x="335.01260988" y="7.39506716508"/>
      <point x="317.661149999" y="15.3847170636" type="curve"/>
      <point x="213.092169099" y="-133.930189343" type="line"/>
      <point x="261.163580012" y="-160.637698183"/>
      <point x="317.986014975" y="-170.387821283"/>
      <point x="382.984193738" y="-170.387821283" type="curve" smooth="yes"/>
      <point x="552.424453726" y="-170.387821283"/>
      <point x="640.949891613" y="-88.8185251354"/>
    </contour>
  </outline>
</glyph>
<glyph name="eng" format="1">
  <advance width="598.666812763"/>
  <unicode hex="014B"/>
  <outline>
    <contour>
      <point x="566.625408554" y="35.361541108" type="curve" smooth="yes"/>
      <point x="566.625408554" y="260.135819635" type="line" smooth="yes"/>
      <point x="566.625408554" y="407.016728532"/>
      <point x="481.189562327" y="467.432920448"/>
      <point x="374.734000234" y="467.432920448" type="curve" smooth="yes"/>
      <point x="277.711337649" y="467.432920448"/>
      <point x="193.258543314" y="409.608201718"/>
      <point x="173.529823928" y="284.308362171" type="curve"/>
      <point x="253.297469611" y="210.605312437" type="line"/>
      <point x="253.297469611" y="271.746136949"/>
      <point x="280.25272168" y="288.440927403"/>
      <point x="306.529482368" y="288.440927403" type="curve" smooth="yes"/>
      <point x="330.542346916" y="288.440927403"/>
      <point x="346.499599183" y="272.017874172"/>
      <point x="346.499599183" y="222.914084313" type="curve" smooth="yes"/>
      <point x="346.499599183" y="36.6533306224" type="line" smooth="yes"/>
      <point x="346.499599183" y="3.66803236032"/>
      <point x="331.826575241" y="-9.52949416363"/>
      <point x="314.602015036" y="-9.52949416363" type="curve" smooth="yes"/>
      <point x="301.901863032" y="-9.52949416363"/>
      <point x="288.499531106" y="-6.11491515025"/>
      <point x="276.792583227" y="-1.07116057802" type="curve"/>
      <point x="225.491144669" y="-149.184856545" type="line"/>
      <point x="256.645939965" y="-163.279031875"/>
      <point x="301.336735017" y="-170.387821283"/>
      <point x="348.000402007" y="-170.387821283" type="curve" smooth="yes"/>
      <point x="485.857790591" y="-170.387821283"/>
      <point x="566.625408554" y="-89.830683269"/>
    </contour>
    <contour>
      <point x="253.297469611" y="0.0" type="line"/>
      <point x="253.297469611" y="326.787834625" type="line"/>
      <point x="242.446673949" y="368.222324534" type="line"/>
      <point x="242.446673949" y="458.259096205" type="line"/>
      <point x="33.1716602408" y="458.259096205" type="line"/>
      <point x="33.1716602408" y="0.0" type="line"/>
    </contour>
  </outline>
</glyph>
<glyph name="OE" format="1">
  <advance width="974.290805988"/>
  <unicode hex="0152"/>
  <outline>
    <contour>
      <point x="557.76102114" y="581.699989319" type="move" name="top"/>
    </contour>
    <contour>
      <point x="557.76102114" y="0.0" type="move" name="bottom"/>
    </contour>
    <contour>
      <point x="503.082350797" y="0.0" type="line"/>
      <point x="503.082350797" y="173.265572226" type="line"/>
      <point x="368.006609285" y="173.265572226" type="line" smooth="yes"/>
      <point x="299.981441066" y="173.265572226"/>
      <point x="252.283961023" y="212.422292522"/>
      <point x="252.283961023" y="290.973398144" type="curve" smooth="yes"/>
      <point x="252.283961023" y="369.524503767"/>
      <point x="299.981441066" y="408.434417093"/>
      <point x="368.006609285" y="408.434417093" type="curve" smooth="yes"/>
      <point x="503.082350797" y="408.434417093" type="line"/>
      <point x="503.082350797" y="581.699989319" type="line"/>
      <point x="358.142249592" y="581.699989319" type="line" smooth="yes"/>
      <point x="158.212149379" y="581.699989319"/>
      <point x="20.3209200208" y="473.151447109"/>
      <point x="20.3209200208" y="290.973398144" type="curve" smooth="yes"/>
      <point x="20.3209200208" y="108.79534918"/>
      <point x="158.212149379" y="0.0"/>
      <point x="358.142249592" y="0.0" type="curve" smooth="yes"/>
    </contour>
    <contour>
      <point x="953.401373875" y="0.0" type="line"/>
      <point x="953.401373875" y="167.539151408" type="line"/>
      <point x="670.783233733" y="167.539151408" type="line"/>
      <point x="670.783233733" y="214.991331016" type="line"/>
      <point x="908.559990606" y="214.991331016" type="line"/>
      <point x="908.559990606" y="374.895254665" type="line"/>
      <point x="670.783233733" y="374.895254665" type="line"/>
      <point x="670.783233733" y="414.160837911" type="line"/>
      <point x="942.684246042" y="414.160837911" type="line"/>
      <point x="942.684246042" y="581.699989319" type="line"/>
      <point x="444.738808547" y="581.699989319" type="line"/>
      <point x="444.738808547" y="0.0" type="line"/>
    </contour>
  </outline>
</glyph>
<glyph name="oe" format="1">
  <advance width="888.882032381"/>
  <unicode hex="0153"/>
  <outline>
    <contour>
      <point x="450.078760037" y="458.259096205" type="move" name="top"/>
    </contour>
    <contour>
      <point x="450.078760037" y="0.0" type="move" name="bottom"/>
    </contour>
    <contour>
      <point x="532.661893567" y="229.545048095" type="curve" smooth="yes"/>
      <point x="532.661893567" y="369.095290868"/>
      <point x="439.180587291" y="467.432920448"/>
      <point x="281.704458609" y="467.432920448" type="curve" smooth="yes"/>
      <point x="126.34163785" y="467.432920448"/>
      <point x="13.1316121891" y="369.095290868"/>
      <point x="13.1316121891" y="229.545048095" type="curve" smooth="yes"/>
      <point x="13.1316121891" y="89.9948053222"/>
      <point x="126.34163785" y="-9.17382424279"/>
      <point x="281.704458609" y="-9.17382424279" type="curve" smooth="yes"/>
      <point x="439.180587291" y="-9.17382424279"/>
      <point x="532.661893567" y="89.9948053222"/>
    </contour>
    <contour>
      <point x="230.298113652" y="229.545048095" type="curve" smooth="yes"/>
      <point x="230.298113652" y="279.660996088"/>
      <point x="254.865953983" y="301.80257598"/>
      <point x="285.650202486" y="301.80257598" type="curve" smooth="yes"/>
      <point x="316.43445099" y="301.80257598"/>
      <point x="341.002291321" y="279.660996088"/>
      <point x="341.002291321" y="229.545048095" type="curve" smooth="yes"/>
      <point x="341.002291321" y="179.429100102"/>
      <point x="316.43445099" y="156.456520225"/>
      <point x="285.650202486" y="156.456520225" type="curve" smooth="yes"/>
      <point x="254.865953983" y="156.456520225"/>
      <point x="230.298113652" y="179.429100102"/>
    </contour>
    <contour>
      <point x="839.800496956" y="64.3243848696" type="curve"/>
      <point x="727.340028301" y="176.170748984" type="line"/>
      <point x="696.880644773" y="157.065643493"/>
      <point x="677.823648614" y="147.866888997"/>
      <point x="639.740112991" y="147.866888997" type="curve" smooth="yes"/>
      <point x="586.68576107" y="147.866888997"/>
      <point x="558.168792784" y="172.748275814"/>
      <point x="558.168792784" y="222.864223806" type="curve" smooth="yes"/>
      <point x="558.168792784" y="254.820327839" type="line" smooth="yes"/>
      <point x="558.168792784" y="298.164872469"/>
      <point x="580.058197176" y="322.799452315"/>
      <point x="615.774625526" y="322.799452315" type="curve" smooth="yes"/>
      <point x="651.491053876" y="322.799452315"/>
      <point x="673.240022284" y="298.164872469"/>
      <point x="673.240022284" y="254.820327839" type="curve"/>
      <point x="713.546845118" y="278.491362278" type="line"/>
      <point x="543.933997182" y="278.491362278" type="line"/>
      <point x="543.933997182" y="176.806050286" type="line"/>
      <point x="871.804676315" y="176.806050286" type="line"/>
      <point x="873.777548253" y="191.829698833"/>
      <point x="875.750420192" y="211.748768213"/>
      <point x="875.750420192" y="228.6812237" type="curve" smooth="yes"/>
      <point x="875.750420192" y="386.982149824"/>
      <point x="752.816470822" y="467.432920448"/>
      <point x="618.733933434" y="467.432920448" type="curve" smooth="yes"/>
      <point x="464.21711266" y="467.432920448"/>
      <point x="360.731010707" y="369.095290868"/>
      <point x="360.731010707" y="229.545048095" type="curve" smooth="yes"/>
      <point x="360.731010707" y="92.8580157315"/>
      <point x="464.080060753" y="-9.17382424279"/>
      <point x="632.835061206" y="-9.17382424279" type="curve" smooth="yes"/>
      <point x="726.443267156" y="-9.17382424279"/>
      <point x="793.133445888" y="15.8795787845"/>
    </contour>
  </outline>
</glyph>
<glyph name="Uogonek" format="1">
  <advance width="661.859628192"/>
  <unicode hex="0172"/>
  <outline>
    <contour>
      <point x="403.34233861" y="271.037292668" type="line"/>
      <point x="403.34233861" y="191.992573105"/>
      <point x="375.678138463" y="165.046151453"/>
      <point x="332.902686034" y="165.046151453" type="curve" smooth="yes"/>
      <point x="290.127233605" y="165.046151453"/>
      <point x="262.463033459" y="191.992573105"/>
      <point x="262.463033459" y="271.037292668" type="curve" smooth="yes"/>
      <point x="262.463033459" y="581.699989319" type="line"/>
      <point x="32.4728643954" y="581.699989319" type="line"/>
      <point x="32.4728643954" y="264.479871865" type="line" smooth="yes"/>
      <point x="32.4728643954" y="88.4890332484"/>
      <point x="142.298890118" y="-14.9002450616"/>
      <point x="330.929814096" y="-14.9002450616" type="curve" smooth="yes"/>
      <point x="346.013993759" y="-14.9002450616"/>
      <point x="359.830865484" y="-14.0692450768"/>
      <point x="374.915045148" y="-13.2382450921" type="curve"/>
      <point x="367.735889548" y="45.0381212292" type="line"/>
      <point x="279.323815027" y="19.0959635534"/>
      <point x="222.24081256" y="-30.0564390314"/>
      <point x="222.24081256" y="-95.622752909" type="curve" smooth="yes"/>
      <point x="222.24081256" y="-160.786031921"/>
      <point x="273.977095381" y="-202.771890434"/>
      <point x="365.318021114" y="-202.771890434" type="curve" smooth="yes"/>
      <point x="403.802560226" y="-202.771890434"/>
      <point x="445.808151185" y="-194.215083617"/>
      <point x="466.393022788" y="-184.152504726" type="curve"/>
      <point x="441.304047447" y="-97.2440343104" type="line"/>
      <point x="428.75448366" y="-102.073806323"/>
      <point x="410.28291998" y="-107.767402731"/>
      <point x="391.811356301" y="-107.767402731" type="curve" smooth="yes"/>
      <point x="361.071100803" y="-107.767402731"/>
      <point x="349.641640816" y="-93.1796134611"/>
      <point x="349.641640816" y="-76.5346835131" type="curve" smooth="yes"/>
      <point x="349.641640816" y="-51.5141048965"/>
      <point x="377.272000188" y="-28.9615959809"/>
      <point x="463.861790988" y="5.69359640813" type="curve" smooth="yes"/>
      <point x="561.573097187" y="44.199227087"/>
      <point x="629.386763796" y="125.916856972"/>
      <point x="629.386763796" y="264.479871865" type="curve" smooth="yes"/>
      <point x="629.386763796" y="581.699989319" type="line"/>
      <point x="403.34233861" y="581.699989319" type="line"/>
    </contour>
  </outline>
</glyph>
<glyph name="florin" format="1">
  <advance width="453.819770459"/>
  <unicode hex="0192"/>
  <outline>
    <contour>
      <point x="282.616444876" y="35.361541108" type="curve" smooth="yes"/>
      <point x="318.161980545" y="318.735031466" type="line"/>
      <point x="321.967288437" y="406.137115821" type="line"/>
      <point x="323.100928546" y="418.734661016" type="line" smooth="yes"/>
      <point x="326.628748547" y="451.719959278"/>
      <point x="345.812644382" y="464.917485802"/>
      <point x="367.54807648" y="464.917485802" type="curve" smooth="yes"/>
      <point x="380.669536437" y="464.917485802"/>
      <point x="393.225868378" y="460.548503319"/>
      <point x="405.354124211" y="456.459152216" type="curve"/>
      <point x="475.116974217" y="604.572848183" type="line"/>
      <point x="447.486614845" y="618.667023513"/>
      <point x="401.528511854" y="625.775812921"/>
      <point x="359.375716757" y="625.775812921" type="curve" smooth="yes"/>
      <point x="216.72658431" y="625.775812921"/>
      <point x="126.372094547" y="546.173078377"/>
      <point x="110.86660693" y="420.02645053" type="curve" smooth="yes"/>
      <point x="63.4770714747" y="36.6533306224" type="line" smooth="yes"/>
      <point x="59.8088154893" y="3.66803236032"/>
      <point x="42.8786635623" y="-9.52949416363"/>
      <point x="25.6541033566" y="-9.52949416363" type="curve" smooth="yes"/>
      <point x="12.9539513533" y="-9.52949416363"/>
      <point x="0.257183427368" y="-6.11491515025"/>
      <point x="-11.730636421" y="-1.07116057802" type="curve"/>
      <point x="-81.6339224114" y="-149.184856545" type="line"/>
      <point x="-52.0306911003" y="-163.279031875"/>
      <point x="-8.04546004852" y="-170.387821283"/>
      <point x="38.618206942" y="-170.387821283" type="curve" smooth="yes"/>
      <point x="176.475595526" y="-170.387821283"/>
      <point x="266.12452129" y="-90.7850867388"/>
    </contour>
    <contour>
      <point x="398.288331977" y="274.495085811" type="line"/>
      <point x="417.59574341" y="429.626992111" type="line"/>
      <point x="51.6263035336" y="429.626992111" type="line"/>
      <point x="32.3188921013" y="274.495085811" type="line"/>
    </contour>
  </outline>
</glyph>
<glyph name="Ohorn" format="1">
  <advance width="719.093218875"/>
  <unicode hex="01A0"/>
  <outline>
    <contour>
      <point x="359.546609438" y="581.699989319" type="move" name="top"/>
    </contour>
    <contour>
      <point x="359.546609438" y="0.0" type="move" name="bottom"/>
    </contour>
    <contour>
      <point x="698.772298854" y="290.849994659" type="curve" smooth="yes"/>
      <point x="698.772298854" y="384.835677852"/>
      <point x="658.989995107" y="460.415957895"/>
      <point x="597.763283463" y="512.587798785" type="curve"/>
      <point x="343.115599244" y="470.964256569" type="line"/>
      <point x="393.296934004" y="464.900449706"/>
      <point x="442.779472917" y="455.726625463"/>
      <point x="503.808219262" y="455.726625463" type="curve" smooth="yes"/>
      <point x="631.664196246" y="455.726625463"/>
      <point x="712.431814208" y="517.384746387"/>
      <point x="712.431814208" y="622.567322309" type="curve" smooth="yes"/>
      <point x="712.431814208" y="662.306987839"/>
      <point x="699.885634499" y="694.16461864"/>
      <point x="679.023275004" y="719.374249563" type="curve"/>
      <point x="535.55859927" y="677.413321302" type="line"/>
      <point x="545.851035071" y="666.396338941"/>
      <point x="552.478598965" y="649.068742747"/>
      <point x="552.478598965" y="631.280357023" type="curve" smooth="yes"/>
      <point x="552.478598965" y="602.754620318"/>
      <point x="530.900523238" y="586.044041549"/>
      <point x="501.835347323" y="586.044041549" type="curve" smooth="yes"/>
      <point x="470.660247563" y="586.044041549"/>
      <point x="427.370428279" y="596.60023438"/>
      <point x="369.410969131" y="596.60023438" type="curve" smooth="yes"/>
      <point x="163.428585272" y="596.60023438"/>
      <point x="20.3209200208" y="468.256026275"/>
      <point x="20.3209200208" y="290.849994659" type="curve" smooth="yes"/>
      <point x="20.3209200208" y="113.443963044"/>
      <point x="163.428585272" y="-14.9002450616"/>
      <point x="359.546609438" y="-14.9002450616" type="curve" smooth="yes"/>
      <point x="555.664633603" y="-14.9002450616"/>
      <point x="698.772298854" y="113.443963044"/>
    </contour>
    <contour>
      <point x="252.283961023" y="290.849994659" type="curve" smooth="yes"/>
      <point x="252.283961023" y="371.556714192"/>
      <point x="300.830825128" y="416.653837866"/>
      <point x="359.546609438" y="416.653837866" type="curve" smooth="yes"/>
      <point x="418.262393747" y="416.653837866"/>
      <point x="466.809257852" y="371.556714192"/>
      <point x="466.809257852" y="290.849994659" type="curve" smooth="yes"/>
      <point x="466.809257852" y="210.143275127"/>
      <point x="418.262393747" y="165.046151453"/>
      <point x="359.546609438" y="165.046151453" type="curve" smooth="yes"/>
      <point x="300.830825128" y="165.046151453"/>
      <point x="252.283961023" y="210.143275127"/>
    </contour>
  </outline>
</glyph>
<glyph name="ohorn" format="1">
  <advance width="571.300404973"/>
  <unicode hex="01A1"/>
  <outline>
    <contour>
      <point x="285.650202486" y="458.259096205" type="move" name="top"/>
    </contour>
    <contour>
      <point x="285.650202486" y="0.0" type="move" name="bottom"/>
    </contour>
    <contour>
      <point x="558.168792784" y="229.545048095" type="curve" smooth="yes"/>
      <point x="558.168792784" y="328.187239309"/>
      <point x="502.473229775" y="405.47023789"/>
      <point x="412.80061547" y="443.391675554" type="curve"/>
      <point x="262.584860245" y="339.394521757" type="line"/>
      <point x="291.622963541" y="332.960504439"/>
      <point x="329.676042467" y="328.18848709"/>
      <point x="368.855993347" y="328.18848709" type="curve" smooth="yes"/>
      <point x="488.532842453" y="328.18848709"/>
      <point x="572.39682023" y="391.475783573"/>
      <point x="572.39682023" y="499.003025711" type="curve" smooth="yes"/>
      <point x="572.39682023" y="538.74269124"/>
      <point x="557.877768582" y="570.600322041"/>
      <point x="537.015409088" y="595.809952964" type="curve"/>
      <point x="393.550733354" y="553.849024703" type="line"/>
      <point x="403.843169155" y="542.832042342"/>
      <point x="412.443604987" y="525.504446148"/>
      <point x="412.443604987" y="507.716060424" type="curve" smooth="yes"/>
      <point x="412.443604987" y="476.969060988"/>
      <point x="399.606401077" y="458.505903175"/>
      <point x="375.901481117" y="458.505903175" type="curve" smooth="yes"/>
      <point x="356.005253127" y="458.505903175"/>
      <point x="330.207329709" y="467.432920448"/>
      <point x="288.609510394" y="467.432920448" type="curve" smooth="yes"/>
      <point x="126.34163785" y="467.432920448"/>
      <point x="13.1316121891" y="369.095290868"/>
      <point x="13.1316121891" y="229.545048095" type="curve" smooth="yes"/>
      <point x="13.1316121891" y="89.9948053222"/>
      <point x="126.34163785" y="-9.17382424279"/>
      <point x="285.650202486" y="-9.17382424279" type="curve" smooth="yes"/>
      <point x="444.958767123" y="-9.17382424279"/>
      <point x="558.168792784" y="89.9948053222"/>
    </contour>
    <contour>
      <point x="230.298113652" y="229.545048095" type="curve" smooth="yes"/>
      <point x="230.298113652" y="279.660996088"/>
      <point x="254.865953983" y="301.80257598"/>
      <point x="285.650202486" y="301.80257598" type="curve" smooth="yes"/>
      <point x="316.43445099" y="301.80257598"/>
      <point x="341.002291321" y="279.660996088"/>
      <point x="341.002291321" y="229.545048095" type="curve" smooth="yes"/>
      <point x="341.002291321" y="179.429100102"/>
      <point x="316.43445099" y="156.456520225"/>
      <point x="285.650202486" y="156.456520225" type="curve" smooth="yes"/>
      <point x="254.865953983" y="156.456520225"/>
      <point x="230.298113652" y="179.429100102"/>
    </contour>
  </outline>
</glyph>
<glyph name="acutecomb" format="1">
  <advance width="507.599990845"/>
  <unicode hex="0301"/>
  <outline>
    <contour>
      <point x="253.799995422" y="458.259096205" type="move" name="_top"/>
    </contour>
    <contour>
      <point x="253.799995422" y="643.900336909" type="move" name="top"/>
    </contour>
    <contour>
      <point x="300.296153809" y="504.416990738" type="line"/>
      <point x="473.558642077" y="643.547162549" type="line"/>
      <point x="267.09234806" y="643.547162549" type="line"/>
      <point x="156.543837951" y="504.416990738" type="line"/>
    </contour>
  </outline>
</glyph>
